<?xml version="1.0" encoding="UTF-8"?>
<svg version="1.1" xmlns="http://www.w3.org/2000/svg" width="512" height="512">
<path d="M0 0 C62.96329081 -1.10348035 121.13012876 22.13629698 168.2890625 63.12109375 C169.67351562 64.31798828 169.67351562 64.31798828 171.0859375 65.5390625 C175.55918897 69.47687932 179.69383776 73.49441389 183.53125 78.0546875 C185.4485359 80.30856359 187.45968451 82.45602222 189.4765625 84.62109375 C226.05950294 125.42037309 247.04435951 181.51651466 248.2890625 236.12109375 C248.32902344 237.43207031 248.36898438 238.74304688 248.41015625 240.09375 C249.74059946 302.50431473 226.27411785 362.92346825 184.34375 408.84375 C182.58340452 410.79485535 180.89721927 412.78122919 179.2265625 414.80859375 C176.55277242 417.95121277 173.59483598 420.60213976 170.44921875 423.265625 C169.01126238 424.50075931 167.60157268 425.76959549 166.22265625 427.0703125 C124.76963697 466.07219673 67.46972909 485.98393761 11.2890625 488.12109375 C10.19851563 488.16363281 9.10796875 488.20617187 7.984375 488.25 C-20.27111617 488.76813248 -47.92358702 483.81009152 -74.7109375 475.12109375 C-75.43796875 474.88696777 -76.165 474.6528418 -76.9140625 474.41162109 C-96.2092848 468.05426315 -114.95714769 458.570827 -131.7109375 447.12109375 C-132.30374512 446.72212891 -132.89655273 446.32316406 -133.50732422 445.91210938 C-142.21519011 440.02309798 -150.25305305 433.49398202 -158.11962891 426.52880859 C-159.59437657 425.22420672 -161.07994958 423.93186985 -162.56640625 422.640625 C-167.02213489 418.7241676 -171.13323733 414.7269479 -174.953125 410.1875 C-176.8704109 407.93362391 -178.88155951 405.78616528 -180.8984375 403.62109375 C-217.34196365 362.97729679 -238.15381346 307.51662698 -239.7109375 253.12109375 C-239.73285156 252.40695312 -239.75476563 251.6928125 -239.77734375 250.95703125 C-241.10402834 200.18923442 -227.00258491 146.41664573 -196.7109375 105.12109375 C-196.01742187 104.156875 -195.32390625 103.19265625 -194.609375 102.19921875 C-188.99160231 94.53681501 -182.93923604 87.28765163 -176.7109375 80.12109375 C-175.91300781 79.198125 -175.11507812 78.27515625 -174.29296875 77.32421875 C-170.35515193 72.85096728 -166.33761736 68.71631849 -161.77734375 64.87890625 C-159.52346766 62.96162035 -157.37600903 60.95047174 -155.2109375 58.93359375 C-112.7024578 20.81808763 -56.42550828 1.84125343 0 0 Z M70.68920898 168.59155273 C69.46074249 169.81739075 69.46074249 169.81739075 68.2074585 171.06799316 C65.52251733 173.7485619 62.8412169 176.43273796 60.16015625 179.1171875 C58.28278436 180.99388503 56.40526521 182.87043432 54.52760315 184.74684143 C50.60132065 188.67131126 46.67713597 192.59786946 42.75415039 196.52563477 C38.23670344 201.04852259 33.71566568 205.56779705 29.19274658 210.08521217 C25.29001866 213.98338316 21.38926649 217.88352316 17.49012047 221.78527695 C15.16987661 224.10706944 12.84878823 226.42800464 10.52630424 228.74755669 C7.93494178 231.33636493 5.34683136 233.92838257 2.75952148 236.52124023 C1.62390526 237.65382011 1.62390526 237.65382011 0.46534729 238.8092804 C-3.60250139 242.89321094 -7.50193452 247.06680501 -11.25643921 251.44130802 C-13.05293299 253.51606097 -14.94622255 255.47013677 -16.89453125 257.40234375 C-17.59384766 258.0984375 -18.29316406 258.79453125 -19.01367188 259.51171875 C-19.71814453 260.2078125 -20.42261719 260.90390625 -21.1484375 261.62109375 C-21.87998047 262.348125 -22.61152344 263.07515625 -23.36523438 263.82421875 C-25.14483574 265.59218874 -26.92674668 267.35775753 -28.7109375 269.12109375 C-32.63160159 267.49917323 -35.45959197 264.82663595 -38.5078125 261.9609375 C-39.0717572 261.43555893 -39.6357019 260.91018036 -40.21673584 260.36888123 C-44.65373445 256.19845296 -48.95638593 251.90285118 -53.2265625 247.5625 C-54.17698425 246.59695694 -54.17698425 246.59695694 -55.14660645 245.61190796 C-57.74681882 242.9660526 -60.344812 240.31829475 -62.92871094 237.65649414 C-64.85206079 235.67833504 -66.78817117 233.71340779 -68.7265625 231.75 C-69.2955426 231.1572377 -69.86452271 230.5644754 -70.45074463 229.95375061 C-77.08831502 223.27419075 -83.92892828 219.61954282 -93.3359375 218.80859375 C-101.66114864 218.96567321 -109.08850817 222.51083308 -115.0546875 228.18359375 C-121.63192589 235.87772168 -122.30451763 244.34447979 -121.7109375 254.12109375 C-119.77431985 266.5494971 -104.57013368 277.45395179 -96.05859375 286.01171875 C-95.41737516 286.65701286 -94.77615658 287.30230698 -94.11550713 287.96715546 C-90.7287733 291.37458074 -87.33889366 294.77884095 -83.9465332 298.18066406 C-80.46731708 301.67098483 -76.99995438 305.17284339 -73.5350275 308.67734146 C-70.84351414 311.39509959 -68.14305678 314.10383869 -65.44018364 316.8102951 C-64.15832492 318.09698942 -62.8798128 319.38702768 -61.60490608 320.68061066 C-48.37654689 334.39427568 -48.37654689 334.39427568 -30.5859375 339.43359375 C-13.70362329 339.16455289 -3.01250398 324.58971045 8.04907227 313.49145508 C9.98015797 311.55498826 11.91656132 309.62395419 13.85351562 307.69335938 C15.1070917 306.4391227 16.36035766 305.18457598 17.61328125 303.9296875 C18.46354134 303.08246376 18.46354134 303.08246376 19.33097839 302.21812439 C22.16555854 299.36723334 24.88364633 296.46268615 27.4992218 293.40895081 C31.23699315 289.12153411 35.18909833 285.0937256 39.22460938 281.08789062 C39.98491959 280.32904068 40.7452298 279.57019073 41.52857971 278.78834534 C43.16649928 277.15420751 44.80557224 275.52122507 46.44569397 273.88929749 C49.04656597 271.30128185 51.64422011 268.71007417 54.24108887 266.11804199 C60.68883314 259.68361121 67.14202118 253.25464896 73.59503174 246.82550049 C79.057354 241.3829576 84.51759145 235.93833907 89.97511292 230.49098206 C92.52493483 227.94760669 95.07776751 225.40728043 97.6307373 222.86706543 C99.20514584 221.296292 100.77941269 219.72537655 102.35351562 218.15429688 C103.05605972 217.4569191 103.75860382 216.75954132 104.48243713 216.04103088 C108.42137062 212.10251544 112.17049934 208.05973417 115.79151154 203.82633209 C117.72100435 201.62924819 119.82697674 199.66337381 121.9765625 197.68359375 C128.2724739 191.3661946 130.46477627 186.11835565 130.8515625 177.18359375 C130.53427032 167.97220511 127.61193917 162.00901338 120.9765625 155.68359375 C114.05747389 150.05045417 108.16652743 148.50804764 99.24609375 148.77734375 C87.05286989 150.19478589 78.89092365 160.36785 70.68920898 168.59155273 Z " fill="#000000" transform="translate(251.7109375,11.87890625)"/>
</svg>
