<?xml version="1.0" encoding="UTF-8"?>
<svg version="1.1" xmlns="http://www.w3.org/2000/svg" width="512" height="512">
<path d="M0 0 C1.54508708 -0.00462262 3.09016974 -0.01098457 4.63524342 -0.01890898 C8.83251534 -0.03543887 13.0294184 -0.02743145 17.22669077 -0.0149641 C21.77211271 -0.00584815 26.3174748 -0.01991552 30.86288452 -0.03088379 C39.74819744 -0.04860427 48.63337465 -0.04485801 57.51869273 -0.03323323 C64.74453892 -0.02417359 71.97034726 -0.02298581 79.19619751 -0.02732849 C80.22739521 -0.02794142 81.25859291 -0.02855436 82.32103902 -0.02918586 C84.41636079 -0.03046485 86.51168254 -0.03176171 88.60700428 -0.03307623 C108.22219813 -0.04446307 127.83731701 -0.03139813 147.45249856 -0.00987476 C164.25735101 0.00799448 181.0620929 0.00488984 197.86694336 -0.0135498 C217.41534461 -0.03499007 236.96368027 -0.04336461 256.51209164 -0.03110075 C258.59940019 -0.02982665 260.68670876 -0.02856916 262.77401733 -0.02732849 C264.3142264 -0.02640284 264.3142264 -0.02640284 265.8855508 -0.02545848 C273.09678183 -0.02201505 280.30797101 -0.02781216 287.51919556 -0.0372467 C296.3157828 -0.0485032 305.1122274 -0.04535023 313.90879846 -0.02412373 C318.39086135 -0.01366225 322.87268702 -0.00940707 327.35474777 -0.02272034 C331.46798486 -0.03475265 335.58076773 -0.02790597 339.69396436 -0.00681013 C341.17154923 -0.00238946 342.64917353 -0.0045064 344.12673247 -0.01431328 C357.33612073 -0.0951723 370.53622041 1.89277738 382.29760742 8.25793457 C382.95365967 8.6001001 383.60971191 8.94226562 384.28564453 9.2947998 C403.7184038 19.69680388 417.52158098 35.98877527 424.10470152 57.09798717 C426.64242775 66.65097414 427.5586311 75.64081101 427.49304199 85.52282715 C427.49766461 87.06791423 427.50402657 88.61299689 427.51195097 90.15807056 C427.52848087 94.35534249 427.52047344 98.55224555 427.5080061 102.74951792 C427.49889015 107.29493986 427.51295752 111.84030194 427.52392578 116.38571167 C427.54164626 125.27102459 427.5379 134.1562018 427.52627522 143.04151988 C427.51721558 150.26736607 427.51602781 157.49317441 427.52037048 164.71902466 C427.52098342 165.75022236 427.52159635 166.78142006 427.52222785 167.84386617 C427.52350685 169.93918794 427.5248037 172.03450969 427.52611822 174.12983143 C427.53750506 193.74502528 427.52444012 213.36014416 427.50291675 232.9753257 C427.48504751 249.78017815 427.48815215 266.58492005 427.5065918 283.38977051 C427.52803206 302.93817176 427.5364066 322.48650742 427.52414274 342.03491879 C427.52286864 344.12222734 427.52161116 346.20953591 427.52037048 348.29684448 C427.51975338 349.32365053 427.51913628 350.35045657 427.51850048 351.40837795 C427.51505704 358.61960898 427.52085415 365.83079816 427.5302887 373.04202271 C427.54154519 381.83860995 427.53839222 390.63505455 427.51716572 399.4316256 C427.50670424 403.91368849 427.50244907 408.39551416 427.51576233 412.87757492 C427.52779464 416.99081201 427.52094796 421.10359488 427.49985212 425.21679151 C427.49543145 426.69437638 427.49754839 428.17200068 427.50735527 429.64955962 C427.58821429 442.85894788 425.60026461 456.05904755 419.23510742 467.82043457 C418.72185913 468.80451294 418.72185913 468.80451294 418.19824219 469.80847168 C407.79623811 489.24123095 391.50426672 503.04440813 370.39505482 509.62752867 C360.84206786 512.1652549 351.85223098 513.08145825 341.97021484 513.01586914 C340.42512776 513.02049176 338.8800451 513.02685371 337.33497143 513.03477812 C333.1376995 513.05130802 328.94079645 513.04330059 324.74352407 513.03083324 C320.19810213 513.02171729 315.65274005 513.03578466 311.10733032 513.04675293 C302.22201741 513.06447341 293.33684019 513.06072715 284.45152211 513.04910237 C277.22567593 513.04004273 269.99986758 513.03885495 262.77401733 513.04319763 C261.74281964 513.04381056 260.71162194 513.0444235 259.64917582 513.045055 C257.55385406 513.04633399 255.4585323 513.04763085 253.36321056 513.04894537 C233.74801672 513.06033221 214.13289783 513.04726727 194.51771629 513.0257439 C177.71286384 513.00787466 160.90812194 513.0109793 144.10327148 513.02941895 C124.55487024 513.05085921 105.00653457 513.05923375 85.45812321 513.04696989 C83.37081465 513.04569579 81.28350609 513.0444383 79.19619751 513.04319763 C78.16939147 513.04258053 77.14258542 513.04196343 76.08466405 513.04132763 C68.87343302 513.03788419 61.66224383 513.0436813 54.45101929 513.05311584 C45.65443204 513.06437234 36.85798744 513.06121937 28.06141639 513.03999287 C23.5793535 513.02953139 19.09752783 513.02527621 14.61546707 513.03858948 C10.50222998 513.05062179 6.38944711 513.04377511 2.27625048 513.02267927 C0.79866561 513.0182586 -0.67895868 513.02037554 -2.15651762 513.03018242 C-15.36590589 513.11104144 -28.56600556 511.12309176 -40.32739258 504.75793457 C-41.31147095 504.24468628 -41.31147095 504.24468628 -42.31542969 503.72106934 C-61.74818896 493.31906526 -75.55136614 477.02709387 -82.13448668 455.91788197 C-84.6722129 446.364895 -85.58841626 437.37505813 -85.52282715 427.49304199 C-85.52744977 425.94795491 -85.53381172 424.40287225 -85.54173613 422.85779858 C-85.55826602 418.66052665 -85.5502586 414.46362359 -85.53779125 410.26635122 C-85.5286753 405.72092928 -85.54274267 401.1755672 -85.55371094 396.63015747 C-85.57143142 387.74484456 -85.56768516 378.85966734 -85.55606037 369.97434926 C-85.54700074 362.74850307 -85.54581296 355.52269473 -85.55015564 348.29684448 C-85.55076857 347.26564678 -85.5513815 346.23444908 -85.55201301 345.17200297 C-85.553292 343.07668121 -85.55458886 340.98135945 -85.55590338 338.88603771 C-85.56729022 319.27084386 -85.55422528 299.65572498 -85.53270191 280.04054344 C-85.51483267 263.23569099 -85.51793731 246.43094909 -85.53637695 229.62609863 C-85.55781722 210.07769739 -85.56619176 190.52936172 -85.5539279 170.98095036 C-85.5526538 168.8936418 -85.55139631 166.80633323 -85.55015564 164.71902466 C-85.54953854 163.69221862 -85.54892144 162.66541257 -85.54828563 161.6074912 C-85.5448422 154.39626017 -85.55063931 147.18507098 -85.56007385 139.97384644 C-85.57133035 131.17725919 -85.56817737 122.38081459 -85.54695088 113.58424354 C-85.5364894 109.10218065 -85.53223422 104.62035498 -85.54554749 100.13829422 C-85.5575798 96.02505713 -85.55073312 91.91227426 -85.52963728 87.79907763 C-85.52521661 86.32149276 -85.52733355 84.84386846 -85.53714043 83.36630952 C-85.61799945 70.15692126 -83.63004977 56.95682159 -77.26489258 45.19543457 C-76.92272705 44.53938232 -76.58056152 43.88333008 -76.22802734 43.20739746 C-65.82602327 23.77463819 -49.53405188 9.97146101 -28.42483997 3.38834047 C-18.87185301 0.85061425 -9.88201614 -0.06558911 0 0 Z M-23.01489258 62.50793457 C-31.39550957 72.03461885 -31.31081979 82.79113412 -31.26885986 94.89294434 C-31.27116702 96.34622891 -31.27434525 97.79951232 -31.27831435 99.25279331 C-31.28663597 103.22846964 -31.28254909 107.20404952 -31.27634192 111.17972612 C-31.27180763 115.47426527 -31.27880603 119.76878809 -31.28430176 124.06332397 C-31.29318697 132.46928812 -31.29127763 140.87521651 -31.28547648 149.28118205 C-31.28095657 156.11394083 -31.28034851 162.94668961 -31.28252411 169.77944946 C-31.28283057 170.7525587 -31.28313704 171.72566795 -31.28345279 172.72826535 C-31.28409226 174.70522396 -31.28474068 176.68218257 -31.28539798 178.65914118 C-31.29109872 197.1896159 -31.28454739 215.72007081 -31.27379724 234.25054228 C-31.26486197 250.14461786 -31.26641408 266.03866421 -31.27563477 281.93273926 C-31.28634191 300.39768804 -31.29054942 318.86261947 -31.28441024 337.32757092 C-31.28377315 339.29718717 -31.28314441 341.26680342 -31.28252411 343.23641968 C-31.28221556 344.20546519 -31.28190701 345.17451071 -31.28158911 346.17292124 C-31.2798635 352.99611393 -31.28277437 359.81929559 -31.28748322 366.64248657 C-31.29309697 374.95960755 -31.29156516 383.27669079 -31.28092173 391.59380746 C-31.2756717 395.83591428 -31.27359688 400.07795821 -31.28022003 404.32006454 C-31.28619543 408.20610847 -31.28287819 412.09203141 -31.27226493 415.97806442 C-31.27003764 417.38104059 -31.27115207 418.78402707 -31.2760165 420.18699658 C-31.31272204 431.65647928 -30.89698222 441.54795233 -23.01489258 450.50793457 C-13.4882083 458.88855157 -2.73169303 458.80386178 9.37011719 458.76190186 C10.82340177 458.76420901 12.27668517 458.76738724 13.72996616 458.77135634 C17.7056425 458.77967796 21.68122237 458.77559108 25.65689898 458.76938391 C29.95143812 458.76484962 34.24596095 458.77184802 38.54049683 458.77734375 C46.94646097 458.78622897 55.35238937 458.78431962 63.7583549 458.77851847 C70.59111369 458.77399856 77.42386246 458.7733905 84.25662231 458.7755661 C85.71628618 458.7760258 85.71628618 458.7760258 87.2054382 458.77649479 C89.18239681 458.77713425 91.15935542 458.77778267 93.13631403 458.77843997 C111.66678875 458.78414071 130.19724367 458.77758938 148.72771513 458.76683924 C164.62179071 458.75790396 180.51583706 458.75945607 196.40991211 458.76867676 C214.87486089 458.7793839 233.33979232 458.78359141 251.80474377 458.77745223 C253.77436002 458.77681514 255.74397627 458.7761864 257.71359253 458.7755661 C259.1671608 458.77510327 259.1671608 458.77510327 260.65009409 458.7746311 C267.47328678 458.77290549 274.29646844 458.77581637 281.11965942 458.78052521 C289.43678041 458.78613897 297.75386364 458.78460716 306.07098031 458.77396372 C310.31308713 458.7687137 314.55513106 458.76663887 318.7972374 458.77326202 C322.68328132 458.77923742 326.56920426 458.77592019 330.45523727 458.76530692 C331.85821345 458.76307963 333.26119992 458.76419406 334.66416943 458.7690585 C346.13365214 458.80576403 356.02512518 458.39002421 364.98510742 450.50793457 C373.36572442 440.98125029 373.28103463 430.22473502 373.23907471 418.1229248 C373.24138186 416.66964023 373.24456009 415.21635682 373.2485292 413.76307583 C373.25685081 409.7873995 373.25276393 405.81181962 373.24655676 401.83614302 C373.24202247 397.54160387 373.24902087 393.24708105 373.2545166 388.95254517 C373.26340182 380.54658102 373.26149247 372.14065263 373.25569132 363.73468709 C373.25117141 356.90192831 373.25056335 350.06917953 373.25273895 343.23641968 C373.25319865 341.77675582 373.25319865 341.77675582 373.25366764 340.2876038 C373.2543071 338.31064518 373.25495553 336.33368657 373.25561282 334.35672796 C373.26131356 315.82625324 373.25476223 297.29579833 373.24401209 278.76532686 C373.23507681 262.87125128 373.23662893 246.97720493 373.24584961 231.08312988 C373.25655675 212.61818111 373.26076426 194.15324967 373.25462508 175.68829823 C373.253988 173.71868197 373.25335925 171.74906572 373.25273895 169.77944946 C373.2524304 168.81040395 373.25212185 167.84135843 373.25180395 166.8429479 C373.25007835 160.01975521 373.25298922 153.19657355 373.25769806 146.37338257 C373.26331182 138.05626159 373.26178001 129.73917835 373.25113657 121.42206168 C373.24588655 117.17995486 373.24381173 112.93791093 373.25043488 108.6958046 C373.25641027 104.80976067 373.25309304 100.92383773 373.24247977 97.03780472 C373.24025248 95.63482855 373.24136691 94.23184207 373.24623135 92.82887256 C373.28293688 81.35938986 372.86719706 71.46791681 364.98510742 62.50793457 C355.45842315 54.12731758 344.70190787 54.21200736 332.60009766 54.25396729 C331.14681308 54.25166013 329.69352967 54.2484819 328.24024868 54.2445128 C324.26457235 54.23619118 320.28899247 54.24027806 316.31331587 54.24648523 C312.01877672 54.25101952 307.7242539 54.24402112 303.42971802 54.23852539 C295.02375387 54.22964018 286.61782548 54.23154952 278.21185994 54.23735067 C271.37910116 54.24187058 264.54635238 54.24247864 257.71359253 54.24030304 C256.74048329 54.23999657 255.76737405 54.23969011 254.76477665 54.23937435 C252.78781803 54.23873489 250.81085942 54.23808647 248.83390081 54.23742917 C230.30342609 54.23172843 211.77297118 54.23827976 193.24249971 54.2490299 C177.34842414 54.25796518 161.45437778 54.25641307 145.56030273 54.24719238 C127.09535396 54.23648524 108.63042253 54.23227773 90.16547108 54.23841691 C88.19585483 54.239054 86.22623857 54.23968274 84.25662231 54.24030304 C83.2875768 54.24061159 82.31853128 54.24092014 81.32012075 54.24123804 C74.49692807 54.24296365 67.6737464 54.24005277 60.85055542 54.23534393 C52.53343444 54.22973017 44.2163512 54.23126198 35.89923453 54.24190542 C31.65712771 54.24715544 27.41508378 54.24923027 23.17297745 54.24260712 C19.28693352 54.23663172 15.40101058 54.23994895 11.51497757 54.25056222 C10.1120014 54.25278951 8.70901492 54.25167508 7.30604541 54.24681064 C-4.16343729 54.21010511 -14.05491034 54.62584493 -23.01489258 62.50793457 Z " fill="#FFFFFF" transform="translate(85.014892578125,-0.5079345703125)"/>
<path d="M0 0 C7.21523316 5.70506808 12.2347621 12.19703403 14.6875 21.125 C15.53461678 29.99017556 15.44769338 38.37582308 10.6875 46.125 C9.13705771 47.9734347 7.53074291 49.77561649 5.88890076 51.54336548 C5.40762205 52.06156125 4.92634333 52.57975702 4.43048042 53.11365569 C-1.65271236 59.62138748 -7.93835972 65.9309596 -14.22241211 72.24365234 C-15.58401619 73.61482222 -16.94545649 74.98615474 -18.30674744 76.3576355 C-22.73062574 80.8125426 -27.15974182 85.26222038 -31.58984375 89.7109375 C-32.72559935 90.85163909 -32.72559935 90.85163909 -33.88429952 92.01538515 C-41.03836667 99.20018211 -48.19446653 106.38294879 -55.35539913 113.56090355 C-64.47189123 122.69933579 -73.57814388 131.84771494 -82.67086214 141.00980413 C-89.09211332 147.47836158 -95.52487958 153.93532508 -101.96619803 160.38389933 C-105.80253368 164.22517428 -109.63371147 168.07127483 -113.452528 171.9299736 C-117.04200039 175.55645018 -120.64560162 179.16827748 -124.26023293 182.76967239 C-125.5779368 184.08742996 -126.890585 185.41026722 -128.1975174 186.7387085 C-137.63294114 196.32096615 -147.27287378 205.05468947 -161.5 205.375 C-172.00153138 205.23497958 -179.88282738 200.83410123 -187.18115234 193.4675293 C-188.09585297 192.54944992 -189.01055359 191.63137054 -189.95297241 190.68547058 C-190.9348212 189.69008002 -191.9166422 188.69466206 -192.8984375 187.69921875 C-193.9239325 186.66744023 -194.94995313 185.63618389 -195.97647095 184.60542297 C-198.67047344 181.89816889 -201.35884778 179.18540147 -204.04559326 176.47094727 C-208.33629259 172.13702354 -212.63369451 167.80977507 -216.93455887 163.48594093 C-218.42356138 161.98684815 -219.90902528 160.48431744 -221.39413452 158.98136902 C-226.02772305 154.31492338 -230.69234215 149.77474607 -235.71054077 145.52175903 C-243.29825376 138.90598101 -248.64391355 130.56710903 -249.6875 120.51171875 C-250.01386422 110.36383124 -248.51031796 102.75054591 -242.0625 94.8125 C-236.23399604 88.63453542 -229.39632164 84.67257716 -220.8671875 83.75390625 C-219.65289062 83.73199219 -218.43859375 83.71007812 -217.1875 83.6875 C-215.38925781 83.62755859 -215.38925781 83.62755859 -213.5546875 83.56640625 C-198.09972188 84.9736176 -189.20055845 96.4154085 -179.0625 106.9375 C-177.4326377 108.60252636 -175.80114025 110.26595377 -174.16796875 111.92773438 C-170.19706758 115.97523671 -166.24841116 120.04349903 -162.3125 124.125 C-155.81720157 118.78828406 -149.95960799 112.86450775 -144.05981445 106.890625 C-142.93567691 105.75636744 -141.81126442 104.62238233 -140.68659973 103.48864746 C-138.27535004 101.05737698 -135.8654559 98.6247736 -133.45644569 96.19128418 C-129.639194 92.33644615 -125.815285 88.48825902 -121.98979187 84.64160156 C-121.34224499 83.99041729 -120.6946981 83.33923302 -120.02752858 82.66831589 C-118.70394293 81.3373252 -117.38034095 80.00635073 -116.056723 78.67539215 C-107.15996594 69.72879967 -98.26751609 60.77804466 -89.39379883 51.80859375 C-83.39538212 45.74556426 -77.38623941 39.69339252 -71.36469239 33.65333176 C-68.18502587 30.46303253 -65.01097543 27.26757465 -61.8500309 24.05871582 C-58.87443524 21.0381767 -55.88481366 18.0322404 -52.88430595 15.03645325 C-51.79232486 13.94125234 -50.70540465 12.84097544 -49.62430573 11.73503113 C-35.66863801 -2.52645893 -18.7380085 -10.60641991 0 0 Z " fill="#FFFFFF" transform="translate(373.3125,155.875)"/>
</svg>
