<?xml version="1.0" encoding="UTF-8"?>
<svg version="1.1" xmlns="http://www.w3.org/2000/svg" width="512" height="512">
<path d="M0 0 C1.20269531 -0.02578125 2.40539062 -0.0515625 3.64453125 -0.078125 C8.94498208 0.41276571 13.25179918 2.6865952 17.1875 6.25 C21.71966234 14.40112779 20.1875 24.42724456 20.1875 33.25 C96.7475 33.25 173.3075 33.25 252.1875 33.25 C252.1875 27.64 252.1875 22.03 252.1875 16.25 C253.21164978 10.03682468 254.04897014 6.61131531 258.9375 2.625 C265.15069738 -0.97640998 272.2417966 -0.73569388 279.1875 0.25 C284.16054229 2.3762831 287.91090084 4.55618828 290.28466797 9.56518555 C291.2200931 12.34692437 291.41865584 14.41079884 291.3828125 17.33203125 C291.37636719 18.26337891 291.36992187 19.19472656 291.36328125 20.15429688 C291.34652344 21.11400391 291.32976562 22.07371094 291.3125 23.0625 C291.30347656 24.04154297 291.29445313 25.02058594 291.28515625 26.02929688 C291.26167182 28.43645061 291.2288284 30.84309743 291.1875 33.25 C291.7451001 33.23952637 292.3027002 33.22905273 292.87719727 33.21826172 C310.93662471 32.92515545 328.51910544 33.47141587 345.1875 41.25 C345.1875 41.91 345.1875 42.57 345.1875 43.25 C345.90164063 43.51296875 346.61578125 43.7759375 347.3515625 44.046875 C355.03464651 47.30636519 362.23441315 52.42920397 368.1875 58.25 C368.1875 59.24 368.1875 60.23 368.1875 61.25 C369.0228125 61.559375 369.0228125 61.559375 369.875 61.875 C373.15762371 63.82683032 374.89423246 66.19230994 377.1875 69.25 C377.1875 69.91 377.1875 70.57 377.1875 71.25 C377.8475 71.25 378.5075 71.25 379.1875 71.25 C380.63522641 73.69381168 382.04308656 76.15089966 383.4375 78.625 C384.03111328 79.615 384.03111328 79.615 384.63671875 80.625 C394.06732571 97.63101255 392.77314422 117.60975308 392.71039867 136.41187894 C392.70125226 140.47534683 392.71536478 144.53874906 392.72631836 148.60220337 C392.74400657 156.53841291 392.74030734 164.47447024 392.7286678 172.41068549 C392.7195959 178.86607218 392.71842562 185.32141653 392.72276306 191.77680779 C392.72337599 192.69920669 392.72398893 193.6216056 392.72462043 194.57195599 C392.72589946 196.44638596 392.72719632 198.32081591 392.7285108 200.19524585 C392.73988801 217.72789058 392.72684759 235.26045134 392.70530933 252.79308229 C392.68743798 267.80504933 392.69054833 282.81689261 392.70898438 297.82885742 C392.73043662 315.30476618 392.73879276 332.78060156 392.72653532 350.25652164 C392.72526126 352.12335041 392.72400377 353.99017919 392.72276306 355.85700798 C392.72214596 356.77528304 392.72152886 357.69355809 392.72089306 358.63965966 C392.71745342 365.08050104 392.72323838 371.52129549 392.73268127 377.96212959 C392.74395106 385.82101035 392.74075719 393.6797315 392.7195583 401.53859419 C392.70911485 405.54081619 392.70481003 409.54277299 392.71815491 413.54499245 C392.82672262 448.97155476 392.82672262 448.97155476 387.1875 460.25 C386.5275 460.25 385.8675 460.25 385.1875 460.25 C384.94 461.24 384.6925 462.23 384.4375 463.25 C383.22937859 467.53095196 381.27928706 471.34059215 379.1875 475.25 C378.5275 475.25 377.8675 475.25 377.1875 475.25 C376.8471875 476.0234375 376.8471875 476.0234375 376.5 476.8125 C374.70532382 480.14547005 372.68784985 483.39703671 370.1875 486.25 C369.5275 486.25 368.8675 486.25 368.1875 486.25 C367.79353027 487.15564697 367.79353027 487.15564697 367.39160156 488.07958984 C366.11246999 490.38524265 365.02612382 491.42615571 362.921875 492.9765625 C362.27863281 493.4509375 361.63539063 493.9253125 360.97265625 494.4140625 C360.30105469 494.89617187 359.62945312 495.37828125 358.9375 495.875 C358.28136719 496.36484375 357.62523437 496.8546875 356.94921875 497.359375 C353.15343947 500.1213138 349.79049435 502.03492385 345.1875 503.25 C345.1875 503.91 345.1875 504.57 345.1875 505.25 C343.62929635 505.86516257 342.06552509 506.46621584 340.5 507.0625 C339.62988281 507.39894531 338.75976562 507.73539062 337.86328125 508.08203125 C327.06076185 511.51450022 317.00005186 512.68872824 305.69195557 512.63768005 C304.16667152 512.64186199 302.64139059 512.64734419 301.11611533 512.65399987 C296.95966194 512.6683608 292.80340842 512.66423927 288.64694452 512.65683305 C284.15053643 512.65208027 279.65417028 512.66462989 275.15777588 512.67485046 C266.36197797 512.69200338 257.56625161 512.69288566 248.77044132 512.68763756 C241.61652293 512.68358761 234.46262559 512.68504921 227.30870819 512.69038582 C225.77838719 512.69150845 225.77838719 512.69150845 224.21715061 512.69265376 C222.14421798 512.69418533 220.07128536 512.69572368 217.99835274 512.69726873 C198.57963709 512.71098142 179.16096179 512.70556504 159.74224707 512.69408352 C142.00390288 512.68415536 124.26566306 512.69708681 106.52733496 512.72101771 C88.28504028 512.74544182 70.04279415 512.75500827 51.80048347 512.74836498 C41.57030944 512.74487975 31.34021562 512.74705864 21.11005402 512.76461601 C12.40016596 512.77937958 3.69041459 512.77991949 -5.0194709 512.7625451 C-9.45708679 512.75406629 -13.89445896 512.75180854 -18.33206177 512.76719666 C-22.4059888 512.78114787 -26.47946572 512.7761486 -30.55336741 512.75695742 C-32.0155853 512.75322873 -33.47784017 512.75602734 -34.94002482 512.76656907 C-45.64644893 512.83817869 -58.0291835 512.14165825 -67.8125 507.25 C-67.8125 506.59 -67.8125 505.93 -67.8125 505.25 C-68.70001953 504.97736328 -68.70001953 504.97736328 -69.60546875 504.69921875 C-70.39566406 504.44785156 -71.18585938 504.19648438 -72 503.9375 C-72.77730469 503.69386719 -73.55460937 503.45023437 -74.35546875 503.19921875 C-79.48187741 501.21874609 -83.73460338 497.94143254 -88.125 494.6875 C-88.67478516 494.28853516 -89.22457031 493.88957031 -89.79101562 493.47851562 C-91.17013772 492.45231173 -92.4965594 491.35606172 -93.8125 490.25 C-93.8125 489.59 -93.8125 488.93 -93.8125 488.25 C-94.39128906 488.01410156 -94.97007813 487.77820313 -95.56640625 487.53515625 C-102.48281246 483.57776904 -107.61273712 474.38793259 -110.8125 467.25 C-110.8125 466.59 -110.8125 465.93 -110.8125 465.25 C-111.4725 465.25 -112.1325 465.25 -112.8125 465.25 C-120.6354665 447.67111738 -120.39829469 430.08178426 -120.33539867 411.21884573 C-120.32626039 407.15670435 -120.34036097 403.09462899 -120.35131836 399.03250122 C-120.36901599 391.0964875 -120.36530278 383.16062591 -120.3536678 375.22460646 C-120.3445984 368.76872771 -120.34342456 362.31289129 -120.34776306 355.85700798 C-120.34837599 354.93476231 -120.34898893 354.01251663 -120.34962043 353.06232412 C-120.35089946 351.18821835 -120.35219632 349.31411259 -120.3535108 347.44000684 C-120.36489111 329.90542868 -120.35184335 312.37093444 -120.33030933 294.83637004 C-120.31244366 279.82470925 -120.31554305 264.81317223 -120.33398438 249.80151367 C-120.35544141 232.32706749 -120.36378959 214.85269471 -120.35153532 197.37823719 C-120.35026126 195.51109406 -120.34900377 193.64395093 -120.34776306 191.77680779 C-120.34714596 190.85837845 -120.34652886 189.93994912 -120.34589306 188.9936886 C-120.3424544 182.55382957 -120.34823636 176.11401749 -120.35768127 169.67416573 C-120.36895667 161.81419141 -120.36574585 153.95437666 -120.3445583 146.09442038 C-120.33412135 142.09208148 -120.3297985 138.09000759 -120.34315491 134.08767128 C-120.45259692 98.24591546 -120.45259692 98.24591546 -112.8125 81.25 C-112.1525 81.25 -111.4925 81.25 -110.8125 81.25 C-110.52375 79.991875 -110.235 78.73375 -109.9375 77.4375 C-108.06431549 71.66260922 -104.27844277 67.99287568 -100.08984375 63.73046875 C-97.79171165 61.49307965 -97.79171165 61.49307965 -96.921875 59.23828125 C-95.12989872 56.02660546 -92.09510401 54.28982169 -89.125 52.25 C-88.52494141 51.82460938 -87.92488281 51.39921875 -87.30664062 50.9609375 C-76.29608416 43.25 -76.29608416 43.25 -72.8125 43.25 C-72.8125 42.59 -72.8125 41.93 -72.8125 41.25 C-59.16897872 34.13948758 -43.80972791 33.04944595 -28.6875 33.1875 C-27.25277344 33.19426758 -27.25277344 33.19426758 -25.7890625 33.20117188 C-23.46347242 33.21279983 -21.1380224 33.22913898 -18.8125 33.25 C-18.82821045 32.65050537 -18.8439209 32.05101074 -18.86010742 31.43334961 C-18.9229413 28.68483123 -18.96164235 25.93646458 -19 23.1875 C-19.02513672 22.24455078 -19.05027344 21.30160156 -19.07617188 20.33007812 C-19.13713965 14.49749419 -18.70316692 10.36425685 -15.8125 5.25 C-10.54620107 1.08084668 -6.61818573 0.08457745 0 0 Z M-53.8125 75.25 C-53.8125 75.91 -53.8125 76.57 -53.8125 77.25 C-54.4725 77.25 -55.1325 77.25 -55.8125 77.25 C-55.8125 77.91 -55.8125 78.57 -55.8125 79.25 C-56.6375 79.435625 -57.4625 79.62125 -58.3125 79.8125 C-66.89059277 83.33564525 -72.0282432 90.59275439 -76.8125 98.25 C-77.22628906 98.88550781 -77.64007813 99.52101563 -78.06640625 100.17578125 C-83.91102025 110.24749615 -82.8125 123.16144876 -82.8125 134.25 C61.7275 134.25 206.2675 134.25 355.1875 134.25 C355.24558746 123.53258899 355.24558746 123.53258899 354.25 113.125 C354.07597656 111.88492188 353.90195312 110.64484375 353.72265625 109.3671875 C353.26501553 106.2306344 353.26501553 106.2306344 352.1875 103.25 C351.5275 103.25 350.8675 103.25 350.1875 103.25 C349.8575 101.6 349.5275 99.95 349.1875 98.25 C348.5275 98.25 347.8675 98.25 347.1875 98.25 C347.001875 97.425 346.81625 96.6 346.625 95.75 C344.69484921 91.05050244 341.66986195 87.8874783 338.1875 84.25 C337.44886719 83.42628906 337.44886719 83.42628906 336.6953125 82.5859375 C334.24866284 80.41818055 331.3031827 80.01422406 328.1875 79.25 C328.1875 78.59 328.1875 77.93 328.1875 77.25 C327.5275 77.25 326.8675 77.25 326.1875 77.25 C326.1875 76.59 326.1875 75.93 326.1875 75.25 C314.86897802 70.4906215 303.23650041 71.02525181 291.1875 71.25 C291.16244385 71.85473145 291.1373877 72.45946289 291.11157227 73.08251953 C290.99486994 75.8468562 290.87248266 78.61091366 290.75 81.375 C290.69102539 82.80199219 290.69102539 82.80199219 290.63085938 84.2578125 C290.14750086 94.96606262 290.14750086 94.96606262 289.1875 98.25 C287.3515625 99.4921875 287.3515625 99.4921875 285.1875 100.25 C284.59710938 100.60320312 284.00671875 100.95640625 283.3984375 101.3203125 C277.49937918 104.70913324 271.79828334 105.4920521 265.171875 103.70703125 C261.32308878 102.19261754 258.02154552 100.24599098 255.1875 97.25 C253.1875 89.25 253.1875 89.25 252.1875 71.25 C175.6275 71.25 99.0675 71.25 20.1875 71.25 C19.8575 77.19 19.5275 83.13 19.1875 89.25 C18.3125 94.8125 18.3125 94.8125 17.1875 98.25 C15.7025 98.745 15.7025 98.745 14.1875 99.25 C14.1875 99.91 14.1875 100.57 14.1875 101.25 C6.40597323 104.40772101 -0.48530061 105.5978162 -8.625 103.0625 C-12.37520815 100.9300287 -16.0084388 98.67467202 -17.42553711 94.40136719 C-17.85626769 92.0066682 -18.02513679 89.69679528 -18.12890625 87.265625 C-18.17080078 86.33105469 -18.21269531 85.39648438 -18.25585938 84.43359375 C-18.29517578 83.46550781 -18.33449219 82.49742188 -18.375 81.5 C-18.41818359 80.51644531 -18.46136719 79.53289062 -18.50585938 78.51953125 C-18.61172052 76.09648725 -18.71380171 73.6733446 -18.8125 71.25 C-36.75242167 70.43517706 -36.75242167 70.43517706 -53.8125 75.25 Z M-82.8125 173.25 C-82.85375 214.520625 -82.895 255.79125 -82.9375 298.3125 C-82.95570801 311.33211182 -82.97391602 324.35172363 -82.99267578 337.76586914 C-82.99936566 349.46129555 -82.99936566 349.46129555 -83.00338745 361.15672302 C-83.00524678 366.35608255 -83.01255873 371.5554001 -83.02365112 376.75474548 C-83.03780339 383.39825241 -83.04147205 390.04171186 -83.03864455 396.68523681 C-83.03923533 399.1162645 -83.04316829 401.54729438 -83.05093026 403.97830975 C-83.86968401 426.24013401 -83.86968401 426.24013401 -77.8125 447.25 C-77.1525 447.25 -76.4925 447.25 -75.8125 447.25 C-74.68457714 449.50584572 -73.60701348 451.73667859 -72.625 454.0625 C-68.63502581 461.07935115 -63.17439578 465.18511034 -55.8125 468.25 C-54.8225 468.6625 -53.8325 469.075 -52.8125 469.5 C-51.8225 469.87125 -51.8225 469.87125 -50.8125 470.25 C-50.8125 470.91 -50.8125 471.57 -50.8125 472.25 C-40.69109725 475.55045742 -30.40146488 475.39649241 -19.84114075 475.38371277 C-18.44489264 475.38558411 -17.04864505 475.3878861 -15.65239829 475.39057809 C-11.83881142 475.39666256 -8.02524658 475.39656647 -4.21165597 475.39538372 C-0.08948519 475.39517886 4.03267867 475.40070659 8.15484619 475.40544128 C16.22244568 475.41373005 24.29003785 475.41649532 32.35764124 475.41705366 C38.91906019 475.41752968 45.48047673 475.4195887 52.04189491 475.42275429 C70.66625183 475.43155613 89.290603 475.43617442 107.91496202 475.43542381 C109.41945694 475.43536388 109.41945694 475.43536388 110.9543457 475.43530273 C111.95857444 475.43526185 112.96280318 475.43522097 113.99746308 475.43517885 C130.26618416 475.43477255 146.53488208 475.44433942 162.80359646 475.4584411 C179.52930066 475.47282389 196.25499359 475.47971023 212.98070413 475.47884732 C222.36240735 475.47851601 231.74408629 475.48123449 241.12578392 475.49202538 C249.11442356 475.50115545 257.10302792 475.50328511 265.09167054 475.49651595 C269.16238365 475.49326333 273.23302916 475.49314826 277.30373573 475.5018692 C281.04016665 475.50979121 284.77647698 475.50824535 288.51290516 475.49958507 C290.48367892 475.49734884 292.45445659 475.50483372 294.42521542 475.51282471 C313.1045877 475.88307903 313.1045877 475.88307903 329.25 468.25 C329.889375 467.59 330.52875 466.93 331.1875 466.25 C332.115625 465.816875 333.04375 465.38375 334 464.9375 C341.09691519 461.18030961 345.15239775 455.5403461 348.1875 448.25 C348.6 447.26 349.0125 446.27 349.4375 445.25 C349.685 444.59 349.9325 443.93 350.1875 443.25 C350.8475 443.25 351.5075 443.25 352.1875 443.25 C355.15583376 434.14710982 355.33675589 424.95156759 355.30775452 415.44259644 C355.30861053 414.40340561 355.30946655 413.36421478 355.31034851 412.29353333 C355.31199414 408.82571661 355.30649567 405.35794897 355.30102539 401.89013672 C355.30071885 399.35580509 355.30085289 396.82147339 355.30139065 394.2871418 C355.30159312 388.20067188 355.29732158 382.11421989 355.29088932 376.02775384 C355.28366681 368.98147418 355.28289334 361.93519964 355.28210449 354.88891602 C355.27686206 336.30094167 355.26290086 317.71297061 355.25 299.125 C355.2190625 236.816875 355.2190625 236.816875 355.1875 173.25 C210.6475 173.25 66.1075 173.25 -82.8125 173.25 Z " fill="#FFFFFF" transform="translate(119.8125,-0.25)"/>
<path d="M0 0 C5.6588113 4.01298108 9.81565493 8.30694268 12 15 C12.25 18 12.25 18 12 20 C12.66 20 13.32 20 14 20 C14.61537068 30.905736 13.25016114 39.66397253 6.47265625 48.47265625 C3.70919915 51.3387351 0.5233111 53.19875668 -3 55 C-3.90878906 55.48146484 -3.90878906 55.48146484 -4.8359375 55.97265625 C-10.99091038 58.76446885 -17.36886601 58.27292777 -24 58 C-24 57.34 -24 56.68 -24 56 C-24.99 55.938125 -25.98 55.87625 -27 55.8125 C-32.61511817 55.01360107 -37.21802245 51.94903794 -41 47.8125 C-42 46 -42 46 -42 44 C-42.99 43.67 -43.98 43.34 -45 43 C-49.46267598 35.59893655 -48.80817589 25.66592133 -47.63671875 17.453125 C-45.56760175 9.514472 -39.14180528 2.58304699 -32.1875 -1.5625 C-22.5675177 -5.90092339 -8.88189523 -6.00990515 0 0 Z " fill="#FFFFFF" transform="translate(273,360)"/>
<path d="M0 0 C6.86266512 5.03545398 12.79242584 10.57607273 15 19 C16.6036519 29.66306823 15.41958973 38.10886822 9 47 C8.4225 47.94875 7.845 48.8975 7.25 49.875 C2.72390005 54.14964995 -2.76621247 57 -9 57 C-9 57.66 -9 58.32 -9 59 C-13.29 59 -17.58 59 -22 59 C-22 58.34 -22 57.68 -22 57 C-23.4540625 56.9071875 -23.4540625 56.9071875 -24.9375 56.8125 C-30.39304865 56.01412703 -35.70897193 53.49930335 -39.4609375 49.40625 C-40.93955188 47.26697813 -42 45.64596406 -42 43 C-42.66 43 -43.32 43 -44 43 C-47.50922123 33.18253585 -48.03432649 24.99542844 -45 15 C-44.67 14.34 -44.34 13.68 -44 13 C-43.34 13 -42.68 13 -42 13 C-41.938125 12.46375 -41.87625 11.9275 -41.8125 11.375 C-40.58820104 7.79627995 -38.61549727 5.74004476 -36 3 C-35.01 3 -34.02 3 -33 3 C-32.67 2.01 -32.34 1.02 -32 0 C-22.75756224 -4.30251413 -8.95326421 -5.78461926 0 0 Z " fill="#FFFFFF" transform="translate(152,359)"/>
<path d="M0 0 C2.81772289 2.62396985 5.10346522 5.06092175 6.6875 8.625 C6.6875 9.615 6.6875 10.605 6.6875 11.625 C7.3475 11.625 8.0075 11.625 8.6875 11.625 C9.59433762 14.34551286 9.81592547 15.95233006 9.8203125 18.75 C9.82224609 19.93335938 9.82224609 19.93335938 9.82421875 21.140625 C9.82035156 21.96046875 9.81648438 22.7803125 9.8125 23.625 C9.81830078 24.85476563 9.81830078 24.85476563 9.82421875 26.109375 C9.82292969 26.89828125 9.82164062 27.6871875 9.8203125 28.5 C9.81918457 29.21929687 9.81805664 29.93859375 9.81689453 30.6796875 C9.6875 32.625 9.6875 32.625 8.6875 35.625 C8.0275 35.625 7.3675 35.625 6.6875 35.625 C6.58308594 36.3675 6.47867188 37.11 6.37109375 37.875 C5.0046814 43.37188167 0.86894082 47.24421242 -3.82421875 50.21484375 C-13.01213026 54.95300439 -22.07465973 55.9417541 -32.125 53.359375 C-40.83544335 50.43515473 -45.71773164 44.40752631 -50.3125 36.625 C-53.71518429 28.91974798 -53.2676333 19.57002517 -50.36328125 11.79296875 C-48.52106573 7.99211516 -46.04069986 4.82735224 -43.3125 1.625 C-42.4153125 0.51125 -42.4153125 0.51125 -41.5 -0.625 C-29.6540448 -10.10176416 -11.49763562 -9.61620434 0 0 Z " fill="#FFFFFF" transform="translate(157.3125,267.375)"/>
<path d="M0 0 C0.495 1.485 0.495 1.485 1 3 C1.598125 3.28875 2.19625 3.5775 2.8125 3.875 C8.00252374 6.54415507 10.28722848 11.88621064 12.22265625 17.140625 C14.68258493 26.18920689 13.45637899 33.95889844 9.11499023 42.16625977 C4.84266857 49.50407375 -0.45313222 53.46499873 -8.5 55.9375 C-18.56272113 58.19076579 -27.28473066 57.17514964 -36.375 52.125 C-39.05053045 49.9590944 -40.95160501 47.75473809 -43 45 C-43.74636719 44.28263672 -43.74636719 44.28263672 -44.5078125 43.55078125 C-49.01042978 38.87135963 -49.26326362 32.78550053 -49.4375 26.625 C-49.25386781 17.84563223 -47.237489 10.42094456 -41 4 C-30.26869192 -6.01588754 -12.61441333 -8.68926334 0 0 Z " fill="#FFFFFF" transform="translate(274,265)"/>
<path d="M0 0 C0.70640625 0.4125 1.4128125 0.825 2.140625 1.25 C8.73909972 5.55122797 11.78399728 11.51014381 13.8125 19 C13.874375 19.99 13.93625 20.98 14 22 C14.05027344 22.73734375 14.10054688 23.4746875 14.15234375 24.234375 C14.52363963 33.79895675 12.27588469 41.60643837 6.1015625 49.015625 C1.49318739 53.36702752 -3.65925869 56 -10 56 C-10 56.66 -10 57.32 -10 58 C-19.95699462 58.72268509 -28.62075203 57.71742707 -36.859375 51.625 C-38.25 50.3125 -38.25 50.3125 -40 48 C-40 47.34 -40 46.68 -40 46 C-40.99 45.67 -41.98 45.34 -43 45 C-48.36469962 37.24899587 -47.97150182 26.98300288 -47 18 C-45.38337692 9.25657376 -40.03336536 4.09757673 -33 -1 C-23.97861664 -6.9261807 -8.75943957 -5.60604133 0 0 Z " fill="#FFFFFF" transform="translate(392,360)"/>
<path d="M0 0 C0.70125 0.845625 1.4025 1.69125 2.125 2.5625 C2.82625 3.26375 3.5275 3.965 4.25 4.6875 C9.50590734 12.74655792 10.41606189 23.00427982 8.5859375 32.30078125 C7.26111889 37.21425685 5.7795397 40.9079603 2.125 44.5625 C1.59261719 45.13871094 1.06023437 45.71492188 0.51171875 46.30859375 C-5.80090423 52.5950775 -13.3374201 54.56362906 -22.125 54.875 C-32.46596589 54.01325284 -40.39254591 50.79919393 -47.33203125 42.953125 C-51.2941623 36.81432955 -52.41180366 30.84799415 -52.3125 23.625 C-52.30275146 22.83230713 -52.29300293 22.03961426 -52.28295898 21.22290039 C-52.01268588 12.32404382 -49.67376387 7.2377158 -43.625 0.6875 C-39.65450474 -3.04867095 -36.18750577 -5.24961051 -30.875 -6.4375 C-29.2353125 -6.80875 -29.2353125 -6.80875 -27.5625 -7.1875 C-17.61978676 -7.86158225 -7.81259528 -6.62372208 0 0 Z " fill="#FFFFFF" transform="translate(396.875,267.4375)"/>
<path d="M0 0 C0 0.66 0 1.32 0 2 C-3.96 2 -7.92 2 -12 2 C-12 1.67 -12 1.34 -12 1 C-7.93631321 0.22596442 -4.13574827 -0.0984702 0 0 Z " fill="#FFFFFF" transform="translate(342,250)"/>
<path d="M0 0 C1.32 0 2.64 0 4 0 C3.67 0.99 3.34 1.98 3 3 C2.01 3 1.02 3 0 3 C0 2.01 0 1.02 0 0 Z " fill="#FFFFFF" transform="translate(420,403)"/>
</svg>
