<?xml version="1.0" standalone="no"?>
<!DOCTYPE svg PUBLIC "-//W3C//DTD SVG 20010904//EN"
 "http://www.w3.org/TR/2001/REC-SVG-20010904/DTD/svg10.dtd">
<svg version="1.0" xmlns="http://www.w3.org/2000/svg"
 width="720.000000pt" height="540.000000pt" viewBox="0 0 720.000000 540.000000"
 preserveAspectRatio="xMidYMid meet">

<g transform="translate(0.000000,540.000000) scale(0.100000,-0.100000)"
fill="#FFFFFF" stroke="none">
<path d="M1460 5386 c-143 -32 -283 -146 -345 -280 -121 -262 -18 -549 243
-679 80 -39 90 -42 189 -45 117 -5 166 5 261 51 73 36 166 121 206 189 150
257 59 581 -202 716 -119 61 -227 76 -352 48z"/>
<path d="M6680 5250 c-524 -228 -1198 -408 -1810 -484 -306 -38 -416 -46 -735
-53 -500 -10 -953 28 -1455 123 -117 22 -390 84 -442 100 -16 5 -18 -3 -18
-65 0 -38 -5 -94 -11 -123 -16 -77 -78 -204 -132 -270 -45 -55 -56 -81 -40
-91 5 -3 33 -8 63 -12 l55 -7 126 144 c69 78 156 180 194 226 68 81 90 94 124
73 7 -5 33 -78 58 -162 56 -196 163 -518 173 -524 10 -6 172 211 317 426 100
148 109 159 138 159 30 0 32 -2 84 -132 30 -73 83 -200 119 -282 l65 -148 66
7 c43 5 69 13 77 24 17 22 217 386 245 444 21 43 26 47 59 47 34 0 37 -3 69
-67 26 -54 188 -352 195 -360 1 -1 30 4 66 12 36 7 91 18 122 25 l57 11 60
142 c33 78 72 172 86 210 26 63 29 67 59 67 31 0 38 -9 136 -155 60 -89 111
-155 120 -155 15 0 319 86 325 92 2 2 22 71 45 153 24 83 47 156 53 163 5 6
22 12 36 12 22 0 42 -18 105 -94 42 -52 83 -100 91 -106 10 -8 48 3 162 49 81
32 173 71 204 85 l57 26 17 98 c21 125 19 119 55 127 25 6 35 3 46 -13 7 -11
35 -38 62 -60 l49 -41 154 88 c85 48 193 113 242 144 78 50 87 60 87 87 0 26
7 33 50 55 45 23 69 57 38 54 -7 -1 -83 -32 -168 -69z"/>
<path d="M6806 5130 c-401 -281 -966 -545 -1546 -721 -730 -222 -1505 -344
-2332 -365 -251 -7 -268 -8 -268 -26 0 -21 4 -22 285 -18 l190 2 184 -271
c102 -149 186 -269 187 -268 1 1 64 133 139 292 76 160 141 293 144 297 3 4
31 10 61 13 l55 6 205 -250 c112 -138 206 -248 209 -245 3 2 55 138 116 302
111 295 112 297 146 308 19 7 52 15 75 18 l41 7 223 -231 c123 -127 227 -227
230 -223 4 5 44 143 90 308 45 165 88 305 94 311 16 17 114 47 131 40 8 -3
125 -94 260 -202 135 -108 247 -195 250 -193 2 2 24 144 50 314 25 171 49 316
53 324 4 7 35 26 68 41 l60 27 285 -158 c156 -87 286 -159 289 -159 3 0 3 145
2 323 l-4 323 64 42 c93 62 99 68 92 86 -3 9 -11 16 -18 15 -6 0 -56 -31 -110
-69z"/>
<path d="M1005 4222 c-173 -60 -317 -220 -412 -458 -114 -282 -158 -638 -151
-1201 4 -292 7 -343 22 -378 34 -79 88 -115 174 -115 60 0 121 37 152 93 21
36 22 49 19 185 -7 262 -2 604 11 737 21 231 77 485 125 574 13 23 14 -13 15
-315 l0 -341 -55 -37 c-52 -34 -55 -39 -55 -77 l0 -41 25 16 c14 9 36 23 51
32 14 10 29 13 34 8 7 -8 342 -501 384 -565 l17 -27 -372 -252 c-204 -138
-376 -253 -383 -256 -6 -2 -30 24 -52 59 -23 34 -114 169 -203 299 l-161 238
100 66 c98 66 100 68 100 106 0 21 -3 38 -6 38 -7 0 -253 -167 -273 -185 -13
-13 19 -62 441 -682 l29 -43 183 125 c101 69 187 125 190 125 3 0 7 -393 8
-873 l3 -872 24 -45 c47 -91 128 -147 226 -157 108 -11 225 52 278 151 l22 41
3 1073 2 1072 55 0 55 0 0 -1053 c0 -1200 -6 -1112 85 -1204 55 -55 122 -83
195 -83 101 0 207 66 252 158 l23 47 5 1740 c5 1691 6 1739 23 1700 46 -101
93 -312 119 -535 7 -63 12 -264 13 -505 1 -220 2 -408 3 -417 3 -26 63 -89 99
-104 92 -39 201 4 240 95 36 85 35 760 -2 1048 -68 525 -226 843 -482 970
l-77 38 -535 2 c-489 2 -540 1 -586 -15z m677 -237 c24 -94 23 -102 -13 -124
-62 -38 -147 -35 -200 8 -24 19 -24 16 12 154 l10 38 86 -3 87 -3 18 -70z
m-148 -215 c23 -5 59 -5 85 0 25 5 47 8 47 7 9 -10 123 -911 117 -921 -18 -31
-199 -255 -206 -256 -4 0 -55 60 -113 133 -84 106 -104 137 -101 157 3 14 31
220 63 458 32 237 61 432 64 432 3 0 23 -5 44 -10z"/>
<path d="M874 2679 c-3 -6 2 -23 13 -37 11 -15 65 -93 122 -174 56 -82 105
-148 109 -148 4 0 14 5 22 10 12 8 12 13 -6 37 -11 15 -66 94 -123 176 -97
139 -120 162 -137 136z"/>
<path d="M2846 2423 c-3 -21 -6 -80 -6 -130 l0 -93 350 0 350 0 0 130 0 130
-344 0 -343 0 -7 -37z"/>
<path d="M4960 2330 l0 -130 510 0 510 0 0 130 0 130 -510 0 -510 0 0 -130z"/>
<path d="M850 2394 c0 -27 13 -54 51 -110 28 -41 54 -74 58 -74 3 0 12 4 20 9
12 8 1 29 -54 110 -38 56 -70 101 -72 101 -2 0 -3 -16 -3 -36z"/>
<path d="M2796 2093 c-25 -48 -89 -105 -146 -132 -80 -36 -194 -37 -267 0
l-53 26 0 -513 0 -514 2153 2 2152 3 3 53 3 52 -180 0 -181 0 0 525 0 525
-1735 0 -1734 0 -15 -27z"/>
</g>
</svg>
