<?xml version="1.0" encoding="UTF-8"?>
<svg version="1.1" xmlns="http://www.w3.org/2000/svg" width="512" height="512">
<path d="M0 0 C5.6074782 3.88210029 6.7985988 7.05385229 8.4375 13.6875 C8.4375 18.9675 8.4375 24.2475 8.4375 29.6875 C80.3775 29.6875 152.3175 29.6875 226.4375 29.6875 C226.4375 24.4075 226.4375 19.1275 226.4375 13.6875 C228.31201069 7.3002784 229.58538073 3.22957219 235.4375 -0.3125 C239.82839844 -2.50794922 245.64517628 -1.64481442 250.4375 -1.3125 C255.05121753 0.35798393 258.14593318 2.32591249 260.5078125 6.64453125 C261.86827951 11.09748841 261.6474984 15.37412575 261.5625 20 C261.55347656 20.93134766 261.54445313 21.86269531 261.53515625 22.82226562 C261.51168263 25.1109436 261.47884729 27.39908672 261.4375 29.6875 C262.71882813 29.66429688 264.00015625 29.64109375 265.3203125 29.6171875 C281.38686498 29.41150571 297.91038346 29.90263372 312.4375 37.6875 C312.4375 38.3475 312.4375 39.0075 312.4375 39.6875 C313.13875 39.955625 313.84 40.22375 314.5625 40.5 C320.05594304 42.76903082 324.3999764 45.22837564 328.8125 49.25 C329.68648438 50.03503906 330.56046875 50.82007813 331.4609375 51.62890625 C333.4375 53.6875 333.4375 53.6875 333.4375 55.6875 C334.02660156 55.935 334.61570312 56.1825 335.22265625 56.4375 C342.18979732 60.36957256 346.502858 69.5334649 349.4375 76.6875 C349.4375 77.3475 349.4375 78.0075 349.4375 78.6875 C350.0975 78.6875 350.7575 78.6875 351.4375 78.6875 C357.99581721 96.04013607 357.0656524 113.93071251 356.91587782 132.16617966 C356.88633243 136.64927241 356.89121701 141.13230892 356.89395142 145.61547852 C356.89604845 158.90347377 356.8495931 172.19123735 356.784729 185.47906494 C356.73444661 195.84378707 356.69961841 206.20803029 356.71319926 216.57289124 C356.718447 221.88838559 356.69154895 227.20240379 356.63962913 232.51763248 C356.61450896 235.8277213 356.61873515 239.13731225 356.63081169 242.44745445 C356.63052346 243.97160659 356.61839016 245.49581412 356.59297752 247.01975441 C356.45178415 255.92602637 357.35438099 262.22448478 362.83696938 269.54762268 C364.4375 271.6875 364.4375 271.6875 365.4375 274.6875 C366.4275 275.0175 367.4175 275.3475 368.4375 275.6875 C369.75610352 277.83300781 369.75610352 277.83300781 371.06640625 280.640625 C371.78280273 282.15849609 371.78280273 282.15849609 372.51367188 283.70703125 C373.00416016 284.77308594 373.49464844 285.83914063 374 286.9375 C374.49435547 287.98808594 374.98871094 289.03867187 375.49804688 290.12109375 C381.4375 302.8037149 381.4375 302.8037149 381.4375 306.6875 C382.0975 306.6875 382.7575 306.6875 383.4375 306.6875 C384.23980666 309.55988034 385.02930026 312.43490096 385.8125 315.3125 C386.03421875 316.10140625 386.2559375 316.8903125 386.484375 317.703125 C390.00996074 330.76853097 390.84284974 343.7358201 390.8125 357.1875 C390.81295319 357.97309296 390.81340637 358.75868591 390.81387329 359.56808472 C390.79184455 372.61721367 389.6672006 385.00170796 386.4375 397.6875 C386.12941406 398.93144531 385.82132812 400.17539062 385.50390625 401.45703125 C384.86487247 403.88780566 384.19417296 406.29136898 383.4375 408.6875 C382.7775 408.6875 382.1175 408.6875 381.4375 408.6875 C381.31375 409.22375 381.19 409.76 381.0625 410.3125 C378.93981213 418.37871392 375.21366532 425.49458477 371.38671875 432.85351562 C370.0423675 435.45093501 368.73892887 438.06837439 367.4375 440.6875 C366.7775 440.6875 366.1175 440.6875 365.4375 440.6875 C365.22351563 441.35007812 365.00953125 442.01265625 364.7890625 442.6953125 C362.96724658 446.72858127 360.47318538 450.04232816 357.8125 453.5625 C357.27560547 454.27704346 356.73871094 454.99158691 356.18554688 455.7277832 C352.86581264 460.05884366 349.52281352 463.90766712 345.15625 467.23046875 C343.30000675 468.69040691 343.30000675 468.69040691 341.7578125 470.96875 C338.57651338 474.69633281 334.8273508 477.2280015 330.8125 480 C330.03648437 480.54978516 329.26046875 481.09957031 328.4609375 481.66601562 C322.70596856 485.6875 322.70596856 485.6875 320.4375 485.6875 C320.1075 486.6775 319.7775 487.6675 319.4375 488.6875 C317.55493164 489.8984375 317.55493164 489.8984375 315.09765625 491.0625 C313.74897461 491.70445312 313.74897461 491.70445312 312.37304688 492.359375 C310.95088867 493.01679687 310.95088867 493.01679687 309.5 493.6875 C308.58669922 494.12578125 307.67339844 494.5640625 306.73242188 495.015625 C300.76151298 497.82148736 294.81034983 499.98507453 288.4375 501.6875 C288.4375 502.3475 288.4375 503.0075 288.4375 503.6875 C285.37766594 504.48970369 282.31419851 505.27714747 279.25 506.0625 C278.40501953 506.28421875 277.56003906 506.5059375 276.68945312 506.734375 C263.66606284 510.0511935 251.12174568 511.06185877 237.75 511 C236.95413483 510.99850952 236.15826965 510.99701904 235.33828735 510.9954834 C223.77978576 510.95653114 212.69889742 510.4999075 201.4375 507.6875 C200.36508057 507.42283936 200.36508057 507.42283936 199.27099609 507.15283203 C194.96807311 506.08063755 190.69636143 504.92495679 186.4375 503.6875 C186.4375 503.0275 186.4375 502.3675 186.4375 501.6875 C185.43589844 501.53861328 185.43589844 501.53861328 184.4140625 501.38671875 C180.68301327 500.51026493 177.29953975 499.05315936 173.8125 497.5 C173.11189453 497.19118896 172.41128906 496.88237793 171.68945312 496.56420898 C165.76455509 493.91413165 160.05683062 490.93766369 154.4375 487.6875 C154.4375 487.0275 154.4375 486.3675 154.4375 485.6875 C153.715625 485.44 152.99375 485.1925 152.25 484.9375 C149.17836887 483.57233061 147.0270248 481.8122383 144.4375 479.6875 C140.72481569 477.21595396 136.96725521 477.40866717 132.66119385 477.4359436 C131.47856181 477.4314884 131.47856181 477.4314884 130.27203822 477.42694318 C127.62692317 477.4192976 124.98202983 477.42579974 122.33691406 477.43212891 C120.44112497 477.42937906 118.54533704 477.4256992 116.64955139 477.42115784 C112.56315811 477.41303958 108.47681957 477.41087908 104.39041901 477.41310501 C97.91670775 477.41593905 91.44310559 477.40157978 84.96942139 477.38412476 C66.55889547 477.33711562 48.14837622 477.31317971 29.73779297 477.30664062 C19.57235711 477.30287764 9.40704407 477.28474379 -0.75833917 477.25154626 C-7.18003659 477.23142957 -13.60141507 477.22891508 -20.02313089 477.23982644 C-24.04138662 477.24245311 -28.05946086 477.22833363 -32.07766914 477.20974541 C-33.92538602 477.20446933 -35.7731373 477.20584051 -37.62084007 477.21478081 C-49.31790815 477.26675915 -61.84636 477.04557 -72.5625 471.6875 C-72.5625 471.0275 -72.5625 470.3675 -72.5625 469.6875 C-73.27792969 469.57664062 -73.99335937 469.46578125 -74.73046875 469.3515625 C-82.91098298 467.43337296 -90.97252621 461.90214135 -96.5625 455.6875 C-96.5625 455.0275 -96.5625 454.3675 -96.5625 453.6875 C-97.15160156 453.43097656 -97.74070312 453.17445313 -98.34765625 452.91015625 C-105.00851287 449.23317543 -109.51693847 441.45229566 -112.5625 434.6875 C-112.5625 434.0275 -112.5625 433.3675 -112.5625 432.6875 C-113.2225 432.6875 -113.8825 432.6875 -114.5625 432.6875 C-115.36124865 430.54429273 -116.15111858 428.39777584 -116.9375 426.25 C-117.59878906 424.45755859 -117.59878906 424.45755859 -118.2734375 422.62890625 C-121.199951 414.00116938 -121.85535105 405.98305582 -121.83665466 396.88833618 C-121.84189134 395.61998377 -121.84712802 394.35163136 -121.85252339 393.04484403 C-121.86662625 389.54454726 -121.86836815 386.04433961 -121.86792648 382.54401851 C-121.8695816 378.7605284 -121.88266128 374.97707428 -121.89411926 371.19360352 C-121.91691762 362.92866198 -121.92488475 354.66374621 -121.92994571 346.39877748 C-121.93320966 341.23006466 -121.93973646 336.06135924 -121.9469471 330.8926506 C-121.96650865 316.55960392 -121.98291468 302.22656408 -121.98582363 287.89350319 C-121.9860112 286.97720425 -121.98619877 286.06090531 -121.98639202 285.11683973 C-121.98675826 283.25955542 -121.98712196 281.40227111 -121.98748314 279.5449868 C-121.98766595 278.62312455 -121.98784876 277.70126231 -121.98803711 276.75146484 C-121.98821766 275.82846645 -121.98839821 274.90546805 -121.98858423 273.9545 C-121.99212167 259.01723388 -122.01911912 244.0801123 -122.056535 229.14289625 C-122.09471214 213.77773327 -122.11398181 198.41264182 -122.11428314 183.0474304 C-122.11486571 174.43235183 -122.12322683 165.81744558 -122.15228081 157.20241165 C-122.17692125 149.86268367 -122.18399313 142.52319081 -122.16903328 135.18343253 C-122.1619149 131.44625232 -122.16249871 127.70953516 -122.18544388 123.97240829 C-122.38874043 88.78844252 -122.38874043 88.78844252 -114.5625 74.6875 C-113.9025 74.6875 -113.2425 74.6875 -112.5625 74.6875 C-112.376875 73.90375 -112.19125 73.12 -112 72.3125 C-107.98620595 62.19075848 -100.17436533 53.58339671 -91.6875 46.9375 C-91.10097656 46.45667969 -90.51445313 45.97585937 -89.91015625 45.48046875 C-85.90740016 42.32225021 -82.5462338 40.78366651 -77.5625 39.6875 C-77.5625 39.0275 -77.5625 38.3675 -77.5625 37.6875 C-63.49500754 31.99092655 -51.14211405 29.48057778 -36 29.625 C-35.08669922 29.62951172 -34.17339844 29.63402344 -33.23242188 29.63867188 C-31.00904262 29.6503126 -28.78580879 29.66666149 -26.5625 29.6875 C-26.61470703 27.75197266 -26.61470703 27.75197266 -26.66796875 25.77734375 C-26.69612342 24.05990894 -26.72342177 22.34245993 -26.75 20.625 C-26.77513672 19.77744141 -26.80027344 18.92988281 -26.82617188 18.05664062 C-26.89099419 12.46031429 -26.24663308 8.62860008 -23.5625 3.6875 C-17.09169535 -2.45976442 -8.24198179 -3.03651961 0 0 Z M-62.5625 69.6875 C-62.8925 70.3475 -63.2225 71.0075 -63.5625 71.6875 C-65.109375 72.5228125 -65.109375 72.5228125 -66.6875 73.375 C-73.05593177 76.89991388 -77.8675751 81.87092526 -80.5625 88.6875 C-80.5625 89.3475 -80.5625 90.0075 -80.5625 90.6875 C-81.2225 90.6875 -81.8825 90.6875 -82.5625 90.6875 C-87.91933677 102.39779434 -87.5625 111.45562526 -87.5625 124.6875 C47.7375 124.6875 183.0375 124.6875 322.4375 124.6875 C322.86712934 109.40487486 322.86712934 109.40487486 319.4375 94.6875 C318.7775 94.6875 318.1175 94.6875 317.4375 94.6875 C316.9734375 92.769375 316.9734375 92.769375 316.5 90.8125 C314.03550724 83.41902173 308.3649587 77.04200889 301.5625 73.25 C300.53125 72.734375 299.5 72.21875 298.4375 71.6875 C297.97859375 71.19378906 297.5196875 70.70007813 297.046875 70.19140625 C295.00528906 68.28361356 293.24394474 67.8041762 290.5625 67.0625 C289.71945312 66.82273437 288.87640625 66.58296875 288.0078125 66.3359375 C286.73550781 66.01496094 286.73550781 66.01496094 285.4375 65.6875 C284.34501953 65.39939453 284.34501953 65.39939453 283.23046875 65.10546875 C279.0308328 64.47699176 274.86422631 64.58390385 270.625 64.625 C269.29952148 64.63176758 269.29952148 64.63176758 267.94726562 64.63867188 C265.77731441 64.65040134 263.60739828 64.66833505 261.4375 64.6875 C261.42291748 65.26193848 261.40833496 65.83637695 261.39331055 66.42822266 C261.31836275 69.05695696 261.22186006 71.68448552 261.125 74.3125 C261.10244141 75.21613281 261.07988281 76.11976562 261.05664062 77.05078125 C260.84660115 82.28267365 260.3990545 86.19240897 257.4375 90.6875 C251.94602038 94.92051554 247.34518933 96.39858567 240.4375 95.6875 C235.84678699 94.15726233 232.37076293 92.59851723 229.4375 88.6875 C227.4375 81.6875 227.4375 81.6875 226.4375 64.6875 C154.4975 64.6875 82.5575 64.6875 8.4375 64.6875 C8.1075 70.2975 7.7775 75.9075 7.4375 81.6875 C5.9375 86.5625 5.9375 86.5625 4.4375 89.6875 C3.9425 91.1725 3.9425 91.1725 3.4375 92.6875 C-1.93379906 95.54357368 -7.59511754 96.26498863 -13.5625 95.6875 C-18.7502861 94.04470107 -21.5880688 92.263548 -24.5625 87.6875 C-25.4925889 84.8972333 -25.74948769 82.92220458 -25.87890625 80.01953125 C-25.92080078 79.12685547 -25.96269531 78.23417969 -26.00585938 77.31445312 C-26.04517578 76.38568359 -26.08449219 75.45691406 -26.125 74.5 C-26.16818359 73.55962891 -26.21136719 72.61925781 -26.25585938 71.65039062 C-26.36188665 69.32957146 -26.46395029 67.00864675 -26.5625 64.6875 C-45.18207148 63.82743536 -45.18207148 63.82743536 -62.5625 69.6875 Z M-87.5625 159.6875 C-87.60375 198.33875 -87.645 236.99 -87.6875 276.8125 C-87.70570801 289.00590332 -87.72391602 301.19930664 -87.74267578 313.76220703 C-87.74936564 324.71519414 -87.74936564 324.71519414 -87.75338745 335.66818237 C-87.75524683 340.53758577 -87.76272629 345.40694533 -87.77365112 350.27633667 C-87.78742416 356.49815991 -87.79147214 362.71991989 -87.78864455 368.94175696 C-87.78923536 371.21853164 -87.79316859 373.49530865 -87.80093026 375.77207017 C-88.43247695 396.82619074 -88.43247695 396.82619074 -82.5625 416.6875 C-81.9025 416.6875 -81.2425 416.6875 -80.5625 416.6875 C-80.315 417.38875 -80.0675 418.09 -79.8125 418.8125 C-76.6378468 426.11420236 -71.45054614 432.53524403 -64.04296875 435.796875 C-61.89455949 436.51413919 -59.76278085 437.15270952 -57.5625 437.6875 C-57.5625 438.3475 -57.5625 439.0075 -57.5625 439.6875 C-47.44721991 442.91578088 -37.39215448 442.8295361 -26.86303711 442.80102539 C-25.39374799 442.80074287 -23.92445872 442.80090253 -22.45516968 442.8014679 C-18.49094048 442.80175332 -14.52674191 442.79589794 -10.56251979 442.78889394 C-6.41054234 442.78261782 -2.2585641 442.78205324 1.89341736 442.78086853 C9.74484431 442.77776773 17.59625724 442.76957128 25.44767803 442.75951904 C34.39088273 442.74831896 43.33408812 442.74283766 52.27729809 442.73782361 C70.66403999 442.72738756 89.05076887 442.70981245 107.4375 442.6875 C106.31413946 439.26386002 105.21048197 435.98435412 103.5625 432.77734375 C103.21703125 432.09736328 102.8715625 431.41738281 102.515625 430.71679688 C102.15984375 430.02650391 101.8040625 429.33621094 101.4375 428.625 C99.25598779 424.36867997 97.11687189 420.17457178 95.4375 415.6875 C94.7775 415.6875 94.1175 415.6875 93.4375 415.6875 C91.60058566 409.24438379 89.93223847 402.76562068 88.375 396.25 C88.21290039 395.58363525 88.05080078 394.91727051 87.88378906 394.23071289 C87.3702219 392.05534447 86.89680551 389.87497391 86.4375 387.6875 C86.25437256 386.83929688 86.07124512 385.99109375 85.88256836 385.1171875 C84.26288882 376.72581517 84.09840701 368.47705703 84.12182617 359.96289062 C84.12496792 357.58676397 84.10150574 355.21190973 84.07617188 352.8359375 C84.01617194 338.51160077 85.87840512 324.6024471 90.0625 310.875 C91.99625503 304.34268084 91.99625503 304.34268084 93.4375 297.6875 C94.0975 297.6875 94.7575 297.6875 95.4375 297.6875 C95.80101562 296.88828125 96.16453125 296.0890625 96.5390625 295.265625 C97.87957546 292.33711976 99.23203582 289.41460105 100.59521484 286.49658203 C101.37939087 284.81230831 102.15301489 283.12313279 102.92578125 281.43359375 C105.6276706 275.73122351 108.41076338 271.03911212 112.82421875 266.50390625 C114.54429479 264.6799096 114.54429479 264.6799096 115.90234375 262.24609375 C117.48982949 259.60028418 119.24453513 257.47272188 121.3125 255.1875 C121.96992188 254.4553125 122.62734375 253.723125 123.3046875 252.96875 C130.85991752 244.88769811 138.61382002 236.90006489 148.4375 231.6875 C149.00210938 231.07648438 149.56671875 230.46546875 150.1484375 229.8359375 C153.16032 227.00908533 156.42243297 225.45963942 160.125 223.6875 C160.83527344 223.34009766 161.54554688 222.99269531 162.27734375 222.63476562 C167.2804475 220.20168688 172.32363688 217.87915562 177.4375 215.6875 C177.4375 215.0275 177.4375 214.3675 177.4375 213.6875 C178.16332275 213.55013428 178.88914551 213.41276855 179.63696289 213.27124023 C182.21894064 212.73305622 184.71363108 212.08065099 187.24609375 211.34765625 C188.15939453 211.08919922 189.07269531 210.83074219 190.01367188 210.56445312 C191.88768257 210.03103165 193.76015516 209.49216955 195.63085938 208.94726562 C209.15401059 205.14947473 222.48196535 204.27877589 236.4375 204.3125 C237.24843109 204.31271149 238.05936218 204.31292297 238.89486694 204.31314087 C256.90998119 204.35989999 273.445135 206.89453082 290.515625 212.734375 C293.24216539 213.7908735 293.24216539 213.7908735 295.4375 213.6875 C295.4375 214.3475 295.4375 215.0075 295.4375 215.6875 C297.01337891 216.35845703 297.01337891 216.35845703 298.62109375 217.04296875 C305.54527673 220.01695399 312.3612588 222.95253666 318.8359375 226.83984375 C320.43010519 227.84342956 320.43010519 227.84342956 322.4375 227.6875 C322.4375 205.2475 322.4375 182.8075 322.4375 159.6875 C187.1375 159.6875 51.8375 159.6875 -87.5625 159.6875 Z M193.4375 245.6875 C193.4375 246.3475 193.4375 247.0075 193.4375 247.6875 C192.6228125 247.76355469 191.808125 247.83960938 190.96875 247.91796875 C186.47849619 248.89648645 182.94221018 250.80057657 178.9375 253 C178.20402344 253.39123047 177.47054687 253.78246094 176.71484375 254.18554688 C170.16531881 257.7180724 164.67147862 261.32890284 159.4375 266.6875 C158.11075519 267.84095569 156.77689757 268.98626124 155.4375 270.125 C152.04682685 273.06569597 149.23873662 276.16799758 146.4375 279.6875 C145.91671875 280.23535156 145.3959375 280.78320312 144.859375 281.34765625 C139.1470822 287.4073182 135.34877976 294.4079381 131.4375 301.6875 C130.97730469 302.52539062 130.51710937 303.36328125 130.04296875 304.2265625 C128.19529348 307.71298863 127.4375 309.65914666 127.4375 313.6875 C126.7775 313.6875 126.1175 313.6875 125.4375 313.6875 C115.07822362 341.4524641 115.5480745 370.59443754 124.4375 398.6875 C124.7675 399.3475 125.0975 400.0075 125.4375 400.6875 C126.0975 400.6875 126.7575 400.6875 127.4375 400.6875 C127.53675781 401.37457031 127.63601562 402.06164062 127.73828125 402.76953125 C130.27603725 413.36005488 137.7827333 427.14365201 146.4375 433.6875 C148.26341688 435.89760301 149.98411401 438.16607409 151.69140625 440.46875 C154.86637732 444.50316515 158.02961721 447.10727593 162.4375 449.6875 C163.324375 450.409375 164.21125 451.13125 165.125 451.875 C167.21015784 453.89312722 167.21015784 453.89312722 169.4375 453.6875 C169.7675 454.6775 170.0975 455.6675 170.4375 456.6875 C172.18398543 457.97732345 172.18398543 457.97732345 174.375 459.0625 C175.18839844 459.49046875 176.00179687 459.9184375 176.83984375 460.359375 C177.69707031 460.79765625 178.55429687 461.2359375 179.4375 461.6875 C180.26378906 462.12578125 181.09007812 462.5640625 181.94140625 463.015625 C191.24116127 467.92256688 191.24116127 467.92256688 201.4375 469.6875 C201.4375 470.3475 201.4375 471.0075 201.4375 471.6875 C225.32358887 477.32472185 248.53068893 478.4535786 272.4375 471.6875 C272.4375 471.0275 272.4375 470.3675 272.4375 469.6875 C273.26765625 469.58824219 274.0978125 469.48898437 274.953125 469.38671875 C278.95454195 468.58374382 282.48522929 467.16096843 286.1875 465.5 C286.88617188 465.18973877 287.58484375 464.87947754 288.3046875 464.55981445 C293.86886294 462.04143477 299.59321772 459.44880571 304.4375 455.6875 C304.4375 455.0275 304.4375 454.3675 304.4375 453.6875 C304.97375 453.44386719 305.51 453.20023438 306.0625 452.94921875 C317.62325843 446.80756584 326.073785 437.30186397 333.4375 426.6875 C333.4375 426.0275 333.4375 425.3675 333.4375 424.6875 C334.4275 424.3575 335.4175 424.0275 336.4375 423.6875 C340.73551127 417.66040374 343.47728534 410.4931736 346.3125 403.6875 C346.6228418 402.94564453 346.93318359 402.20378906 347.25292969 401.43945312 C348.49472188 398.3833815 349.4375 396.01776099 349.4375 392.6875 C350.0975 392.6875 350.7575 392.6875 351.4375 392.6875 C357.24865271 369.1834627 357.62143757 345.15333453 351.4375 321.6875 C350.7775 321.6875 350.1175 321.6875 349.4375 321.6875 C349.30472656 320.96304688 349.17195312 320.23859375 349.03515625 319.4921875 C347.37394806 311.69645234 344.04478952 304.59018467 340.375 297.5625 C340.03460693 296.89879395 339.69421387 296.23508789 339.34350586 295.55126953 C337.32702143 291.59625804 337.32702143 291.59625804 333.4375 289.6875 C332.76308869 288.0239521 332.0974679 286.35683058 331.4375 284.6875 C330.12549596 283.33317325 328.79118596 282.00016518 327.4375 280.6875 C326.99019531 279.90503906 326.54289063 279.12257813 326.08203125 278.31640625 C324.34081739 275.53294561 322.54623707 273.75694496 320.0625 271.625 C319.26714844 270.93792969 318.47179687 270.25085938 317.65234375 269.54296875 C315.99385027 268.15357827 314.31445917 266.78906733 312.625 265.4375 C310.4375 263.6875 310.4375 263.6875 308.859375 261.8984375 C305.43398602 258.77138885 301.56328405 256.76222164 297.5 254.5625 C296.70142578 254.12035156 295.90285156 253.67820313 295.08007812 253.22265625 C288.14852352 249.16294601 288.14852352 249.16294601 280.4375 247.6875 C280.4375 247.0275 280.4375 246.3675 280.4375 245.6875 C252.44656011 236.38865488 221.23840536 233.8707964 193.4375 245.6875 Z " fill="#FFF13C" transform="translate(121.5625,1.3125)"/>
<path d="M0 0 C5.41806118 2.52220089 7.41314232 5.82628465 10 11 C10.09175034 13.12417 10.11750694 15.25129455 10.11352539 17.37744141 C10.11367142 18.03122269 10.11381744 18.68500397 10.1139679 19.3585968 C10.11327036 21.52295227 10.1054854 23.68722204 10.09765625 25.8515625 C10.09579151 27.35086012 10.09436787 28.85015834 10.09336853 30.34945679 C10.08954779 34.29831622 10.07972128 38.24713896 10.06866455 42.19598389 C10.05844091 46.22440087 10.05386887 50.25282378 10.04882812 54.28125 C10.03809862 62.18751685 10.0210275 70.09375386 10 78 C10.60360352 78.27239502 11.20720703 78.54479004 11.82910156 78.82543945 C15.1215912 80.60683482 17.30566731 83.41415237 19.75 86.1875 C23.66509446 90.53998207 27.61738587 94.54324992 32.109375 98.30859375 C35.72320139 101.54162439 39.05175395 105.15002976 42 109 C42 109.66 42 110.32 42 111 C42.66 111 43.32 111 44 111 C45.02835363 114.08506088 45.13368434 116.2694272 45.125 119.5 C45.12886719 120.93859375 45.12886719 120.93859375 45.1328125 122.40625 C44.97562137 125.47610026 44.66119577 127.3631129 42.40625 129.53515625 C41.46265625 130.29119141 41.46265625 130.29119141 40.5 131.0625 C37.81893599 133.17721767 37.81893599 133.17721767 36 136 C32.91493912 137.02835363 30.7305728 137.13368434 27.5 137.125 C26.5409375 137.12757813 25.581875 137.13015625 24.59375 137.1328125 C22 137 22 137 19 136 C19 135.34 19 134.68 19 134 C18.47148437 133.78730469 17.94296875 133.57460938 17.3984375 133.35546875 C14.05816232 131.46772366 11.40607796 128.92162638 8.625 126.3125 C8.04210205 125.77085205 7.4592041 125.2292041 6.85864258 124.67114258 C3.45403726 121.47319589 0.31496978 118.20361928 -2.62109375 114.56640625 C-4.23903879 112.72845735 -6.00584283 111.20604046 -7.875 109.625 C-11.69980154 106.38015877 -14.96698463 102.81112533 -18.23828125 99.015625 C-19.93852726 97.01927413 -19.93852726 97.01927413 -21.66796875 95.359375 C-24.76379309 92.20000001 -24.14779298 88.56000063 -24.14526367 84.41674805 C-24.14862228 83.63444824 -24.1519809 82.85214844 -24.15544128 82.04614258 C-24.16496585 79.45131862 -24.1668953 76.85655912 -24.16796875 74.26171875 C-24.17118084 72.46051507 -24.17454488 70.65931165 -24.17805481 68.85810852 C-24.18405024 65.07768143 -24.18589434 61.29727721 -24.18530273 57.5168457 C-24.18520122 52.67460263 -24.19884094 47.83250653 -24.21607494 42.99029827 C-24.22720008 39.26794259 -24.22922176 35.54562233 -24.22869301 31.82325172 C-24.22987283 30.03829251 -24.23429473 28.25333237 -24.24202538 26.46838951 C-24.25183336 23.96930069 -24.2489438 21.47052959 -24.24291992 18.97143555 C-24.25134918 17.86699852 -24.25134918 17.86699852 -24.25994873 16.74024963 C-24.22954488 11.77117212 -23.78870469 7.88694019 -20.29296875 4.19921875 C-13.76980088 -0.48439157 -7.90243135 -1.21816135 0 0 Z " fill="#FFF13C" transform="translate(365,273)"/>
</svg>
