<?xml version="1.0" encoding="UTF-8"?>
<svg version="1.1" xmlns="http://www.w3.org/2000/svg" width="512" height="512">
<path d="M0 0 C1.34579582 0.17746392 2.69218715 0.35045541 4.0390625 0.51953125 C22.26784941 2.96640414 40.67256611 8.51571825 57 17 C58.26396367 17.61410828 59.52970863 18.22455899 60.796875 18.83203125 C67.76137552 22.19623201 74.5464503 25.78265172 81.1875 29.75 C82.10474854 30.29684448 82.10474854 30.29684448 83.04052734 30.85473633 C86.58253119 33.01161831 89.80159232 35.36691597 93 38 C95.0204034 39.52140444 97.04126975 41.04219422 99.0625 42.5625 C105.75154336 47.65520701 111.9277102 53.1866755 118 59 C118.9384375 59.89074219 119.876875 60.78148437 120.84375 61.69921875 C123 64 123 64 123 66 C123.598125 66.268125 124.19625 66.53625 124.8125 66.8125 C127.06902434 68.03747035 128.38589065 69.01305413 130 71 C131.43125947 78.29661691 129.42499761 86.30471818 128.20849609 93.53955078 C127.29788781 98.97457832 126.56609501 104.39381098 126 109.875 C125.26222625 116.90022025 124.34355943 123.8818937 123.32299805 130.87133789 C121.94037826 140.345416 120.62624192 149.82867576 119.3125 159.3125 C119.08359693 160.9633816 118.8546748 162.61426057 118.62573242 164.26513672 C118.08338984 168.1766981 117.54154685 172.08832838 117 176 C115.68 175.67 114.36 175.34 113 175 C112.74476563 173.89205078 112.74476563 173.89205078 112.484375 172.76171875 C109.60633025 160.71373356 105.36079209 150.40036073 99.44116211 139.54858398 C99.01327393 138.76040283 98.58538574 137.97222168 98.14453125 137.16015625 C97.75628174 136.45511963 97.36803223 135.75008301 96.96801758 135.02368164 C96.01116534 133.02334162 95.45525217 131.16449783 95 129 C94.34 129 93.68 129 93 129 C91.4921875 127.1015625 91.4921875 127.1015625 89.875 124.625 C89.06675781 123.40683594 89.06675781 123.40683594 88.2421875 122.1640625 C87 120 87 120 87 118 C86.34 118 85.68 118 85 118 C83.77572421 116.5896823 82.62128187 115.11851069 81.5 113.625 C58.2634276 84.14514926 22.02060146 67.06379388 -14.67626953 62.34570312 C-37.89204978 59.93101642 -61.23077418 62.51545072 -83 71 C-84.02996094 71.39058594 -85.05992187 71.78117187 -86.12109375 72.18359375 C-97.0241365 76.50794751 -107.10779077 82.22114905 -116.85546875 88.71484375 C-119 90 -119 90 -121 90 C-121.495 91.485 -121.495 91.485 -122 93 C-124.0625 93.6875 -124.0625 93.6875 -126 94 C-126 94.66 -126 95.32 -126 96 C-127.57421875 97.55078125 -127.57421875 97.55078125 -129.6875 99.3125 C-142.79324428 110.29565669 -154.23136576 123.55788327 -161.56640625 139.04296875 C-162.94546415 141.88751053 -164.47258417 144.58172854 -166.0625 147.3125 C-169.68781626 153.8893172 -171.84184618 160.84726163 -174 168 C-174.2990625 168.94875 -174.598125 169.8975 -174.90625 170.875 C-178.55623201 183.13893957 -179.33795726 195.6929793 -179.26074219 208.40673828 C-179.2500035 210.49931785 -179.26072869 212.5910395 -179.2734375 214.68359375 C-179.28756442 226.90248675 -178.38809355 239.04553202 -174.625 250.75 C-174.40223389 251.46623535 -174.17946777 252.1824707 -173.94995117 252.92041016 C-173.50781038 254.32758233 -173.05949748 255.73283534 -172.60400391 257.13574219 C-172.09659292 258.70186599 -171.61373029 260.27591354 -171.13671875 261.8515625 C-166.84898235 274.97894503 -159.47830266 288.14080413 -151 299 C-150.35289062 299.83660156 -149.70578125 300.67320312 -149.0390625 301.53515625 C-147.05786087 304.05151004 -145.04188877 306.53271774 -143 309 C-142.4121875 309.71285156 -141.824375 310.42570312 -141.21875 311.16015625 C-136.11426567 317.18112754 -130.5010275 322.32993669 -124 326.8125 C-123.01 327.534375 -122.02 328.25625 -121 329 C-121 329.66 -121 330.32 -121 331 C-119.68 331.33 -118.36 331.66 -117 332 C-117 332.66 -117 333.32 -117 334 C-116.195625 334.20625 -115.39125 334.4125 -114.5625 334.625 C-111.48760534 335.81180145 -109.46874913 336.95408109 -106.8125 338.8125 C-101.78068359 342.2557595 -96.64023709 344.70409173 -91 347 C-89.99018066 347.41233887 -89.99018066 347.41233887 -88.95996094 347.83300781 C-52.1067931 362.68137795 -9.99504935 363.63277615 26.87402344 347.9453125 C46.06068837 339.41398882 65.4077274 327.25647587 78.70703125 310.6796875 C79.46371094 309.79539062 80.22039062 308.91109375 81 308 C81.66 308 82.32 308 83 308 C83.268125 307.236875 83.53625 306.47375 83.8125 305.6875 C84.95970729 303.09118877 85.94646668 301.8749652 88 300 C88.33 299.34 88.66 298.68 89 298 C89.66 298 90.32 298 91 298 C91.23976563 297.32453125 91.47953125 296.6490625 91.7265625 295.953125 C93.29171287 292.32351248 95.29296476 289.10138329 97.375 285.75 C100.69278377 280.30310796 103.67721601 274.95403583 106 269 C106.40863281 268.00613281 106.81726563 267.01226562 107.23828125 265.98828125 C110.13578512 258.7658896 112.36290578 251.60523518 114 244 C114.27457031 242.76636719 114.27457031 242.76636719 114.5546875 241.5078125 C116.45546709 232.12088559 117.12929242 222.52598884 118 213 C119.32 213 120.64 213 122 213 C123.4375 215.1875 123.4375 215.1875 125 218 C125.886875 218.886875 126.77375 219.77375 127.6875 220.6875 C130 223 130 223 130 225 C130.53109375 225.26554688 131.0621875 225.53109375 131.609375 225.8046875 C136.40625 228.203125 141.203125 230.6015625 146 233 C146.23253482 245.29191689 146.40980264 257.58330374 146.51812172 269.87697887 C146.57013228 275.58666814 146.64058114 281.29484383 146.75439453 287.00366211 C146.86370438 292.52163185 146.92297726 298.03815364 146.94877243 303.55712318 C146.96713445 305.6538807 147.00299208 307.75056617 147.05730057 309.84670067 C147.36238513 322.11921348 146.99109951 330.28191987 138.44613647 339.54853821 C137.63891144 340.3575206 136.8316864 341.16650299 136 342 C135.16077499 343.1557679 135.16077499 343.1557679 134.30459595 344.33488464 C133.87407928 344.88437271 133.44356262 345.43386078 133 346 C132.34 346 131.68 346 131 346 C130.72929687 346.5878125 130.45859375 347.175625 130.1796875 347.78125 C120.73271674 365.54906256 99.26467194 379.07758068 83 390 C81.49953125 391.02867187 81.49953125 391.02867187 79.96875 392.078125 C77.20265819 393.86880549 74.45944238 395.37018749 71.5 396.8125 C67.54166125 398.75238065 63.59660461 400.71155318 59.66967773 402.71435547 C41.85799733 411.75225071 22.80156344 417.15917241 3.1875 420.6875 C2.20281738 420.86647827 2.20281738 420.86647827 1.19824219 421.04907227 C-50.62907307 429.94202227 -106.9304937 416.899529 -150.1015625 387.09375 C-158.36776382 381.12247789 -166.28993822 374.94074358 -173.79296875 368.01953125 C-175.71482152 366.26095093 -177.67647489 364.59180225 -179.6875 362.9375 C-183.5488237 359.64059253 -186.73960081 355.87993762 -190 352 C-190.93813349 350.90047086 -191.87698973 349.80155815 -192.81640625 348.703125 C-193.81545049 347.53154523 -194.8141478 346.35966954 -195.8125 345.1875 C-196.53324707 344.34239868 -196.53324707 344.34239868 -197.26855469 343.48022461 C-201.54906583 338.42578855 -203.24775351 335.85852121 -203.32798767 329.18347168 C-203.33886888 328.48629862 -203.34975008 327.78912557 -203.36096102 327.07082605 C-203.39476075 324.72887535 -203.41414568 322.38703456 -203.43334961 320.04492188 C-203.45406358 318.36775888 -203.47546807 316.69060429 -203.49751282 315.01345825 C-203.56547596 309.498666 -203.61095353 303.98379793 -203.65234375 298.46875 C-203.65958694 297.5298398 -203.66683012 296.5909296 -203.6742928 295.62356758 C-203.74150892 286.76427573 -203.79964822 277.9049615 -203.83782101 269.04549408 C-203.88726167 257.72352201 -203.97989697 246.40374616 -204.13173288 235.08267164 C-204.23492633 227.11734247 -204.28801266 219.15260584 -204.3044911 211.18663073 C-204.31568427 206.43167879 -204.3486689 201.67925434 -204.43562126 196.92503357 C-204.51649863 192.44570033 -204.53495662 187.97028705 -204.50698662 183.49035263 C-204.50736755 181.85322284 -204.5297367 180.21591564 -204.57658768 178.57945633 C-204.90219997 166.56050594 -204.90219997 166.56050594 -201.73053288 162.29120064 C-199.14242147 159.61307633 -196.32033592 157.41760008 -193.26682377 155.29721832 C-178.26879159 144.75065788 -171.01483392 127.49339858 -166.578125 110.33984375 C-165.00477493 101.25055786 -164.91120625 92.14923215 -165.0703125 82.953125 C-165.08120117 80.70443987 -165.08892084 78.45573755 -165.09375 76.20703125 C-165.1016309 72.71431701 -165.1255305 69.22582217 -165.20214844 65.73388672 C-165.59927564 46.30457417 -165.59927564 46.30457417 -161.82714844 40.86889648 C-158.97363589 38.76444354 -156.25411559 37.39087621 -153 36 C-151.3146379 34.92592242 -149.6468944 33.8235842 -148 32.69140625 C-132.40358098 22.83161885 -116.55402768 14.74879986 -99 9 C-98.12617676 8.69223633 -97.25235352 8.38447266 -96.35205078 8.06738281 C-89.22535468 5.59388392 -82.15580844 3.78968371 -74.75 2.375 C-73.64938232 2.16335205 -72.54876465 1.9517041 -71.41479492 1.73364258 C-68.27899549 1.14120466 -65.14050357 0.56689516 -62 0 C-61.26797363 -0.13712402 -60.53594727 -0.27424805 -59.78173828 -0.41552734 C-40.56607741 -3.91152518 -19.1835119 -3.26660669 0 0 Z " fill="#F8F8F8" transform="translate(304,48)"/>
<path d="M0 0 C3.41883035 2.27922023 4.81998673 4.28318185 6.8125 7.875 C7.33148193 11.40585327 7.33148193 11.40585327 7.35839844 15.34912109 C7.36873611 16.07176147 7.37907379 16.79440186 7.38972473 17.53894043 C7.41903935 19.9090033 7.42064941 22.27820798 7.421875 24.6484375 C7.43686441 26.29897682 7.45359316 27.94950119 7.47198486 29.6000061 C7.51558555 33.93020332 7.53564118 38.26019823 7.55072021 42.59057617 C7.57031768 47.01493252 7.61228468 51.43907122 7.65234375 55.86328125 C7.72756716 64.53382376 7.77583703 73.20420861 7.8125 81.875 C12.7625 81.875 17.7125 81.875 22.8125 81.875 C22.8218457 79.69503418 22.83119141 77.51506836 22.84082031 75.26904297 C22.87462783 68.05646382 22.93019765 60.84416965 22.99640274 53.63181877 C23.03586725 49.2600647 23.06806065 44.88851174 23.08349609 40.51660156 C23.09866962 36.29531791 23.133127 32.07458718 23.18080902 27.85354996 C23.19561574 26.24530984 23.20354061 24.63699077 23.20438385 23.02868271 C23.20675753 20.77096763 23.23386593 18.51477567 23.26660156 16.25732422 C23.27992523 14.33205399 23.27992523 14.33205399 23.29351807 12.3678894 C24.09184883 6.99490646 26.54199514 3.94787077 30.625 0.5 C34.47252461 -1.46148313 36.54153613 -1.72443353 40.8125 -1.125 C45.97095503 0.97335459 48.57894703 2.98411576 51.01184082 8.16186523 C52.83615153 14.3437725 52.29088865 21.01648387 52.203125 27.40625 C52.19565418 29.00906668 52.18996522 30.61189256 52.18597412 32.21472168 C52.17078378 36.41033649 52.13156025 40.60538748 52.0871582 44.80078125 C52.04606194 49.09106827 52.02793262 53.3814474 52.0078125 57.671875 C51.96505827 66.07320281 51.89476382 74.47396607 51.8125 82.875 C57.0925 82.875 62.3725 82.875 67.8125 82.875 C67.78631592 80.66997803 67.76013184 78.46495605 67.7331543 76.19311523 C67.65016149 68.89302624 67.59501915 61.59291594 67.55343914 54.29247952 C67.5273884 49.86782738 67.49207399 45.44366018 67.43530273 41.01928711 C67.38082013 36.74634626 67.35104546 32.4738707 67.33811378 28.20060921 C67.3289029 26.57353456 67.31091578 24.94648427 67.28384972 23.31960869 C67.05473828 8.97261241 67.05473828 8.97261241 70.16333008 4.44165039 C74.02048816 0.70463971 76.93443356 -0.8518267 82.25 -1.625 C86.76964317 -0.99066412 89.60319355 0.65774972 92.8125 3.875 C95.28495325 7.43768903 96.18856375 9.83199485 96.20018005 14.15878296 C96.21008469 15.20416229 96.21998932 16.24954163 96.23019409 17.32659912 C96.22569244 18.46325012 96.2211908 19.59990112 96.21655273 20.77099609 C96.22341599 21.97658173 96.23027924 23.18216736 96.23735046 24.42428589 C96.25250798 27.72673522 96.25411254 31.02861956 96.24840808 34.33106184 C96.24530998 37.09857377 96.25141682 39.86603508 96.25744683 42.6335398 C96.27149399 49.17614635 96.26993427 55.7186224 96.25854492 62.26123047 C96.24711297 68.97595603 96.26105522 75.69027988 96.2879414 82.40495241 C96.3102363 88.19295389 96.31670358 93.98083061 96.31086498 99.7688719 C96.30752086 103.21507529 96.30973585 106.66102248 96.32711601 110.10718918 C96.45656272 143.35210047 96.45656272 143.35210047 87.8125 157.5 C87.1525 158.60601562 86.4925 159.71203125 85.8125 160.8515625 C79.10773584 170.9872802 69.8215341 177.8291927 58.8125 182.875 C58.1525 182.875 57.4925 182.875 56.8125 182.875 C56.81401888 183.49655301 56.81553776 184.11810601 56.81710267 184.75849396 C56.9066054 221.59274332 56.97524138 258.4269766 57.01676132 295.26131243 C57.02176417 299.68356719 57.02694146 304.10582174 57.03222656 308.52807617 C57.0332758 309.40847136 57.03432505 310.28886654 57.03540608 311.19594037 C57.05281365 325.45316976 57.08435329 339.71033466 57.12111118 353.96752579 C57.1585108 368.59556609 57.18073378 383.22357261 57.18885398 397.85165876 C57.19434379 406.87876522 57.21168591 415.90568942 57.24416587 424.93273979 C57.26530167 431.12203972 57.27170217 437.31124536 57.26650551 443.50057877 C57.26394225 447.07211595 57.26788504 450.64333453 57.2893219 454.21481514 C57.31239949 458.08795387 57.30445241 461.96067756 57.29351807 465.83387756 C57.30516943 466.96131742 57.3168208 468.08875728 57.32882524 469.25036198 C57.27135172 476.76661721 56.07310754 480.98735255 51.1875 486.8125 C49.8125 487.875 49.8125 487.875 47.8125 487.875 C47.8125 488.535 47.8125 489.195 47.8125 489.875 C41.57448697 491.91190222 36.59781703 492.83545415 30.1875 490.625 C23.79683142 487.31132 20.19427799 483.77290346 17.8125 476.875 C17.249377 472.8289979 17.26526343 468.83167173 17.29351807 464.75158691 C17.28601681 463.54418712 17.27851556 462.33678733 17.270787 461.09279966 C17.25405091 457.75851116 17.25506028 454.42509736 17.26369452 451.09083605 C17.2686515 447.48898604 17.25053945 443.8872417 17.23527527 440.28543091 C17.21198911 434.05078178 17.20321357 427.81624889 17.20438385 421.58155823 C17.20605474 412.56734845 17.18570155 403.55329338 17.16002855 394.53912491 C17.11896827 379.91313508 17.0956399 365.28717313 17.08349609 350.66113281 C17.07166373 336.45602744 17.05145953 322.25097453 17.02001953 308.04589844 C17.01711538 306.73178607 17.01711538 306.73178607 17.01415256 305.39112598 C17.00438782 300.99597379 16.99445874 296.60082199 16.98444796 292.20567036 C16.90165347 255.76213798 16.8476503 219.31860793 16.8125 182.875 C15.98866821 182.47414185 15.16483643 182.07328369 14.31604004 181.66027832 C13.23528198 181.12849976 12.15452393 180.59672119 11.04101562 180.04882812 C9.96968384 179.52421997 8.89835205 178.99961182 7.79455566 178.45910645 C4.03284752 176.46083854 1.38911726 174.31638134 -1.6875 171.375 C-2.6465625 170.4778125 -3.605625 169.580625 -4.59375 168.65625 C-11.1875 161.58584337 -11.1875 161.58584337 -11.1875 157.875 C-11.8475 157.875 -12.5075 157.875 -13.1875 157.875 C-13.99341454 156.25701889 -14.78132983 154.63007186 -15.5625 153 C-16.00335937 152.09507812 -16.44421875 151.19015625 -16.8984375 150.2578125 C-20.16039711 141.69763969 -20.48518138 133.17739571 -20.47802734 124.10083008 C-20.48474457 122.86215683 -20.49146179 121.62348358 -20.49838257 120.34727478 C-20.51402782 116.97965988 -20.52073145 113.6122917 -20.52201414 110.24465775 C-20.5234431 108.1362614 -20.52772641 106.02789037 -20.53300858 103.91950035 C-20.55145262 96.55219268 -20.5596852 89.18495696 -20.55810547 81.81762695 C-20.55690163 74.96689748 -20.57806556 68.11648179 -20.6095928 61.26583177 C-20.63577505 55.36491767 -20.64647214 49.46410609 -20.64519465 43.56313437 C-20.64468612 40.04682207 -20.65031026 36.53078993 -20.67155075 33.0145359 C-20.69457857 29.09656163 -20.68540029 25.17901719 -20.67333984 21.26098633 C-20.68457886 20.10496918 -20.69581787 18.94895203 -20.70739746 17.75790405 C-20.6564815 11.25041024 -20.14747474 7.12989059 -16.1875 1.875 C-10.86833783 -1.78931172 -6.0516031 -2.13585992 0 0 Z " fill="#F9F9F9" transform="translate(20.1875,16.125)"/>
<path d="M0 0 C4.63946789 4.29912082 7.88221891 7.91322146 8.1311025 14.43590283 C8.13911876 15.90068644 8.14156857 17.36550634 8.1398077 18.83031082 C8.14423484 20.04545385 8.14423484 20.04545385 8.14875141 21.28514522 C8.15747232 24.02289061 8.15902576 26.76059389 8.16062927 29.49835205 C8.16535819 31.47173277 8.17050882 33.44511251 8.17604691 35.41849113 C8.18997989 40.85955042 8.19754417 46.300603 8.2040199 51.74167562 C8.21038321 56.40398364 8.22045433 61.06628061 8.23058056 65.72858176 C8.26393 81.09013943 8.28546978 96.45170552 8.30378041 111.81328738 C8.30854787 115.811429 8.31355724 119.8095703 8.31858563 123.8077116 C8.34955208 148.62021669 8.37624983 173.43272407 8.39300442 198.24524307 C8.39694172 203.99438736 8.40095355 209.74353159 8.4050293 215.49267578 C8.40553096 216.20694146 8.40603263 216.92120714 8.4065495 217.65711723 C8.42297129 240.82055885 8.46143342 263.9838949 8.5123164 287.14728457 C8.56452103 310.95567672 8.59731641 334.76401264 8.60458195 358.57246318 C8.60561057 361.93414006 8.60684689 365.29581683 8.60820198 368.65749359 C8.60846002 369.31911121 8.60871806 369.98072883 8.60898391 370.66239546 C8.61339041 380.65591524 8.63480475 390.64927111 8.6649456 400.64273834 C8.69918277 412.00833142 8.71321045 423.37371823 8.70052146 434.73935995 C8.69468006 440.54077864 8.69866307 446.34176073 8.7286911 452.14311409 C8.75594578 457.45185157 8.75563621 462.75984001 8.73318065 468.06859335 C8.72994389 469.99123755 8.73690612 471.91393094 8.75497787 473.83649293 C8.77803592 476.44735348 8.76419185 479.05552344 8.74108028 481.66632462 C8.76429464 482.79017686 8.76429464 482.79017686 8.78797796 483.93673319 C8.68478226 489.2059477 7.02243341 491.90188703 3.4817589 495.76173078 C2 497 2 497 0 497 C0 497.66 0 498.32 0 499 C-6.6526064 501.21753547 -12.61322272 502.34083937 -19.1875 499.375 C-24.32083903 496.53098899 -27.69550073 492.40938512 -30 487 C-30.24839699 485.00279117 -30.24839699 485.00279117 -30.24609566 482.85334396 C-30.25007775 482.0302652 -30.25405985 481.20718645 -30.25816262 480.35916591 C-30.24942409 479.0109201 -30.24942409 479.0109201 -30.24050903 477.63543701 C-30.24221788 476.67646806 -30.24392673 475.71749911 -30.24568737 474.72947049 C-30.24898822 471.50804815 -30.23796867 468.28683293 -30.22705078 465.06542969 C-30.2264868 462.75945033 -30.22680298 460.45347061 -30.22793579 458.14749146 C-30.2285108 451.87930187 -30.21673247 445.61118847 -30.20278788 439.34301662 C-30.19030522 432.79535239 -30.18911197 426.24768651 -30.18673706 419.70001221 C-30.18155562 408.70754675 -30.16872076 397.71510805 -30.15087891 386.72265625 C-30.13252085 375.40039205 -30.11836398 364.07813545 -30.10986328 352.75585938 C-30.10933783 352.0579533 -30.10881239 351.36004723 -30.10827102 350.64099249 C-30.10566094 347.1398024 -30.10313353 343.63861226 -30.10064721 340.13742208 C-30.07991382 311.09159651 -30.04453884 282.04579863 -30 253 C-31.10952026 253.00978882 -31.10952026 253.00978882 -32.24145508 253.01977539 C-33.22009521 253.02485107 -34.19873535 253.02992676 -35.20703125 253.03515625 C-36.17358643 253.04168213 -37.1401416 253.04820801 -38.13598633 253.05493164 C-45.59848761 252.91180123 -50.84281225 251.40710821 -56.26171875 246.0859375 C-60.43117189 241.08259373 -62.10346447 236.78779256 -61.859375 230.2109375 C-61.48874394 226.55516754 -60.92750657 222.93457187 -60.34667969 219.30712891 C-59.66270672 214.75533696 -59.25276436 210.17002773 -58.78662109 205.59179688 C-58.35433719 201.57975018 -57.78015372 197.62063377 -57.08984375 193.64453125 C-55.78301449 185.98307847 -54.84600587 178.27952276 -53.88345337 170.56893921 C-52.37515509 158.49638613 -50.8445342 146.43614169 -48.95556641 134.41625977 C-48.01397384 128.344822 -47.33659387 122.2588544 -46.69848633 116.14892578 C-46.19055529 111.39231353 -45.43696325 106.7576382 -44.50390625 102.0703125 C-43.65008767 96.86797606 -43.188518 91.61885178 -42.69726562 86.37133789 C-42.10152566 80.20305132 -42.10152566 80.20305132 -41 78 C-40.73188982 76.11204982 -40.51205968 74.21714108 -40.31640625 72.3203125 C-40.19330078 71.16273437 -40.07019531 70.00515625 -39.94335938 68.8125 C-39.75483398 66.9871875 -39.75483398 66.9871875 -39.5625 65.125 C-38.75700126 57.33425028 -37.82460248 49.62402882 -36.47973633 41.90722656 C-35.52069531 36.0953892 -34.89136097 30.23333027 -34.23242188 24.38085938 C-33.12575329 15.3257424 -31.59496203 7.59496203 -25 1 C-17.54003089 -4.27656352 -7.90198413 -4.78526529 0 0 Z " fill="#F9F9F9" transform="translate(504,7)"/>
<path d="M0 0 C0.33 0.66 0.66 1.32 1 2 C-11.33580501 18.01030011 -11.33580501 18.01030011 -18.08037853 21.67268085 C-21.28254562 23.73468782 -21.28254562 23.73468782 -21.75784016 27.18447399 C-21.76140113 28.45223329 -21.7649621 29.71999258 -21.76863098 31.02616882 C-21.77869649 31.73377454 -21.788762 32.44138026 -21.79913253 33.17042857 C-21.82541397 35.54233213 -21.80879183 37.91197266 -21.79223633 40.28393555 C-21.80200383 41.98420283 -21.81430915 43.68445715 -21.82896423 45.38468933 C-21.86062473 50.00498576 -21.85408658 54.62450164 -21.83888459 59.24485373 C-21.82973899 63.1039716 -21.83943395 66.9629461 -21.84922332 70.82205516 C-21.87214851 79.93090133 -21.86453631 89.03936916 -21.8371582 98.14819336 C-21.80939089 107.53582629 -21.82866584 116.92250397 -21.87203389 126.31005639 C-21.90785508 134.37482977 -21.91634467 142.43930926 -21.90264148 150.50415069 C-21.89460727 155.31849798 -21.89633723 160.13231102 -21.92350197 164.94659996 C-21.947711 169.47865581 -21.93756903 174.00938875 -21.90151405 178.54135323 C-21.89388778 180.20011156 -21.89805256 181.85897469 -21.91518784 183.51766205 C-21.9964279 192.09259007 -21.97284734 198.74640722 -15.74181652 205.34418964 C-15.16701707 205.89060706 -14.59221762 206.43702448 -14 207 C-13.18273437 207.95390625 -12.36546875 208.9078125 -11.5234375 209.890625 C-10.81445312 210.66921875 -10.10546875 211.4478125 -9.375 212.25 C-8.62089844 213.08015625 -7.86679688 213.9103125 -7.08984375 214.765625 C-5.41081162 216.56077711 -3.70703439 218.2956326 -1.9375 220 C0 222 0 222 0 224 C0.82757813 224.34804688 0.82757813 224.34804688 1.671875 224.703125 C4.62510231 226.34821135 6.79112221 228.43162951 9.25 230.75 C13.64134648 234.81715312 18.10949319 238.55282328 23 242 C22.34 242.33 21.68 242.66 21 243 C0.27635772 226.90424975 0.27635772 226.90424975 -5.48046875 219.7734375 C-7.0774296 217.86061593 -7.0774296 217.86061593 -9.3203125 215.703125 C-12.27959086 212.71796374 -14.98763044 209.59280372 -17.6875 206.375 C-18.17283203 205.80265625 -18.65816406 205.2303125 -19.15820312 204.640625 C-23.47410802 199.52106884 -25.24692508 196.92744272 -25.32798767 190.18347168 C-25.33886888 189.48629862 -25.34975008 188.78912557 -25.36096102 188.07082605 C-25.39476075 185.72887535 -25.41414568 183.38703456 -25.43334961 181.04492188 C-25.45406358 179.36775888 -25.47546807 177.69060429 -25.49751282 176.01345825 C-25.56547596 170.498666 -25.61095353 164.98379793 -25.65234375 159.46875 C-25.65958694 158.5298398 -25.66683012 157.5909296 -25.6742928 156.62356758 C-25.74150892 147.76427573 -25.79964822 138.9049615 -25.83782101 130.04549408 C-25.88726167 118.72352201 -25.97989697 107.40374616 -26.13173288 96.08267164 C-26.23492633 88.11734247 -26.28801266 80.15260584 -26.3044911 72.18663073 C-26.31568427 67.43167879 -26.3486689 62.67925434 -26.43562126 57.92503357 C-26.51649863 53.44570033 -26.53495662 48.97028705 -26.50698662 44.49035263 C-26.50736755 42.85322284 -26.5297367 41.21591564 -26.57658768 39.57945633 C-26.9022639 27.55814602 -26.9022639 27.55814602 -23.7345612 23.2982502 C-20.6745776 20.13856572 -17.23512832 17.6609732 -13.60928357 15.19691944 C-8.2084803 11.18002238 -3.95211449 5.38813124 0 0 Z " fill="#B0B0B0" transform="translate(126,187)"/>
<path d="M0 0 C4.455 0.99 4.455 0.99 9 2 C9.00173625 2.62654439 9.0034725 3.25308877 9.00526136 3.89861935 C9.10824601 41.01669968 9.21634909 78.1347618 9.33111694 115.25280763 C9.34488684 119.70768218 9.35861389 124.16255687 9.37231445 128.61743164 C9.37640691 129.94778319 9.37640691 129.94778319 9.38058204 131.30501053 C9.42468041 145.67348057 9.46530602 160.04195845 9.50465261 174.4104422 C9.54509038 189.14923008 9.58924994 203.88800342 9.63687855 218.62676984 C9.66616008 227.72442847 9.69252404 236.82208602 9.71517897 245.9197636 C9.7309833 252.15482863 9.75039639 258.38987585 9.77266841 264.62492111 C9.78541892 268.22443823 9.79655804 271.82394169 9.80341911 275.42347527 C9.81089445 279.3234948 9.82595852 283.22346377 9.84178162 287.12345886 C9.84324878 288.83503002 9.84324878 288.83503002 9.84474558 290.58117837 C9.85022002 291.6257021 9.85569446 292.67022582 9.8613348 293.74640179 C9.86399284 294.64671869 9.86665089 295.54703559 9.86938947 296.47463483 C10.00354613 299.06856466 10.42750018 301.46960165 11 304 C8.23015421 301.47101037 7.09232202 299.59587746 6.86938947 295.74226791 C6.86673143 294.85030485 6.86407339 293.9583418 6.8613348 293.03934956 C6.85586036 292.00925811 6.85038591 290.97916667 6.84474558 289.91786033 C6.84376747 288.78266005 6.84278936 287.64745978 6.84178162 286.4778595 C6.83684364 285.27473183 6.83190566 284.07160416 6.82681805 282.83201808 C6.81408819 279.48672436 6.80581415 276.14147245 6.79939139 272.79616416 C6.79139421 269.19085407 6.77769408 265.58556521 6.76467896 261.98027039 C6.74290653 255.73192318 6.72476484 249.48357384 6.70907402 243.23520851 C6.68638237 234.20106962 6.65823857 225.16695421 6.62875474 216.13283523 C6.58107018 201.47634388 6.53780834 186.81984293 6.49731445 172.16333008 C6.45796392 157.92406467 6.41653876 143.68480779 6.37231445 129.44555664 C6.36959018 128.56816811 6.36686591 127.69077958 6.36405908 126.78680352 C6.35037968 122.38529837 6.33665939 117.98379335 6.32291877 113.58228838 C6.20894042 77.05487664 6.10213407 40.52744669 6 4 C4.02 3.01 2.04 2.02 0 1 C0 0.67 0 0.34 0 0 Z " fill="#9C9C9C" transform="translate(31,195)"/>
<path d="M0 0 C2.65838529 1.33183518 4.96847387 2.81926573 7 5 C7.6953125 7.171875 7.6953125 7.171875 8 9 C7.21625 8.175 6.4325 7.35 5.625 6.5 C2.01672329 3.47453283 -1.08022438 3.45518884 -5.66015625 3.703125 C-8.42612536 4.05406599 -10.59205036 4.5702799 -13 6 C-15.37435663 9.56153494 -15.29946219 12.09743964 -15.30297852 16.20947266 C-15.31141785 16.93982224 -15.31985718 17.67017181 -15.32855225 18.4226532 C-15.35434139 20.83646287 -15.36647111 23.25015034 -15.37890625 25.6640625 C-15.39507673 27.33890761 -15.41225625 29.01374327 -15.43040466 30.68856812 C-15.47610897 35.09728637 -15.51090937 39.50601712 -15.54260254 43.91485596 C-15.59446961 50.979437 -15.65945631 58.0438795 -15.73081779 65.10828781 C-15.7537228 67.58175164 -15.76994563 70.05519765 -15.78553772 72.52871704 C-15.7989385 74.03558552 -15.81255278 75.54245211 -15.82641602 77.04931641 C-15.83033607 78.08881187 -15.83033607 78.08881187 -15.83433533 79.14930725 C-15.88636292 83.88636292 -15.88636292 83.88636292 -17 85 C-18.41570123 85.08651611 -19.835595 85.10704904 -21.25390625 85.09765625 C-22.10791016 85.09443359 -22.96191406 85.09121094 -23.84179688 85.08789062 C-24.73962891 85.07951172 -25.63746094 85.07113281 -26.5625 85.0625 C-27.46419922 85.05798828 -28.36589844 85.05347656 -29.29492188 85.04882812 C-31.53001314 85.03700225 -33.76497437 85.0205222 -36 85 C-36.00808685 84.07149734 -36.01617371 83.14299469 -36.02450562 82.18635559 C-36.10247957 73.43168806 -36.18977887 64.67717371 -36.28752708 55.92270374 C-36.33745096 51.42205189 -36.38378136 46.92142306 -36.421875 42.4206543 C-36.45877717 38.0763281 -36.50515054 33.73219638 -36.55806351 29.38803673 C-36.57658125 27.73150739 -36.59169888 26.0749364 -36.60334396 24.4183445 C-36.62025138 22.0961584 -36.64929679 19.77441513 -36.68115234 17.45239258 C-36.68331253 16.76906357 -36.68547272 16.08573456 -36.68769836 15.38169861 C-36.7554723 11.50877129 -37.18743986 8.44675704 -39 5 C-41.01735205 3.65589738 -41.01735205 3.65589738 -43 3 C-42.34 2.67 -41.68 2.34 -41 2 C-36.45139397 6.18950556 -34.2098855 9.08992595 -33.75949097 15.33467102 C-33.76393219 16.60264023 -33.76837341 17.87060944 -33.77294922 19.17700195 C-33.77265717 19.87998917 -33.77236511 20.58297638 -33.77206421 21.30726624 C-33.77345123 23.61773262 -33.7889825 25.92787159 -33.8046875 28.23828125 C-33.80841987 29.84539107 -33.81126578 31.45250317 -33.81326294 33.05961609 C-33.82088179 37.2797377 -33.84051517 41.49972061 -33.8626709 45.7197876 C-33.88316707 50.02996952 -33.89227271 54.34017396 -33.90234375 58.65039062 C-33.92376281 67.10033101 -33.95893062 75.55013225 -34 84 C-28.72 84 -23.44 84 -18 84 C-18.02618408 81.79497803 -18.05236816 79.58995605 -18.0793457 77.31811523 C-18.16233851 70.01802624 -18.21748085 62.71791594 -18.25906086 55.41747952 C-18.2851116 50.99282738 -18.32042601 46.56866018 -18.37719727 42.14428711 C-18.43167987 37.87134626 -18.46145454 33.5988707 -18.47438622 29.32560921 C-18.4835971 27.69853456 -18.50158422 26.07148427 -18.52865028 24.44460869 C-18.75776172 10.09761241 -18.75776172 10.09761241 -15.64916992 5.56665039 C-10.85357892 0.92043822 -6.71597647 -0.94259319 0 0 Z " fill="#868686" transform="translate(106,15)"/>
<path d="M0 0 C0.66 0.33 1.32 0.66 2 1 C0.04480616 2.17192047 -1.9142539 3.3373929 -3.875 4.5 C-4.96554688 5.1496875 -6.05609375 5.799375 -7.1796875 6.46875 C-10 8 -10 8 -12 8 C-11.99772168 8.93232951 -11.99772168 8.93232951 -11.99539733 9.88349396 C-11.9058946 46.71774332 -11.83725862 83.5519766 -11.79573868 120.38631243 C-11.79073583 124.80856719 -11.78555854 129.23082174 -11.78027344 133.65307617 C-11.7792242 134.53347136 -11.77817495 135.41386654 -11.77709392 136.32094037 C-11.75968635 150.57816976 -11.72814671 164.83533466 -11.69138882 179.09252579 C-11.6539892 193.72056609 -11.63176622 208.34857261 -11.62364602 222.97665876 C-11.61815621 232.00376522 -11.60081409 241.03068942 -11.56833413 250.05773979 C-11.54719833 256.24703972 -11.54079783 262.43624536 -11.54599449 268.62557877 C-11.54855775 272.19711595 -11.54461496 275.76833453 -11.5231781 279.33981514 C-11.50010051 283.21295387 -11.50804759 287.08567756 -11.51898193 290.95887756 C-11.50733057 292.08631742 -11.4956792 293.21375728 -11.48367476 294.37536198 C-11.5408527 301.85296103 -12.64072456 306.28080219 -17.75 311.9375 C-18.1625 312.288125 -18.575 312.63875 -19 313 C-19.66 312.67 -20.32 312.34 -21 312 C-20.57847656 311.54109375 -20.15695313 311.0821875 -19.72265625 310.609375 C-19.17480469 309.99578125 -18.62695312 309.3821875 -18.0625 308.75 C-17.51722656 308.14671875 -16.97195312 307.5434375 -16.41015625 306.921875 C-13.8977499 303.4977644 -13.87505738 300.07464437 -13.87530136 295.92468166 C-13.87171494 294.37933307 -13.87171494 294.37933307 -13.86805606 292.80276531 C-13.87048855 291.67252424 -13.87292104 290.54228316 -13.87542725 289.37779236 C-13.8740171 288.17592696 -13.87260695 286.97406157 -13.87115407 285.73577601 C-13.86876311 283.09555142 -13.86820271 280.45539931 -13.87071037 277.81518173 C-13.87477 273.51961858 -13.87200107 269.22407516 -13.86836243 264.92851257 C-13.86427205 259.50115884 -13.8620328 254.07380951 -13.86194643 248.64645422 C-13.86174379 237.98641511 -13.84928968 227.32642151 -13.83233643 216.66639709 C-13.82973066 214.98876142 -13.82713185 213.31112573 -13.8245399 211.63349003 C-13.82060154 209.0910799 -13.81665502 206.54866979 -13.81267868 204.00625972 C-13.79773317 194.42173678 -13.78410737 184.83721246 -13.77197266 175.25268555 C-13.7708591 174.37649374 -13.76974553 173.50030194 -13.76859823 172.59755886 C-13.7510083 158.38640825 -13.74815519 144.17528609 -13.74982306 129.9641264 C-13.75110071 115.38112624 -13.73340383 100.7982323 -13.69880509 86.21527296 C-13.67812075 77.21552711 -13.6728434 68.21603527 -13.6871334 59.21627582 C-13.69557257 53.05361479 -13.68591353 46.89115187 -13.6618239 40.72853272 C-13.64847606 37.16958081 -13.64339572 33.61110363 -13.65994453 30.05215454 C-13.67766134 26.19958216 -13.65706142 22.34777189 -13.63250732 18.495224 C-13.6438627 17.3627522 -13.65521808 16.23028041 -13.66691756 15.06349128 C-13.63221931 12.2825721 -13.57397509 9.72088282 -13 7 C-10.59596634 4.85674381 -10.59596634 4.85674381 -8 4 C-6.92685547 3.40445313 -6.92685547 3.40445313 -5.83203125 2.796875 C-5.16558594 2.45140625 -4.49914062 2.1059375 -3.8125 1.75 C-3.13832031 1.39421875 -2.46414062 1.0384375 -1.76953125 0.671875 C-1.18558594 0.45015625 -0.60164063 0.2284375 0 0 Z " fill="#818181" transform="translate(89,191)"/>
<path d="M0 0 C0.66302124 0.00027191 1.32604248 0.00054382 2.00915527 0.00082397 C11.96897376 0.01958607 21.48791908 0.49468109 31.3125 2.1875 C32.93971627 2.43356849 34.56734891 2.676894 36.1953125 2.91796875 C37.85961611 3.1729101 39.52368405 3.42939522 41.1875 3.6875 C41.96834961 3.80585205 42.74919922 3.9242041 43.55371094 4.04614258 C49.0805713 4.9555713 49.0805713 4.9555713 51.3125 7.1875 C50.71606689 7.12691406 50.11963379 7.06632812 49.50512695 7.00390625 C44.97761459 6.54715847 40.44942586 6.10342686 35.91796875 5.6875 C35.02529297 5.605 34.13261719 5.5225 33.21289062 5.4375 C31.38492922 5.26904855 29.5567991 5.10241916 27.72851562 4.9375 C26.84228516 4.855 25.95605469 4.7725 25.04296875 4.6875 C24.25301514 4.6153125 23.46306152 4.543125 22.64916992 4.46875 C20.3125 4.1875 20.3125 4.1875 17.99560547 3.66894531 C14.54528048 3.04983331 11.14609649 3.00627001 7.65234375 2.984375 C6.91386703 2.97754196 6.17539032 2.97070892 5.41453552 2.96366882 C3.02631055 2.94659879 0.63828246 2.94033786 -1.75 2.9375 C-2.5609613 2.93549591 -3.37192261 2.93349182 -4.2074585 2.931427 C-15.88549275 2.92433959 -27.08635125 3.54520483 -38.56738281 5.82373047 C-42.57895055 6.51203493 -46.6346308 6.83678099 -50.6875 7.1875 C-47.7620958 5.23723053 -46.32596734 4.75771708 -42.96875 4.15234375 C-42.03546875 3.98283203 -41.1021875 3.81332031 -40.140625 3.63867188 C-39.16609375 3.46916016 -38.1915625 3.29964844 -37.1875 3.125 C-36.24390625 2.95162109 -35.3003125 2.77824219 -34.328125 2.59960938 C-22.86819156 0.55654747 -11.63271937 -0.00808032 0 0 Z " fill="#909090" transform="translate(272.6875,45.8125)"/>
<path d="M0 0 C0 0.33 0 0.66 0 1 C-0.60328125 1.04898437 -1.2065625 1.09796875 -1.828125 1.1484375 C-3.02695312 1.26058594 -3.02695312 1.26058594 -4.25 1.375 C-5.43335938 1.47941406 -5.43335938 1.47941406 -6.640625 1.5859375 C-9.085877 2.01507113 -10.84836903 2.78600638 -13 4 C-13 4.66 -13 5.32 -13 6 C-13.66 6 -14.32 6 -15 6 C-14.67 6.99 -14.34 7.98 -14 9 C-14.33 9.33 -14.66 9.66 -15 10 C-15.09616807 11.68291696 -15.12187691 13.36989561 -15.12025452 15.05555725 C-15.12162918 16.15077194 -15.12300385 17.24598663 -15.12442017 18.37438965 C-15.12082489 19.58639038 -15.11722961 20.79839111 -15.11352539 22.04711914 C-15.11367142 23.31522934 -15.11381744 24.58333954 -15.1139679 25.88987732 C-15.11425585 29.37732422 -15.10835945 32.86473701 -15.10139394 36.35217595 C-15.09516007 39.99303723 -15.09455658 43.63389922 -15.09336853 47.27476501 C-15.09025531 54.17376972 -15.08204205 61.07275865 -15.07201904 67.9717564 C-15.06085761 75.82410685 -15.05534738 83.67645803 -15.05032361 91.52881444 C-15.03985943 107.68588553 -15.02226017 123.84294076 -15 140 C-15.33 140 -15.66 140 -16 140 C-16.80937579 136.44140478 -17.13245606 133.14360593 -17.15390015 129.49707031 C-17.16250061 128.40358276 -17.17110107 127.31009521 -17.17996216 126.18347168 C-17.18422211 124.99370728 -17.18848206 123.80394287 -17.19287109 122.578125 C-17.20104858 121.31746216 -17.20922607 120.05679932 -17.21765137 118.75793457 C-17.24376501 114.58864451 -17.25916073 110.4193449 -17.2734375 106.25 C-17.27880014 104.81221511 -17.28417765 103.37443028 -17.28956985 101.93664551 C-17.31117616 95.95734526 -17.3299144 89.97804761 -17.34119225 83.99871826 C-17.35744781 75.43833625 -17.39068957 66.87840678 -17.44759309 58.31819534 C-17.48628119 52.29258848 -17.5058231 46.26710278 -17.51111281 40.24137497 C-17.51476571 36.64447512 -17.52678069 33.04805915 -17.55921555 29.45129395 C-17.59486432 25.44121272 -17.59092838 21.43210776 -17.58349609 17.421875 C-17.59990143 16.2321106 -17.61630676 15.04234619 -17.63320923 13.81652832 C-17.56509744 4.86304446 -17.56509744 4.86304446 -14.61196899 1.77832031 C-9.5969937 -1.63605116 -5.85082617 -1.03249874 0 0 Z " fill="#DDDDDD" transform="translate(18,17)"/>
<path d="M0 0 C5.33333333 2.66666667 10.66666667 5.33333333 16 8 C16.23253482 20.29191689 16.40980264 32.58330374 16.51812172 44.87697887 C16.57013228 50.58666814 16.64058114 56.29484383 16.75439453 62.00366211 C16.86370438 67.52163185 16.92297726 73.03815364 16.94877243 78.55712318 C16.96713445 80.6538807 17.00299208 82.75056617 17.05730057 84.84670067 C17.36238513 97.11921348 16.99109951 105.28191987 8.44613647 114.54853821 C7.63891144 115.3575206 6.8316864 116.16650299 6 117 C4.97522911 118.31439051 3.96343796 119.64001284 3 121 C2.34 120.67 1.68 120.34 1 120 C1.38716029 119.57046839 1.77432058 119.14093678 2.17321301 118.69838905 C13.30030599 105.97689473 15.85597739 96.52194597 15.26953125 79.8984375 C15.24521198 77.83914059 15.22674141 75.77976722 15.21379089 73.72036743 C15.16471677 68.36229915 15.03754838 63.00898931 14.89263916 57.652771 C14.75840346 52.16239778 14.70001712 46.67123705 14.63476562 41.1796875 C14.49634521 30.45106137 14.27519739 19.72592989 14 9 C13.37351562 8.86722656 12.74703125 8.73445313 12.1015625 8.59765625 C11.28429687 8.42105469 10.46703125 8.24445313 9.625 8.0625 C8.81289063 7.88847656 8.00078125 7.71445312 7.1640625 7.53515625 C5 7 5 7 3 6 C1.95191959 4.02477154 0.9479589 2.02518491 0 0 Z " fill="#818181" transform="translate(434,273)"/>
<path d="M0 0 C0.66 0 1.32 0 2 0 C3.43969458 3.0197921 4.87635087 6.04102035 6.3125 9.0625 C6.71662109 9.91005859 7.12074219 10.75761719 7.53710938 11.63085938 C11.22142449 19.38888877 14.30825606 26.54128031 16 35 C16.99 29.06 17.98 23.12 19 17 C19.33 17 19.66 17 20 17 C19.85823579 19.70860124 19.71171784 22.41680752 19.5625 25.125 C19.52318359 25.88554687 19.48386719 26.64609375 19.44335938 27.4296875 C19.20490998 31.68509203 18.79769763 35.80370826 18 40 C16.68 39.67 15.36 39.34 14 39 C13.74476563 37.89205078 13.74476563 37.89205078 13.484375 36.76171875 C10.92284369 26.03871269 7.38575102 16.34654767 2.28613281 6.59423828 C0 2.19524008 0 2.19524008 0 0 Z " fill="#909090" transform="translate(403,184)"/>
<path d="M0 0 C0.33 0 0.66 0 1 0 C0.93941406 0.97195312 0.87882812 1.94390625 0.81640625 2.9453125 C0.58337619 6.7377716 0.36728296 10.5310748 0.15429688 14.32470703 C0.04833726 16.16189925 -0.06260829 17.99880862 -0.17773438 19.83544922 C-0.35923842 22.74390517 -0.5244927 25.65295485 -0.6875 28.5625 C-0.77825806 29.93462646 -0.77825806 29.93462646 -0.87084961 31.33447266 C-1.20382798 37.64432616 -1.13190012 43.53727739 2.2890625 49.09375 C2.72992188 49.5578125 3.17078125 50.021875 3.625 50.5 C4.40875 51.325 5.1925 52.15 6 53 C1.61454777 51.27714377 -0.78850194 48.44340316 -2.86962891 44.24609375 C-4.89766389 39.31000369 -5.19680202 35.40552828 -4.3125 30.125 C-4.10029204 28.64601506 -3.88940184 27.16684058 -3.6796875 25.6875 C-3.50904785 24.54474609 -3.50904785 24.54474609 -3.33496094 23.37890625 C-2.65309341 18.53625522 -2.1988013 13.66541452 -1.69848633 8.80126953 C-1.36591763 5.71467057 -0.98521696 2.95565089 0 0 Z " fill="#959595" transform="translate(447,203)"/>
<path d="M0 0 C3.83039408 1.27679803 3.98757415 2.59435626 6 6 C7.62836738 7.7041054 9.28769752 9.38025441 11 11 C10.67 11.66 10.34 12.32 10 13 C7.69 11.35 5.38 9.7 3 8 C0.67975766 10.32024234 0.61246727 11.18772315 0.1484375 14.3515625 C0.01953125 15.20234375 -0.109375 16.053125 -0.2421875 16.9296875 C-0.36851562 17.81914062 -0.49484375 18.70859375 -0.625 19.625 C-0.7590625 20.5221875 -0.893125 21.419375 -1.03125 22.34375 C-1.3615559 24.56151817 -1.6841425 26.78013575 -2 29 C-2.33 29 -2.66 29 -3 29 C-2.8598002 25.64557336 -2.71181572 22.29153225 -2.5625 18.9375 C-2.52318359 17.99455078 -2.48386719 17.05160156 -2.44335938 16.08007812 C-1.79636177 1.79636177 -1.79636177 1.79636177 0 0 Z " fill="#808080" transform="translate(423,260)"/>
<path d="M0 0 C0 3 0 3 -1 5 C-1.27602713 7.3966165 -1.44523586 9.79333314 -1.62109375 12.19921875 C-2 15 -2 15 -2.97265625 18.21484375 C-4.43156018 23.59004493 -4.76601924 28.96323943 -5.2109375 34.5 C-5.28570312 35.32242188 -5.36046875 36.14484375 -5.4375 36.9921875 C-5.52837891 38.11149658 -5.52837891 38.11149658 -5.62109375 39.25341797 C-5.74613281 39.82979004 -5.87117188 40.40616211 -6 41 C-6.99 41.495 -6.99 41.495 -8 42 C-7.68926999 32.83882208 -7.18183482 23.79451683 -5.625 14.75 C-5.51115967 14.06043213 -5.39731934 13.37086426 -5.2800293 12.66040039 C-4.45835965 8.19575779 -3.31640936 3.31640936 0 0 Z " fill="#959595" transform="translate(476,12)"/>
<path d="M0 0 C0.33 0.66 0.66 1.32 1 2 C0.09091598 3.78320326 -0.8228814 5.5640909 -1.75390625 7.3359375 C-5.97942142 16.36979753 -8.53781327 26.37144866 -11 36 C-11.33 36 -11.66 36 -12 36 C-11.06743635 26.20808167 -9.33388851 17.87117251 -5 9 C-4.63261719 8.23816406 -4.26523438 7.47632813 -3.88671875 6.69140625 C-1.18990385 1.18990385 -1.18990385 1.18990385 0 0 Z " fill="#8E8E8E" transform="translate(138,191)"/>
<path d="M0 0 C6.75 1.875 6.75 1.875 9 3 C9 3.66 9 4.32 9 5 C10.21042969 5.36738281 10.21042969 5.36738281 11.4453125 5.7421875 C15.73849149 7.26131237 19.77266742 9.15727098 23.875 11.125 C24.65875 11.49753906 25.4425 11.87007813 26.25 12.25390625 C28.16813499 13.16618997 30.08427329 14.08266984 32 15 C28.34755612 16.21748129 27.75881313 15.70924601 24.39453125 14.0859375 C23.49283203 13.65410156 22.59113281 13.22226562 21.66210938 12.77734375 C20.72173828 12.31457031 19.78136719 11.85179687 18.8125 11.375 C17.89146484 10.93542969 16.97042969 10.49585938 16.02148438 10.04296875 C10.50508732 7.37286031 4.96127343 4.63054513 0 1 C0 0.67 0 0.34 0 0 Z " fill="#8C8C8C" transform="translate(162,439)"/>
<path d="M0 0 C0.33 0 0.66 0 1 0 C0.85823579 2.70860124 0.71171784 5.41680752 0.5625 8.125 C0.50352539 9.26582031 0.50352539 9.26582031 0.44335938 10.4296875 C0.20490998 14.68509203 -0.20230237 18.80370826 -1 23 C-2.32 22.67 -3.64 22.34 -5 22 C-5.33 18.7 -5.66 15.4 -6 12 C-4 14 -4 14 -3 18 C-2.01 12.06 -1.02 6.12 0 0 Z " fill="#878787" transform="translate(422,201)"/>
<path d="M0 0 C2.89195977 1.29639576 5.01553477 2.50540388 7 5 C8.14796346 12.30746634 6.54684001 19.859676 5 27 C4.67 27 4.34 27 4 27 C4.01571045 26.37955811 4.0314209 25.75911621 4.04760742 25.11987305 C4.10996214 22.30917472 4.14899148 19.49862188 4.1875 16.6875 C4.21263672 15.71103516 4.23777344 14.73457031 4.26367188 13.72851562 C4.27333984 12.79072266 4.28300781 11.85292969 4.29296875 10.88671875 C4.3086792 10.02264404 4.32438965 9.15856934 4.34057617 8.26831055 C3.92501792 5.50060321 3.0401236 4.82595094 1 3 C0.67 2.01 0.34 1.02 0 0 Z " fill="#7F7F7F" transform="translate(427,114)"/>
<path d="M0 0 C-1.33333333 0.66666667 -2.66666667 1.33333333 -4 2 C-4.639375 2.33 -5.27875 2.66 -5.9375 3 C-12.12533306 6.00016148 -18.20795297 7.12657263 -25 8 C-24 6 -24 6 -22.22167969 5.22216797 C-21.46274414 4.98127441 -20.70380859 4.74038086 -19.921875 4.4921875 C-19.09042969 4.22792969 -18.25898438 3.96367188 -17.40234375 3.69140625 C-16.52707031 3.42199219 -15.65179688 3.15257812 -14.75 2.875 C-13.89019531 2.59785156 -13.03039062 2.32070313 -12.14453125 2.03515625 C-7.9259585 0.71563349 -4.45605247 -0.15640449 0 0 Z " fill="#8D8D8D" transform="translate(222,53)"/>
<path d="M0 0 C0 0.33 0 0.66 0 1 C-0.60328125 1.04898437 -1.2065625 1.09796875 -1.828125 1.1484375 C-3.02695312 1.26058594 -3.02695312 1.26058594 -4.25 1.375 C-5.43335938 1.47941406 -5.43335938 1.47941406 -6.640625 1.5859375 C-9.085877 2.01507113 -10.84836903 2.78600638 -13 4 C-13 4.66 -13 5.32 -13 6 C-13.99 6 -14.98 6 -16 6 C-16.33 6.66 -16.66 7.32 -17 8 C-16.45650964 4.19556745 -14.96915847 2.3918221 -12 0 C-7.86412477 -1.45314535 -4.25486795 -0.75085905 0 0 Z " fill="#B9B9B9" transform="translate(18,17)"/>
<path d="M0 0 C1.09699219 0.08378906 2.19398438 0.16757812 3.32421875 0.25390625 C4.77862096 0.35712189 6.23304951 0.45996694 7.6875 0.5625 C8.40873047 0.61857422 9.12996094 0.67464844 9.87304688 0.73242188 C13.77314064 0.99955159 17.21111028 1.00887596 21 0 C21 0.66 21 1.32 21 2 C14.52532852 4.15822383 9.02655589 5.29709538 2.5 2.5 C1.675 2.005 0.85 1.51 0 1 C0 0.67 0 0.34 0 0 Z " fill="#949494" transform="translate(483,504)"/>
<path d="M0 0 C4.2026393 2.63886654 7.56638098 5.36440339 11 9 C10.67 9.66 10.34 10.32 10 11 C7.69 9.35 5.38 7.7 3 6 C2.01 6.66 1.02 7.32 0 8 C0 5.36 0 2.72 0 0 Z " fill="#B3B3B3" transform="translate(423,262)"/>
<path d="M0 0 C0 3 0 3 -1.86328125 5.15625 C-2.67152344 5.9296875 -3.47976563 6.703125 -4.3125 7.5 C-5.11300781 8.2734375 -5.91351563 9.046875 -6.73828125 9.84375 C-7.48464844 10.5553125 -8.23101562 11.266875 -9 12 C-9.81984375 12.86044922 -9.81984375 12.86044922 -10.65625 13.73828125 C-12.33538416 15.31491013 -13.75998092 15.61378981 -16 16 C-10.66666667 10.66666667 -5.33333333 5.33333333 0 0 Z " fill="#E9E9E9" transform="translate(383,361)"/>
<path d="M0 0 C0.81210937 0.41378906 0.81210937 0.41378906 1.640625 0.8359375 C4.31904312 2.15740869 7.02885041 3.39400376 9.75 4.625 C11.22726562 5.29402344 11.22726562 5.29402344 12.734375 5.9765625 C13.85585938 6.48316406 13.85585938 6.48316406 15 7 C10.70272603 8.30660357 7.39784135 7.6596762 3 7 C2.690625 6.21625 2.38125 5.4325 2.0625 4.625 C1.07124962 2.07669872 1.07124962 2.07669872 0 0 Z " fill="#9E9E9E" transform="translate(434,273)"/>
<path d="M0 0 C3.16305105 2.65810615 4.54145622 5.85097893 6.25 9.5625 C6.79140625 10.71878906 7.3328125 11.87507813 7.890625 13.06640625 C8.25671875 14.03449219 8.6228125 15.00257813 9 16 C8.67 16.66 8.34 17.32 8 18 C6.65590238 15.75583701 5.32470104 13.50557204 4 11.25 C3.6184375 10.61578125 3.236875 9.9815625 2.84375 9.328125 C0.82084348 5.86028524 0 4.10651746 0 0 Z " fill="#8A8A8A" transform="translate(134,316)"/>
<path d="M0 0 C0.66 0.33 1.32 0.66 2 1 C0.07010782 2.19982444 -1.86919228 3.38452818 -3.8125 4.5625 C-5.43091797 5.55443359 -5.43091797 5.55443359 -7.08203125 6.56640625 C-10 8 -10 8 -13 7 C-10.00116548 5.12572843 -6.9431502 3.3923083 -3.8125 1.75 C-2.80123047 1.21632812 -2.80123047 1.21632812 -1.76953125 0.671875 C-1.18558594 0.45015625 -0.60164063 0.2284375 0 0 Z " fill="#8C8C8C" transform="translate(89,191)"/>
<path d="M0 0 C3.34861059 1.38563197 5.29014301 2.76027096 7 6 C6.6875 9.25 6.6875 9.25 6 12 C5.67 12 5.34 12 5 12 C4.896875 11.071875 4.79375 10.14375 4.6875 9.1875 C3.96755671 5.8495811 3.45546562 5.14853242 1 3 C0.67 2.01 0.34 1.02 0 0 Z " fill="#A1A1A1" transform="translate(427,114)"/>
<path d="M0 0 C2.72869407 0.03287583 5.2966618 0.56397771 8 1 C7.01 1.495 7.01 1.495 6 2 C6 2.66 6 3.32 6 4 C5.34 4 4.68 4 4 4 C4 3.34 4 2.68 4 2 C2.02 2 0.04 2 -2 2 C-1.34 1.34 -0.68 0.68 0 0 Z " fill="#D8D8D8" transform="translate(55,16)"/>
<path d="" fill="#8E8E8E" transform="translate(0,0)"/>
<path d="" fill="#7F7F7F" transform="translate(0,0)"/>
<path d="" fill="#7E7E7E" transform="translate(0,0)"/>
</svg>
