<?xml version="1.0" encoding="UTF-8"?>
<svg version="1.1" xmlns="http://www.w3.org/2000/svg" width="512" height="512">
<path d="M0 0 C1.22847656 -0.00257812 2.45695313 -0.00515625 3.72265625 -0.0078125 C8.13407975 0.17443343 9.97739267 1.04155487 12.9375 4.125 C13.9275 4.785 14.9175 5.445 15.9375 6.125 C18.9375 14.125 18.9375 14.125 18.9375 39.125 C75.0375 39.125 131.1375 39.125 188.9375 39.125 C188.9375 30.875 188.9375 22.625 188.9375 14.125 C192.2255 5.357 192.2255 5.357 196.9375 3.125 C197.2675 2.465 197.5975 1.805 197.9375 1.125 C201.43845311 -0.04198437 204.2497232 -0.00768287 207.9375 0 C209.79375 -0.00386719 209.79375 -0.00386719 211.6875 -0.0078125 C214.9375 0.125 214.9375 0.125 217.9375 1.125 C217.9375 1.785 217.9375 2.445 217.9375 3.125 C218.700625 3.3725 219.46375 3.62 220.25 3.875 C223.19830945 5.24630672 224.29584532 6.3601079 225.9375 9.125 C225.9375 9.785 225.9375 10.445 225.9375 11.125 C226.5975 11.125 227.2575 11.125 227.9375 11.125 C228.9196994 14.40126375 229.05330914 17.35288119 229.03515625 20.765625 C229.03193359 21.83554687 229.02871094 22.90546875 229.02539062 24.0078125 C229.01701172 25.11898438 229.00863281 26.23015625 229 27.375 C228.99548828 28.50164063 228.99097656 29.62828125 228.98632812 30.7890625 C228.97455397 33.56776217 228.9581084 36.34635409 228.9375 39.125 C229.79690186 39.09470703 230.65630371 39.06441406 231.54174805 39.03320312 C260.51032035 38.02768563 260.51032035 38.02768563 273 38 C274.22626099 37.99323242 274.22626099 37.99323242 275.47729492 37.98632812 C280.06493959 37.99797559 284.41152018 38.36766473 288.9375 39.125 C288.9375 39.785 288.9375 40.445 288.9375 41.125 C289.54335938 41.16238281 290.14921875 41.19976562 290.7734375 41.23828125 C297.15611694 41.7390761 302.87966368 43.07564686 308.9375 45.125 C308.9375 45.785 308.9375 46.445 308.9375 47.125 C309.88625 47.434375 310.835 47.74375 311.8125 48.0625 C314.9375 49.125 314.9375 49.125 316.9375 50.125 C316.9375 50.785 316.9375 51.445 316.9375 52.125 C317.494375 52.228125 318.05125 52.33125 318.625 52.4375 C321.4144101 53.26678408 323.5514064 54.46799056 325.9375 56.125 C325.9375 56.785 325.9375 57.445 325.9375 58.125 C326.659375 58.351875 327.38125 58.57875 328.125 58.8125 C333.22609386 61.19301047 336.66216385 65.63657639 339.9375 70.125 C339.9375 70.785 339.9375 71.445 339.9375 72.125 C340.5975 72.125 341.2575 72.125 341.9375 72.125 C344.9375 76.50961538 344.9375 76.50961538 344.9375 79.125 C345.5975 79.125 346.2575 79.125 346.9375 79.125 C347.61158308 80.39191507 348.27650497 81.66370749 348.9375 82.9375 C349.30875 83.64519531 349.68 84.35289063 350.0625 85.08203125 C350.9375 87.125 350.9375 87.125 350.9375 90.125 C351.5975 90.125 352.2575 90.125 352.9375 90.125 C356.38169134 99.53502278 356.38169134 99.53502278 355.9375 104.125 C356.5975 104.125 357.2575 104.125 357.9375 104.125 C359.63175143 112.64658559 360.22411426 120.80057097 360.19146729 129.47715759 C360.19458727 130.76864088 360.19770725 132.06012417 360.20092177 133.39074332 C360.20920242 136.94146659 360.20517547 140.49208114 360.19894934 144.0428046 C360.19439798 147.8854212 360.20142187 151.72801995 360.20690918 155.57063293 C360.21577658 163.08517594 360.21389296 170.59967887 360.2080839 178.11422341 C360.20355661 184.22509903 360.20295911 190.33596347 360.20513153 196.44684029 C360.205438 197.31847516 360.20574446 198.19011004 360.20606022 199.08815809 C360.2066997 200.85919718 360.20734813 202.63023626 360.2080054 204.40127534 C360.21370101 220.98711576 360.20716306 237.57293403 360.19640467 254.15877081 C360.18747143 268.37042535 360.18902082 282.58204722 360.19824219 296.79370117 C360.20896114 313.32096617 360.21315011 329.84821177 360.20701766 346.37547976 C360.2063806 348.14010115 360.20575186 349.90472255 360.20513153 351.66934395 C360.20482298 352.53743368 360.20451443 353.40552342 360.20419653 354.2999189 C360.20247434 360.39841096 360.20537443 366.49689064 360.21009064 372.59538078 C360.21571762 380.034701 360.21414503 387.47397906 360.20352915 394.91329449 C360.19829657 398.7042858 360.19617419 402.49520697 360.20282745 406.28619766 C360.20994832 410.40614495 360.20140828 414.5259173 360.19146729 418.64585876 C360.19592873 419.82934605 360.20039017 421.01283334 360.20498681 422.23218387 C360.16868229 430.02307101 359.32362459 437.46013936 357.9375 445.125 C357.2775 445.125 356.6175 445.125 355.9375 445.125 C355.81375 446.32125 355.69 447.5175 355.5625 448.75 C355.11424946 452.40096813 354.23303163 455.67024899 352.9375 459.125 C352.2775 459.125 351.6175 459.125 350.9375 459.125 C350.834375 459.82625 350.73125 460.5275 350.625 461.25 C349.84390997 464.51637647 348.51691257 467.1721852 346.9375 470.125 C346.2775 470.125 345.6175 470.125 344.9375 470.125 C344.628125 470.90875 344.31875 471.6925 344 472.5 C342.9375 475.125 342.9375 475.125 341.9375 477.125 C341.2775 477.125 340.6175 477.125 339.9375 477.125 C339.67582031 477.69992187 339.41414063 478.27484375 339.14453125 478.8671875 C336.55933296 483.70293059 332.89854039 488.12361768 328 490.625 C327.319375 490.79 326.63875 490.955 325.9375 491.125 C325.9375 491.785 325.9375 492.445 325.9375 493.125 C320.64338235 497.125 320.64338235 497.125 316.9375 497.125 C316.9375 497.785 316.9375 498.445 316.9375 499.125 C311.1875 502.125 311.1875 502.125 308.9375 502.125 C308.9375 502.785 308.9375 503.445 308.9375 504.125 C306.54362843 504.79949966 304.14780779 505.46476641 301.75 506.125 C300.73969727 506.41117187 300.73969727 506.41117187 299.70898438 506.703125 C296.03194844 507.7075836 292.7524818 508.36204741 288.9375 508.125 C288.9375 508.785 288.9375 509.445 288.9375 510.125 C284.42734286 510.84102449 280.10095851 511.2501517 275.53593445 511.25084114 C274.28622518 511.25344889 273.0365159 511.25605664 271.74893665 511.25874341 C270.37518614 511.2565817 269.00143577 511.25432506 267.62768555 511.25198364 C266.15820369 511.25313651 264.68872211 511.25472515 263.21924114 511.25671089 C259.18960276 511.26088143 255.1599881 511.25882378 251.13034964 511.25572467 C246.78128493 511.25346154 242.4322243 511.25695474 238.0831604 511.25970459 C229.56664256 511.26415147 221.05013354 511.26319061 212.53361535 511.26029195 C205.61212101 511.25803368 198.69062913 511.25772724 191.76913452 511.25881577 C190.78407541 511.258969 189.7990163 511.25912223 188.78410691 511.25928011 C186.78298577 511.25959983 184.78186462 511.25992405 182.78074348 511.2602527 C164.01571263 511.26310432 145.25068667 511.25982544 126.48565662 511.25445233 C110.38398999 511.24998458 94.28233056 511.2507606 78.18066406 511.25537109 C59.48282789 511.26072245 40.78499599 511.26282966 22.08715916 511.25975883 C20.0933946 511.25944028 18.09963004 511.25912591 16.10586548 511.25881577 C15.12489212 511.25866149 14.14391877 511.25850721 13.13321894 511.25834826 C6.21994562 511.2574848 -0.69332499 511.25894233 -7.6065979 511.26129532 C-16.03141153 511.26409974 -24.45621585 511.26334146 -32.88102841 511.25801457 C-37.17956508 511.25538626 -41.47808622 511.25435781 -45.77662277 511.25766373 C-49.71195336 511.26064454 -53.64725401 511.25900406 -57.58258188 511.25368617 C-59.00577146 511.25256963 -60.42896356 511.25313629 -61.85215151 511.25556196 C-63.78841073 511.25860882 -65.72467705 511.2548815 -67.66093445 511.25084114 C-68.7359254 511.25067879 -69.81091635 511.25051644 -70.91848278 511.25034916 C-74.35301616 511.11341738 -77.66967324 510.66363912 -81.0625 510.125 C-81.0625 509.465 -81.0625 508.805 -81.0625 508.125 C-81.6915625 508.08761719 -82.320625 508.05023438 -82.96875 508.01171875 C-88.87301149 507.55822879 -93.61500146 506.44523086 -99.0625 504.125 C-99.0625 503.465 -99.0625 502.805 -99.0625 502.125 C-99.97 502.00125 -100.8775 501.8775 -101.8125 501.75 C-104.65220323 501.20390323 -106.58840591 500.55236197 -109.0625 499.125 C-109.0625 498.465 -109.0625 497.805 -109.0625 497.125 C-109.619375 497.021875 -110.17625 496.91875 -110.75 496.8125 C-113.5394101 495.98321592 -115.6764064 494.78200944 -118.0625 493.125 C-118.0625 492.465 -118.0625 491.805 -118.0625 491.125 C-118.784375 490.898125 -119.50625 490.67125 -120.25 490.4375 C-125.35109386 488.05698953 -128.78716385 483.61342361 -132.0625 479.125 C-132.0625 478.465 -132.0625 477.805 -132.0625 477.125 C-132.7225 477.125 -133.3825 477.125 -134.0625 477.125 C-137.0625 472.74038462 -137.0625 472.74038462 -137.0625 470.125 C-137.7225 470.125 -138.3825 470.125 -139.0625 470.125 C-139.73658308 468.85808493 -140.40150497 467.58629251 -141.0625 466.3125 C-141.43375 465.60480469 -141.805 464.89710938 -142.1875 464.16796875 C-143.0625 462.125 -143.0625 462.125 -143.0625 459.125 C-143.7225 459.125 -144.3825 459.125 -145.0625 459.125 C-148.50669134 449.71497722 -148.50669134 449.71497722 -148.0625 445.125 C-148.7225 445.125 -149.3825 445.125 -150.0625 445.125 C-151.67105677 436.23015491 -152.35050988 427.67634009 -152.31646729 418.64585876 C-152.31958727 417.35281549 -152.32270725 416.05977221 -152.32592177 414.7275458 C-152.33419201 411.17715118 -152.33018035 407.6268655 -152.32394934 404.07647073 C-152.31939371 400.23252753 -152.32642389 396.38860207 -152.33190918 392.54466248 C-152.34077158 385.02992367 -152.33889535 377.51522497 -152.3330839 370.00048464 C-152.32855529 363.89010108 -152.32795968 357.77972871 -152.33013153 351.66934395 C-152.330438 350.79755584 -152.33074446 349.92576773 -152.33106022 349.0275618 C-152.33169971 347.25619852 -152.33234813 345.48483524 -152.3330054 343.71347196 C-152.33869937 327.12956499 -152.33216529 310.54568019 -152.32140467 293.96177686 C-152.31246843 279.74981606 -152.31402361 265.53788794 -152.32324219 251.32592773 C-152.33395861 234.79720016 -152.33815179 218.26849197 -152.33201766 201.73976141 C-152.3313806 199.97545437 -152.33075186 198.21114733 -152.33013153 196.44684029 C-152.32982298 195.57890483 -152.32951443 194.71096937 -152.32919653 193.81673284 C-152.32747382 187.71725843 -152.33037549 181.61779639 -152.33509064 175.5183239 C-152.34071466 168.08009725 -152.33915105 160.64191279 -152.32852915 153.20369094 C-152.32329311 149.41281656 -152.32118022 145.62201238 -152.32782745 141.83113861 C-152.3349389 137.71308451 -152.32641572 133.59520582 -152.31646729 129.47715759 C-152.32092873 128.29143959 -152.32539017 127.10572158 -152.32998681 125.88407272 C-152.29525815 118.44872624 -151.51241872 111.41766406 -150.0625 104.125 C-149.4025 104.125 -148.7425 104.125 -148.0625 104.125 C-147.93875 102.92875 -147.815 101.7325 -147.6875 100.5 C-147.23924946 96.84903187 -146.35803163 93.57975101 -145.0625 90.125 C-144.4025 90.125 -143.7425 90.125 -143.0625 90.125 C-142.959375 89.42375 -142.85625 88.7225 -142.75 88 C-141.96890997 84.73362353 -140.64191257 82.0778148 -139.0625 79.125 C-138.4025 79.125 -137.7425 79.125 -137.0625 79.125 C-136.753125 78.34125 -136.44375 77.5575 -136.125 76.75 C-135.0625 74.125 -135.0625 74.125 -134.0625 72.125 C-133.4025 72.125 -132.7425 72.125 -132.0625 72.125 C-131.835625 71.3825 -131.60875 70.64 -131.375 69.875 C-129.78712601 66.54802592 -128.00240588 65.31283693 -125.0625 63.125 C-123.7321875 61.76375 -123.7321875 61.76375 -122.375 60.375 C-120.0625 58.125 -120.0625 58.125 -118.0625 58.125 C-118.0625 57.465 -118.0625 56.805 -118.0625 56.125 C-112.76838235 52.125 -112.76838235 52.125 -109.0625 52.125 C-109.0625 51.465 -109.0625 50.805 -109.0625 50.125 C-103.3125 47.125 -103.3125 47.125 -101.0625 47.125 C-101.0625 46.465 -101.0625 45.805 -101.0625 45.125 C-98.66862843 44.45050034 -96.27280779 43.78523359 -93.875 43.125 C-93.20146484 42.93421875 -92.52792969 42.7434375 -91.83398438 42.546875 C-88.15694844 41.5424164 -84.8774818 40.88795259 -81.0625 41.125 C-81.0625 40.465 -81.0625 39.805 -81.0625 39.125 C-75.70204134 38.22803082 -70.55493863 37.97003286 -65.125 38 C-63.81656128 38.00290039 -63.81656128 38.00290039 -62.48168945 38.00585938 C-48.67122662 38.0906078 -34.86349223 38.63853023 -21.0625 39.125 C-21.06773682 38.41891602 -21.07297363 37.71283203 -21.07836914 36.98535156 C-21.09917413 33.78191012 -21.11217141 30.5784829 -21.125 27.375 C-21.13337891 26.26382812 -21.14175781 25.15265625 -21.15039062 24.0078125 C-21.15361328 22.93789063 -21.15683594 21.86796875 -21.16015625 20.765625 C-21.16539307 19.78110352 -21.17062988 18.79658203 -21.17602539 17.78222656 C-21.07409103 15.39630486 -20.74553357 13.40335419 -20.0625 11.125 C-19.4025 11.125 -18.7425 11.125 -18.0625 11.125 C-17.7221875 10.0421875 -17.7221875 10.0421875 -17.375 8.9375 C-15.65244269 5.24630577 -13.29625367 1.94556257 -9.33984375 0.4921875 C-6.20974874 -0.01249334 -3.16917458 -0.00666493 0 0 Z M-66.125 80 C-66.93026123 80.07847168 -67.73552246 80.15694336 -68.56518555 80.23779297 C-73.53519482 80.79172918 -78.23532053 81.82094925 -83.0625 83.125 C-83.0625 83.785 -83.0625 84.445 -83.0625 85.125 C-83.805 85.24875 -84.5475 85.3725 -85.3125 85.5 C-87.89180049 86.08620466 -89.8107162 86.75784555 -92.0625 88.125 C-92.3925 88.785 -92.7225 89.445 -93.0625 90.125 C-94.3 90.805625 -94.3 90.805625 -95.5625 91.5 C-98.48867819 93.40201582 -98.34066758 93.92831355 -99.0625 97.125 C-100.0215625 97.5890625 -100.0215625 97.5890625 -101 98.0625 C-103.29191597 98.99000612 -103.29191597 98.99000612 -104.3125 101.5625 C-105.20294938 104.15986851 -105.20294938 104.15986851 -105.0625 107.125 C-105.7225 107.125 -106.3825 107.125 -107.0625 107.125 C-109.75199387 117.37069094 -110.43136082 126.60563576 -110.0625 137.125 C-110.7225 137.125 -111.3825 137.125 -112.0625 137.125 C-112.0625 143.725 -112.0625 150.325 -112.0625 157.125 C30.4975 157.125 173.0575 157.125 319.9375 157.125 C319.9375 150.525 319.9375 143.925 319.9375 137.125 C319.2775 137.125 318.6175 137.125 317.9375 137.125 C317.98970703 135.63613281 317.98970703 135.63613281 318.04296875 134.1171875 C318.26804184 124.64536146 317.35611994 116.33879025 314.9375 107.125 C314.2775 107.125 313.6175 107.125 312.9375 107.125 C312.834375 106.403125 312.73125 105.68125 312.625 104.9375 C311.86956053 101.84706579 310.78218685 99.70756159 308.9375 97.125 C308.2775 97.125 307.6175 97.125 306.9375 97.125 C306.8446875 96.2278125 306.8446875 96.2278125 306.75 95.3125 C305.61315412 92.2517611 303.7247897 91.68860154 300.9375 90.125 C300.2775 89.135 299.6175 88.145 298.9375 87.125 C296.0196948 85.70350516 294.20545703 85.125 290.9375 85.125 C290.9375 84.465 290.9375 83.805 290.9375 83.125 C288.92029062 82.63079924 286.89837639 82.15581192 284.875 81.6875 C283.18697266 81.28724609 283.18697266 81.28724609 281.46484375 80.87890625 C269.36952185 78.57015375 256.76533748 78.99058243 244.5 79.0625 C242.97851713 79.06753426 241.45703261 79.0720937 239.93554688 79.07617188 C236.26945503 79.0861395 232.60360082 79.10573852 228.9375 79.125 C228.6075 88.365 228.2775 97.605 227.9375 107.125 C227.2775 107.125 226.6175 107.125 225.9375 107.125 C225.380625 108.053125 224.82375 108.98125 224.25 109.9375 C221.37573385 113.89932632 219.46652387 114.55726097 214.9375 116.125 C214.9375 116.785 214.9375 117.445 214.9375 118.125 C210.3175 118.125 205.6975 118.125 200.9375 118.125 C200.9375 117.465 200.9375 116.805 200.9375 116.125 C200.39480469 115.9290625 199.85210937 115.733125 199.29296875 115.53125 C198.57753906 115.2321875 197.86210937 114.933125 197.125 114.625 C196.41730469 114.3465625 195.70960938 114.068125 194.98046875 113.78125 C192.9375 112.125 192.9375 112.125 189.9375 104.125 C189.6075 95.875 189.2775 87.625 188.9375 79.125 C132.8375 79.125 76.7375 79.125 18.9375 79.125 C18.6075 87.375 18.2775 95.625 17.9375 104.125 C14.9375 112.125 14.9375 112.125 12.89453125 113.78125 C12.18683594 114.0596875 11.47914063 114.338125 10.75 114.625 C10.03457031 114.9240625 9.31914062 115.223125 8.58203125 115.53125 C7.76798828 115.82515625 7.76798828 115.82515625 6.9375 116.125 C6.9375 116.785 6.9375 117.445 6.9375 118.125 C2.3175 118.125 -2.3025 118.125 -7.0625 118.125 C-7.0625 117.465 -7.0625 116.805 -7.0625 116.125 C-7.60519531 115.89425781 -8.14789063 115.66351563 -8.70703125 115.42578125 C-13.34612072 113.31102515 -15.7109675 111.828065 -18.0625 107.125 C-18.7225 107.125 -19.3825 107.125 -20.0625 107.125 C-20.3925 97.885 -20.7225 88.645 -21.0625 79.125 C-43.61956174 78.74664026 -43.61956174 78.74664026 -66.125 80 Z M-112.0625 196.125 C-112.0625 267.405 -112.0625 338.685 -112.0625 412.125 C-111.4025 412.125 -110.7425 412.125 -110.0625 412.125 C-110.11470703 413.61386719 -110.11470703 413.61386719 -110.16796875 415.1328125 C-110.39304184 424.60463854 -109.48111994 432.91120975 -107.0625 442.125 C-106.4025 442.125 -105.7425 442.125 -105.0625 442.125 C-104.959375 442.846875 -104.85625 443.56875 -104.75 444.3125 C-103.99456053 447.40293421 -102.90718685 449.54243841 -101.0625 452.125 C-100.4025 452.125 -99.7425 452.125 -99.0625 452.125 C-99.000625 452.723125 -98.93875 453.32125 -98.875 453.9375 C-97.73815412 456.9982389 -95.8497897 457.56139846 -93.0625 459.125 C-92.0725 460.61 -92.0725 460.61 -91.0625 462.125 C-88.1446948 463.54649484 -86.33045703 464.125 -83.0625 464.125 C-83.0625 464.785 -83.0625 465.445 -83.0625 466.125 C-81.04529062 466.61920076 -79.02337639 467.09418808 -77 467.5625 C-75.87464844 467.82933594 -74.74929687 468.09617187 -73.58984375 468.37109375 C-62.7822188 470.45367713 -51.36513906 470.27320276 -40.40341187 470.25871277 C-39.11500983 470.26097833 -37.82660779 470.26324388 -36.49916327 470.26557809 C-32.97069249 470.27161897 -29.44224567 470.27157176 -25.91377091 470.27038372 C-22.08946265 470.27017773 -18.26516169 470.27571714 -14.44085693 470.28044128 C-6.96616325 470.28870584 0.50852254 470.29149421 7.98322041 470.29205366 C14.06630269 470.29253081 20.14938238 470.29459542 26.23246384 470.29775429 C43.52412297 470.3065493 60.81577594 470.31117546 78.10743733 470.31042381 C79.03732969 470.31038386 79.96722205 470.3103439 80.92529297 470.31030273 C81.85633619 470.31026185 82.78737942 470.31022097 83.74663608 470.31017885 C98.82437908 470.30977268 113.90209707 470.31933803 128.97983284 470.3334411 C144.50565127 470.34784734 160.03145753 470.35470896 175.55728281 470.35384732 C184.25611134 470.35351683 192.95491365 470.35619898 201.65373611 470.36702538 C209.06127672 470.37618648 216.46877921 470.37826001 223.87632306 470.37151595 C227.6460516 470.36827884 231.41570727 470.36809065 235.18542862 470.3768692 C263.31508856 470.72400625 263.31508856 470.72400625 290.9375 466.125 C290.9375 465.465 290.9375 464.805 290.9375 464.125 C291.68 464.00125 292.4225 463.8775 293.1875 463.75 C295.76680049 463.16379534 297.6857162 462.49215445 299.9375 461.125 C300.2675 460.465 300.5975 459.805 300.9375 459.125 C301.7625 458.67125 302.5875 458.2175 303.4375 457.75 C306.36367819 455.84798418 306.21566758 455.32168645 306.9375 452.125 C307.8965625 451.6609375 307.8965625 451.6609375 308.875 451.1875 C311.16691597 450.25999388 311.16691597 450.25999388 312.1875 447.6875 C313.07794938 445.09013149 313.07794938 445.09013149 312.9375 442.125 C313.5975 442.125 314.2575 442.125 314.9375 442.125 C317.62699387 431.87930906 318.30636082 422.64436424 317.9375 412.125 C318.5975 412.125 319.2575 412.125 319.9375 412.125 C319.9375 340.845 319.9375 269.565 319.9375 196.125 C177.3775 196.125 34.8175 196.125 -112.0625 196.125 Z " fill="#FFFFFF" transform="translate(152.0625,0.875)"/>
<path d="M0 0 C2.77744089 2.19271649 3.81652702 3.32726573 4.75 6.75 C4.8325 7.4925 4.915 8.235 5 9 C5.66 9 6.32 9 7 9 C8.66769477 14.00308432 8.66769477 19.99691568 7 25 C6.34 25 5.68 25 5 25 C4.6596875 26.3303125 4.6596875 26.3303125 4.3125 27.6875 C2.79544616 31.51625492 1.03220182 33.24986347 -2 36 C-2.825 36.825 -3.65 37.65 -4.5 38.5 C-5.325 39.325 -6.15 40.15 -7 41 C-7.825 41.845625 -8.65 42.69125 -9.5 43.5625 C-12 46 -12 46 -14.375 47.8125 C-17.37491995 50.31243329 -19.77139726 53.0858864 -22.3046875 56.046875 C-24.4231094 58.48745323 -26.68516033 60.74607716 -29 63 C-29.825 63.825 -30.65 64.65 -31.5 65.5 C-32.325 66.325 -33.15 67.15 -34 68 C-34.825 68.845625 -35.65 69.69125 -36.5 70.5625 C-39 73 -39 73 -41.375 74.8125 C-44.37491995 77.31243329 -46.77139726 80.0858864 -49.3046875 83.046875 C-51.4231094 85.48745323 -53.68516033 87.74607716 -56 90 C-57.2375 91.2684375 -57.2375 91.2684375 -58.5 92.5625 C-61 95 -61 95 -63.375 96.8125 C-66.37491995 99.31243329 -68.77139726 102.0858864 -71.3046875 105.046875 C-73.4231094 107.48745323 -75.68516033 109.74607716 -78 112 C-78.845625 112.86625 -79.69125 113.7325 -80.5625 114.625 C-86.07894737 120 -86.07894737 120 -89 120 C-89.495 121.485 -89.495 121.485 -90 123 C-95.51533691 125.15871784 -102.52427149 124.38088131 -108.25 123.5 C-111.71806068 121.60833054 -113.65662867 119.18980304 -116.140625 116.15625 C-118.57715294 113.33069659 -121.31477172 111.00095987 -124.15234375 108.58984375 C-126.56439486 106.51435791 -128.78090911 104.27906632 -131 102 C-131.845625 101.175 -132.69125 100.35 -133.5625 99.5 C-136 97 -136 97 -137.8125 94.625 C-140.31243329 91.62508005 -143.0858864 89.22860274 -146.046875 86.6953125 C-148.48745323 84.5768906 -150.74607716 82.31483967 -153 80 C-154.299375 78.7625 -154.299375 78.7625 -155.625 77.5 C-161 71.84210526 -161 71.84210526 -161 68 C-161.66 68 -162.32 68 -163 68 C-163 63.38 -163 58.76 -163 54 C-162.34 54 -161.68 54 -161 54 C-160.34 51.69 -159.68 49.38 -159 47 C-158.0409375 46.8453125 -158.0409375 46.8453125 -157.0625 46.6875 C-156.0415625 46.3471875 -156.0415625 46.3471875 -155 46 C-154.67 45.01 -154.34 44.02 -154 43 C-147.57774041 39.7888702 -139.30388519 39.96977328 -132.5625 42.1875 C-128.76682157 44.11863464 -127.45017497 45.6013702 -125 49 C-123.85557696 50.0253814 -122.68679243 51.02396986 -121.5 52 C-118.59566757 54.42339996 -116.17166397 56.87280388 -114 60 C-114 60.66 -114 61.32 -114 62 C-113.443125 62.226875 -112.88625 62.45375 -112.3125 62.6875 C-109.35308639 64.36716718 -107.37591214 66.56751852 -105 69 C-103.06056408 70.84638218 -101.16748203 72.39794806 -99 74 C-98.01 73.67 -97.02 73.34 -96 73 C-95.67 72.34 -95.34 71.68 -95 71 C-94 69 -94 69 -91 68 C-90.5359375 67.0409375 -90.5359375 67.0409375 -90.0625 66.0625 C-88.74215782 63.49948282 -87.5185326 63.2592663 -85 62 C-84.31731862 60.67479497 -83.6492959 59.34187818 -83 58 C-82.01 57.67 -81.02 57.34 -80 57 C-79.71125 56.4225 -79.4225 55.845 -79.125 55.25 C-77.28043039 51.56086078 -74.5302022 48.74324107 -70.8125 46.9375 C-68.42469435 45.70242811 -68.16389103 44.39624623 -67 42 C-62.84951456 37.41262136 -62.84951456 37.41262136 -59.8125 35.9375 C-57.42469435 34.70242811 -57.16389103 33.39624623 -56 31 C-51.84951456 26.41262136 -51.84951456 26.41262136 -48.8125 24.9375 C-46.46198896 23.72171843 -46.12751731 22.33020244 -45 20 C-44.01 19.67 -43.02 19.34 -42 19 C-41.5359375 18.0409375 -41.5359375 18.0409375 -41.0625 17.0625 C-39.74215782 14.49948282 -38.5185326 14.2592663 -36 13 C-35.31731862 11.67479497 -34.6492959 10.34187818 -34 9 C-33.01 8.67 -32.02 8.34 -31 8 C-30.71125 7.4225 -30.4225 6.845 -30.125 6.25 C-28.13128565 2.26257131 -25.34525633 -0.32737183 -21.375 -2.3125 C-13.75971339 -3.86376209 -6.82795446 -3.90168826 0 0 Z " fill="#FFFFFF" transform="translate(334,274)"/>
</svg>
