<?xml version="1.0" encoding="UTF-8"?>
<svg version="1.1" xmlns="http://www.w3.org/2000/svg" width="512" height="512">
<path d="M0 0 C22.42531927 -0.49124771 44.89208638 3.76081767 65.3125 13.12109375 C66.29210693 13.56775391 66.29210693 13.56775391 67.29150391 14.0234375 C103.68890429 30.81553799 131.53984207 61.5120544 145.61083984 98.93017578 C162.47960325 146.53447188 150.3795248 187.75734977 129.5 231.62109375 C116.15056661 259.19183005 100.52461314 285.45806275 83.68554688 311.02685547 C82.15942855 313.35456582 80.64908095 315.69205676 79.140625 318.03125 C72.83787236 327.79730897 66.43212229 337.47466687 59.78417969 347.00927734 C58.18775708 349.30009612 56.59790331 351.59540736 55.0078125 353.890625 C52.06901561 358.12435896 49.10557456 362.34004081 46.12841797 366.546875 C44.90791428 368.27704318 43.69347821 370.01150607 42.48486328 371.75 C29.24097975 390.77412813 29.24097975 390.77412813 20.3125 395.12109375 C19.62800781 395.45882813 18.94351563 395.7965625 18.23828125 396.14453125 C8.35203891 400.37871756 -1.32789566 399.34273767 -11.1875 395.55859375 C-23.76784251 389.42237773 -31.01874063 377.27629617 -38.6875 366.12109375 C-39.64940999 364.73414635 -40.61163504 363.3474174 -41.57421875 361.9609375 C-43.85590664 358.66399946 -46.11795915 355.35403732 -48.37548828 352.04052734 C-49.63775677 350.19386659 -50.90869512 348.35358298 -52.18359375 346.515625 C-55.03826553 342.39770736 -57.86635775 338.26203994 -60.6875 334.12109375 C-61.34137695 333.16332031 -61.99525391 332.20554687 -62.66894531 331.21875 C-73.35249519 315.52561909 -83.35206733 299.58771019 -92.89599609 283.17333984 C-94.53363291 280.38324234 -96.20212129 277.61649358 -97.89453125 274.859375 C-105.27750721 262.83073 -111.88306233 250.48485285 -118.27001953 237.90039062 C-119.47297522 235.54171899 -120.69550344 233.19579621 -121.93359375 230.85546875 C-143.61897338 189.46287556 -152.75960175 148.30867042 -139.03173828 102.95458984 C-129.97155377 74.63558381 -111.47834564 48.910645 -87.6875 31.12109375 C-86.89085937 30.52039063 -86.09421875 29.9196875 -85.2734375 29.30078125 C-60.36484255 11.20756733 -30.73994419 1.00946851 0 0 Z M-56.6875 89.12109375 C-57.96367187 90.25998047 -57.96367187 90.25998047 -59.265625 91.421875 C-75.94098609 107.04863209 -84.50660906 128.56129113 -85.61303711 151.18212891 C-86.30559226 173.97174648 -79.8424722 196.60244802 -64.1875 213.62109375 C-62.38866952 215.49554701 -60.54984432 217.30761561 -58.6875 219.12109375 C-57.94757813 219.8584375 -57.20765625 220.59578125 -56.4453125 221.35546875 C-39.30496907 237.55403507 -16.33803599 244.51644279 6.85546875 244.2734375 C32.33374718 243.15066591 54.07503135 232.37469964 71.7109375 214.12890625 C87.81138833 195.51427091 94.44259206 172.16149026 93.1328125 147.82421875 C91.38722003 125.63539906 82.02805101 106.65981718 66.3125 91.12109375 C65.50941406 90.30769531 64.70632813 89.49429688 63.87890625 88.65625 C46.97017327 72.41387103 23.8068836 65.72738077 0.76953125 65.96875 C-20.75178742 66.91714709 -40.85177487 74.44108148 -56.6875 89.12109375 Z " fill="#919191" transform="translate(251.6875,4.87890625)"/>
<path d="M0 0 C1.28344727 1.50610352 1.28344727 1.50610352 2.56640625 3.62890625 C3.04730713 4.40991699 3.52820801 5.19092773 4.02368164 5.99560547 C4.78539673 7.26621826 4.78539673 7.26621826 5.5625 8.5625 C6.63376073 10.30700753 7.70670175 12.05048427 8.78125 13.79296875 C9.31878906 14.66872559 9.85632813 15.54448242 10.41015625 16.44677734 C13.09883567 20.76468418 15.94087178 24.97628109 18.78930664 29.18969727 C25 38.40110706 25 38.40110706 25 41 C24.31413818 41.10957031 23.62827637 41.21914063 22.92163086 41.33203125 C-41.52482976 50.9563116 -41.52482976 50.9563116 -93 86 C-94.16977494 88.34872531 -94.16977494 88.34872531 -94 91 C-87.64024809 105.93159144 -68.83044928 113.20051493 -54.75683594 119.04614258 C-7.09375438 138.02730833 47.34848997 145.12478691 98.453125 145.16796875 C99.88775664 145.1712026 101.32238799 145.17456802 102.75701904 145.17805481 C105.74524698 145.18398215 108.7334463 145.18590169 111.72167969 145.18530273 C114.71913765 145.18522204 117.71644095 145.19208577 120.71386719 145.20581055 C140.23343256 145.29370215 159.54274358 144.78247197 179 143 C179.81505005 142.92665436 180.6301001 142.85330872 181.46984863 142.77774048 C185.98955943 142.36164111 190.49464267 141.86557187 195 141.3125 C195.6626889 141.23140991 196.32537781 141.15031982 197.00814819 141.06677246 C238.96124629 135.8555429 291.8128652 128.05592532 324.06640625 98.51953125 C326.43402209 95.43445606 327.25093088 92.79791185 328 89 C325.56612754 80.65529441 316.9606089 75.62333013 309.80078125 71.52734375 C308.87652344 71.02332031 307.95226562 70.51929688 307 70 C305.98292969 69.44441406 304.96585937 68.88882813 303.91796875 68.31640625 C277.05747937 54.27640656 246.52023377 47.16020817 216.79150391 42.34326172 C215.9154248 42.19518066 215.0393457 42.04709961 214.13671875 41.89453125 C213.36030029 41.76925049 212.58388184 41.64396973 211.78393555 41.51489258 C211.19523682 41.34497803 210.60653809 41.17506348 210 41 C209.67 40.34 209.34 39.68 209 39 C210.46595114 36.45778094 211.98818993 34.05504183 213.625 31.625 C214.63556465 30.09514982 215.64597448 28.56519738 216.65625 27.03515625 C217.19636719 26.22320801 217.73648437 25.41125977 218.29296875 24.57470703 C221.26643377 20.08984403 224.19308634 15.57458495 227.125 11.0625 C227.69299316 10.19254395 228.26098633 9.32258789 228.84619141 8.42626953 C229.37390137 7.61657715 229.90161133 6.80688477 230.4453125 5.97265625 C230.91469238 5.25343994 231.38407227 4.53422363 231.86767578 3.79321289 C233.04090367 2.00103596 233.04090367 2.00103596 234 0 C276.22581575 4.32954685 331.79868641 21.33855184 360 55 C370.04883024 68.09775719 373.93675644 80.58941495 373 97 C370.37533716 115.19469667 358.13273863 129.04490543 344 140 C296.27906948 173.87226852 233.27066447 183.64621282 176.375 188.6875 C175.69195801 188.74834778 175.00891602 188.80919556 174.30517578 188.87188721 C155.68637113 190.50727714 137.12736895 191.20811614 118.4375 191.1875 C117.41498138 191.18689575 116.39246277 191.1862915 115.33895874 191.18566895 C96.82960886 191.15621233 78.44087702 190.60423904 60 189 C59.29520508 188.9391925 58.59041016 188.87838501 57.86425781 188.81573486 C9.53360571 184.5840876 -39.95370119 176.08924561 -84 155 C-85.11761719 154.47535156 -86.23523438 153.95070313 -87.38671875 153.41015625 C-107.72634712 143.59192335 -128.46610494 128.66359245 -136.69921875 106.8046875 C-138.38852386 101.43373752 -138.49557156 96.21968831 -138.4375 90.625 C-138.42992676 89.60639893 -138.42235352 88.58779785 -138.41455078 87.53833008 C-138.25667975 80.35865511 -137.51496021 74.36879938 -134 68 C-133.59910156 67.19304687 -133.19820312 66.38609375 -132.78515625 65.5546875 C-116.07892055 34.66025743 -76.66172117 19.8955165 -45.10205078 10.10058594 C-11.08561467 0 -11.08561467 0 0 0 Z " fill="#919191" transform="translate(138,316)"/>
</svg>
