<?xml version="1.0" encoding="UTF-8"?>
<svg version="1.1" xmlns="http://www.w3.org/2000/svg" width="512" height="512">
<path d="M0 0 C5.6074782 3.88210029 6.7985988 7.05385229 8.4375 13.6875 C8.4375 18.9675 8.4375 24.2475 8.4375 29.6875 C80.3775 29.6875 152.3175 29.6875 226.4375 29.6875 C226.4375 24.4075 226.4375 19.1275 226.4375 13.6875 C228.31201069 7.3002784 229.58538073 3.22957219 235.4375 -0.3125 C239.82839844 -2.50794922 245.64517628 -1.64481442 250.4375 -1.3125 C255.05121753 0.35798393 258.14593318 2.32591249 260.5078125 6.64453125 C261.86827951 11.09748841 261.6474984 15.37412575 261.5625 20 C261.55347656 20.93134766 261.54445313 21.86269531 261.53515625 22.82226562 C261.51168263 25.1109436 261.47884729 27.39908672 261.4375 29.6875 C262.71882813 29.66429688 264.00015625 29.64109375 265.3203125 29.6171875 C281.38686498 29.41150571 297.91038346 29.90263372 312.4375 37.6875 C312.4375 38.3475 312.4375 39.0075 312.4375 39.6875 C313.13875 39.955625 313.84 40.22375 314.5625 40.5 C320.05594304 42.76903082 324.3999764 45.22837564 328.8125 49.25 C329.68648438 50.03503906 330.56046875 50.82007813 331.4609375 51.62890625 C333.4375 53.6875 333.4375 53.6875 333.4375 55.6875 C334.02660156 55.935 334.61570312 56.1825 335.22265625 56.4375 C342.18979732 60.36957256 346.502858 69.5334649 349.4375 76.6875 C349.4375 77.3475 349.4375 78.0075 349.4375 78.6875 C350.0975 78.6875 350.7575 78.6875 351.4375 78.6875 C357.71027245 95.25841179 357.0656937 112.15423864 356.90682411 129.57765388 C356.85800069 134.93778768 356.85161703 140.29749526 356.85160828 145.65782166 C356.84522934 159.92016287 356.78430097 174.18216927 356.69867438 188.44424194 C356.64245859 197.85194052 356.60926961 207.25909833 356.61911076 216.66697973 C356.62281136 221.98794023 356.59021738 227.30701024 356.52965319 232.62760842 C356.50026635 235.93878389 356.50443192 239.24930891 356.51770401 242.56056213 C356.51714187 244.08676487 356.50300889 245.61303711 356.47377205 247.13895988 C356.31192489 256.02339859 357.09912867 261.97696965 363.43300152 268.67082882 C364.09448602 269.33633031 364.75597052 270.0018318 365.4375 270.6875 C381.2962853 290.99504417 390.49764611 320.88552483 390.640625 346.40234375 C390.64632507 347.21635147 390.65202515 348.03035919 390.65789795 348.86903381 C390.66729096 350.58593471 390.67385907 352.30285317 390.67773438 354.01977539 C390.6873579 356.58709149 390.71840156 359.15357698 390.75 361.72070312 C390.8777935 381.70125296 387.46396902 401.70620061 378.4375 419.6875 C377.81905084 420.96944418 377.20195725 422.25204288 376.5859375 423.53515625 C371.00268787 435.0671195 364.65415576 445.36462399 356.625 455.375 C356.04919189 456.09558594 355.47338379 456.81617188 354.88012695 457.55859375 C354.06354614 458.55632812 354.06354614 458.55632812 353.23046875 459.57421875 C352.7408667 460.17451904 352.25126465 460.77481934 351.74682617 461.39331055 C350.4375 462.6875 350.4375 462.6875 348.4375 462.6875 C348.1075 463.6775 347.7775 464.6675 347.4375 465.6875 C346.7775 465.6875 346.1175 465.6875 345.4375 465.6875 C345.1075 466.6775 344.7775 467.6675 344.4375 468.6875 C343.7775 468.6875 343.1175 468.6875 342.4375 468.6875 C342.05380249 469.5839624 342.05380249 469.5839624 341.66235352 470.49853516 C340.30860172 472.91785718 339.04289949 474.05127831 336.83984375 475.7109375 C335.76887451 476.52546387 335.76887451 476.52546387 334.67626953 477.35644531 C333.91685059 477.91944336 333.15743164 478.48244141 332.375 479.0625 C331.20493408 479.93793457 331.20493408 479.93793457 330.01123047 480.83105469 C327.82610099 482.45836625 325.63289852 484.07408511 323.4375 485.6875 C322.28544067 486.54843262 322.28544067 486.54843262 321.11010742 487.42675781 C306.10161531 498.50015106 287.06355254 504.25022929 269.20703125 508.63671875 C268.48104736 508.81549561 267.75506348 508.99427246 267.00708008 509.1784668 C260.56963577 510.45372298 254.26455215 510.85396867 247.72265625 510.890625 C246.90864853 510.89632507 246.09464081 510.90202515 245.25596619 510.90789795 C243.53906529 510.91729096 241.82214683 510.92385907 240.10522461 510.92773438 C237.53790851 510.9373579 234.97142302 510.96840156 232.40429688 511 C215.57480039 511.10845446 200.31491385 508.19934833 184.4375 502.6875 C183.32761719 502.30722656 182.21773438 501.92695313 181.07421875 501.53515625 C166.72329281 496.33097432 151.34575694 488.59575694 140.4375 477.6875 C137.8897777 477.49090404 135.45054071 477.41992494 132.90170288 477.4359436 C131.72163412 477.4314884 131.72163412 477.4314884 130.51772559 477.42694318 C127.86639917 477.41927008 125.21529215 477.42581097 122.56396484 477.43212891 C120.66847076 477.4293803 118.77297782 477.4257012 116.87748718 477.42115784 C112.78560203 477.41302776 108.69377158 477.41088205 104.60187912 477.41310501 C98.11992677 477.41593501 91.63808374 477.40159434 85.15615845 477.38412476 C66.72000805 477.33707875 48.28386397 477.31318274 29.84765625 477.30664062 C19.67271291 477.30287755 9.49789227 477.28474111 -0.6769985 477.25154626 C-7.10705748 477.23142471 -13.53679793 477.22891779 -19.96687531 477.23982644 C-23.99168718 477.24245319 -28.01631788 477.22833285 -32.04108238 477.20974541 C-33.89202269 477.20446917 -35.74299734 477.2058408 -37.59392357 477.21478081 C-49.30010363 477.26670651 -61.83761884 477.04994058 -72.5625 471.6875 C-72.5625 471.0275 -72.5625 470.3675 -72.5625 469.6875 C-73.27792969 469.57664062 -73.99335937 469.46578125 -74.73046875 469.3515625 C-82.91098298 467.43337296 -90.97252621 461.90214135 -96.5625 455.6875 C-96.5625 455.0275 -96.5625 454.3675 -96.5625 453.6875 C-97.15160156 453.43097656 -97.74070312 453.17445313 -98.34765625 452.91015625 C-105.00851287 449.23317543 -109.51693847 441.45229566 -112.5625 434.6875 C-112.5625 434.0275 -112.5625 433.3675 -112.5625 432.6875 C-113.2225 432.6875 -113.8825 432.6875 -114.5625 432.6875 C-115.36124865 430.54429273 -116.15111858 428.39777584 -116.9375 426.25 C-117.59878906 424.45755859 -117.59878906 424.45755859 -118.2734375 422.62890625 C-121.199951 414.00116938 -121.85535105 405.98305582 -121.83665466 396.88833618 C-121.84189134 395.61998377 -121.84712802 394.35163136 -121.85252339 393.04484403 C-121.86662625 389.54454726 -121.86836815 386.04433961 -121.86792648 382.54401851 C-121.8695816 378.7605284 -121.88266128 374.97707428 -121.89411926 371.19360352 C-121.91691762 362.92866198 -121.92488475 354.66374621 -121.92994571 346.39877748 C-121.93320966 341.23006466 -121.93973646 336.06135924 -121.9469471 330.8926506 C-121.96650865 316.55960392 -121.98291468 302.22656408 -121.98582363 287.89350319 C-121.9860112 286.97720425 -121.98619877 286.06090531 -121.98639202 285.11683973 C-121.98675826 283.25955542 -121.98712196 281.40227111 -121.98748314 279.5449868 C-121.98766595 278.62312455 -121.98784876 277.70126231 -121.98803711 276.75146484 C-121.98821766 275.82846645 -121.98839821 274.90546805 -121.98858423 273.9545 C-121.99212167 259.01723388 -122.01911912 244.0801123 -122.056535 229.14289625 C-122.09471214 213.77773327 -122.11398181 198.41264182 -122.11428314 183.0474304 C-122.11486571 174.43235183 -122.12322683 165.81744558 -122.15228081 157.20241165 C-122.17692125 149.86268367 -122.18399313 142.52319081 -122.16903328 135.18343253 C-122.1619149 131.44625232 -122.16249871 127.70953516 -122.18544388 123.97240829 C-122.38874043 88.78844252 -122.38874043 88.78844252 -114.5625 74.6875 C-113.9025 74.6875 -113.2425 74.6875 -112.5625 74.6875 C-112.376875 73.90375 -112.19125 73.12 -112 72.3125 C-107.98620595 62.19075848 -100.17436533 53.58339671 -91.6875 46.9375 C-91.10097656 46.45667969 -90.51445313 45.97585937 -89.91015625 45.48046875 C-85.90740016 42.32225021 -82.5462338 40.78366651 -77.5625 39.6875 C-77.5625 39.0275 -77.5625 38.3675 -77.5625 37.6875 C-63.49500754 31.99092655 -51.14211405 29.48057778 -36 29.625 C-35.08669922 29.62951172 -34.17339844 29.63402344 -33.23242188 29.63867188 C-31.00904262 29.6503126 -28.78580879 29.66666149 -26.5625 29.6875 C-26.61470703 27.75197266 -26.61470703 27.75197266 -26.66796875 25.77734375 C-26.69612342 24.05990894 -26.72342177 22.34245993 -26.75 20.625 C-26.77513672 19.77744141 -26.80027344 18.92988281 -26.82617188 18.05664062 C-26.89099419 12.46031429 -26.24663308 8.62860008 -23.5625 3.6875 C-17.09169535 -2.45976442 -8.24198179 -3.03651961 0 0 Z M-62.5625 69.6875 C-62.8925 70.3475 -63.2225 71.0075 -63.5625 71.6875 C-65.109375 72.5228125 -65.109375 72.5228125 -66.6875 73.375 C-73.05593177 76.89991388 -77.8675751 81.87092526 -80.5625 88.6875 C-80.5625 89.3475 -80.5625 90.0075 -80.5625 90.6875 C-81.2225 90.6875 -81.8825 90.6875 -82.5625 90.6875 C-87.91933677 102.39779434 -87.5625 111.45562526 -87.5625 124.6875 C47.7375 124.6875 183.0375 124.6875 322.4375 124.6875 C322.86712934 109.40487486 322.86712934 109.40487486 319.4375 94.6875 C318.7775 94.6875 318.1175 94.6875 317.4375 94.6875 C316.9734375 92.769375 316.9734375 92.769375 316.5 90.8125 C314.03550724 83.41902173 308.3649587 77.04200889 301.5625 73.25 C300.53125 72.734375 299.5 72.21875 298.4375 71.6875 C297.97859375 71.19378906 297.5196875 70.70007813 297.046875 70.19140625 C295.00528906 68.28361356 293.24394474 67.8041762 290.5625 67.0625 C289.71945312 66.82273437 288.87640625 66.58296875 288.0078125 66.3359375 C286.73550781 66.01496094 286.73550781 66.01496094 285.4375 65.6875 C284.34501953 65.39939453 284.34501953 65.39939453 283.23046875 65.10546875 C279.0308328 64.47699176 274.86422631 64.58390385 270.625 64.625 C269.29952148 64.63176758 269.29952148 64.63176758 267.94726562 64.63867188 C265.77731441 64.65040134 263.60739828 64.66833505 261.4375 64.6875 C261.42291748 65.26193848 261.40833496 65.83637695 261.39331055 66.42822266 C261.31836275 69.05695696 261.22186006 71.68448552 261.125 74.3125 C261.10244141 75.21613281 261.07988281 76.11976562 261.05664062 77.05078125 C260.84660115 82.28267365 260.3990545 86.19240897 257.4375 90.6875 C251.94602038 94.92051554 247.34518933 96.39858567 240.4375 95.6875 C235.84678699 94.15726233 232.37076293 92.59851723 229.4375 88.6875 C227.4375 81.6875 227.4375 81.6875 226.4375 64.6875 C154.4975 64.6875 82.5575 64.6875 8.4375 64.6875 C8.1075 70.2975 7.7775 75.9075 7.4375 81.6875 C5.9375 86.5625 5.9375 86.5625 4.4375 89.6875 C3.9425 91.1725 3.9425 91.1725 3.4375 92.6875 C-1.93379906 95.54357368 -7.59511754 96.26498863 -13.5625 95.6875 C-18.7502861 94.04470107 -21.5880688 92.263548 -24.5625 87.6875 C-25.4925889 84.8972333 -25.74948769 82.92220458 -25.87890625 80.01953125 C-25.92080078 79.12685547 -25.96269531 78.23417969 -26.00585938 77.31445312 C-26.04517578 76.38568359 -26.08449219 75.45691406 -26.125 74.5 C-26.16818359 73.55962891 -26.21136719 72.61925781 -26.25585938 71.65039062 C-26.36188665 69.32957146 -26.46395029 67.00864675 -26.5625 64.6875 C-45.18207148 63.82743536 -45.18207148 63.82743536 -62.5625 69.6875 Z M-87.5625 159.6875 C-87.60375 198.33875 -87.645 236.99 -87.6875 276.8125 C-87.70570801 289.00590332 -87.72391602 301.19930664 -87.74267578 313.76220703 C-87.74936564 324.71519414 -87.74936564 324.71519414 -87.75338745 335.66818237 C-87.75524683 340.53758577 -87.76272629 345.40694533 -87.77365112 350.27633667 C-87.78742416 356.49815991 -87.79147214 362.71991989 -87.78864455 368.94175696 C-87.78923536 371.21853164 -87.79316859 373.49530865 -87.80093026 375.77207017 C-88.43247695 396.82619074 -88.43247695 396.82619074 -82.5625 416.6875 C-81.9025 416.6875 -81.2425 416.6875 -80.5625 416.6875 C-80.315 417.38875 -80.0675 418.09 -79.8125 418.8125 C-76.6378468 426.11420236 -71.45054614 432.53524403 -64.04296875 435.796875 C-61.89455949 436.51413919 -59.76278085 437.15270952 -57.5625 437.6875 C-57.5625 438.3475 -57.5625 439.0075 -57.5625 439.6875 C-47.44721991 442.91578088 -37.39215448 442.8295361 -26.86303711 442.80102539 C-25.39374799 442.80074287 -23.92445872 442.80090253 -22.45516968 442.8014679 C-18.49094048 442.80175332 -14.52674191 442.79589794 -10.56251979 442.78889394 C-6.41054234 442.78261782 -2.2585641 442.78205324 1.89341736 442.78086853 C9.74484431 442.77776773 17.59625724 442.76957128 25.44767803 442.75951904 C34.39088273 442.74831896 43.33408812 442.74283766 52.27729809 442.73782361 C70.66403999 442.72738756 89.05076887 442.70981245 107.4375 442.6875 C106.07792135 439.18766461 104.53511775 435.92070556 102.72216797 432.62915039 C91.71660837 412.64099743 84.36337923 390.9954784 84.234375 367.97265625 C84.22867493 367.15864853 84.22297485 366.34464081 84.21710205 365.50596619 C84.20770904 363.78906529 84.20114093 362.07214683 84.19726562 360.35522461 C84.1876421 357.78790851 84.15659844 355.22142302 84.125 352.65429688 C84.05440721 341.67000652 85.10015297 331.41700166 87.4375 320.6875 C87.63102051 319.78394775 87.82454102 318.88039551 88.02392578 317.94946289 C91.40711114 303.20571296 97.8508298 290.16875639 105.125 277 C105.65915527 276.02909424 105.65915527 276.02909424 106.20410156 275.03857422 C108.57066236 270.87032425 111.28495638 267.3205246 114.4375 263.6875 C115.1903125 262.74648438 115.943125 261.80546875 116.71875 260.8359375 C117.4509375 259.92070312 118.183125 259.00546875 118.9375 258.0625 C119.6696875 257.14210938 120.401875 256.22171875 121.15625 255.2734375 C123.40809812 252.72082885 125.76819312 250.78511958 128.4375 248.6875 C129.57482984 247.42493609 130.68103862 246.1334498 131.75 244.8125 C135.25611728 240.72579986 139.05694433 237.77645311 143.4375 234.6875 C144.21480469 234.08292969 144.99210938 233.47835937 145.79296875 232.85546875 C153.79943623 226.71435073 162.42257965 222.14124878 171.4375 217.6875 C172.54609375 217.12933594 173.6546875 216.57117188 174.796875 215.99609375 C190.57817742 208.62507079 208.75580097 204.58185339 226.15234375 204.484375 C226.96635147 204.47867493 227.78035919 204.47297485 228.61903381 204.46710205 C230.33593471 204.45770904 232.05285317 204.45114093 233.76977539 204.44726562 C236.33709149 204.4376421 238.90357698 204.40659844 241.47070312 204.375 C268.89399625 204.19876816 294.96635037 211.94989579 318.25 226.4375 C320.30700512 227.85287965 320.30700512 227.85287965 322.4375 227.6875 C322.4375 205.2475 322.4375 182.8075 322.4375 159.6875 C187.1375 159.6875 51.8375 159.6875 -87.5625 159.6875 Z M193.4375 245.6875 C193.4375 246.3475 193.4375 247.0075 193.4375 247.6875 C192.6228125 247.76355469 191.808125 247.83960938 190.96875 247.91796875 C186.47849619 248.89648645 182.94221018 250.80057657 178.9375 253 C178.20402344 253.39123047 177.47054687 253.78246094 176.71484375 254.18554688 C170.16531881 257.7180724 164.67147862 261.32890284 159.4375 266.6875 C158.11075519 267.84095569 156.77689757 268.98626124 155.4375 270.125 C152.04682685 273.06569597 149.23873662 276.16799758 146.4375 279.6875 C145.91671875 280.23535156 145.3959375 280.78320312 144.859375 281.34765625 C139.1470822 287.4073182 135.34877976 294.4079381 131.4375 301.6875 C130.97730469 302.52539062 130.51710937 303.36328125 130.04296875 304.2265625 C128.19529348 307.71298863 127.4375 309.65914666 127.4375 313.6875 C126.7775 313.6875 126.1175 313.6875 125.4375 313.6875 C115.07822362 341.4524641 115.5480745 370.59443754 124.4375 398.6875 C124.7675 399.3475 125.0975 400.0075 125.4375 400.6875 C126.0975 400.6875 126.7575 400.6875 127.4375 400.6875 C127.58251953 401.71230469 127.58251953 401.71230469 127.73046875 402.7578125 C128.58565546 406.30140386 130.08507738 409.34708839 131.75 412.5625 C132.22095093 413.48796631 132.22095093 413.48796631 132.70141602 414.43212891 C134.83082709 418.58994264 137.04853675 422.67404174 139.4375 426.6875 C142.5952467 423.98923966 144.30466291 420.53222658 146.25 416.9375 C149.18762503 411.62192757 152.33855042 407.19634454 156.4375 402.6875 C156.4375 402.0275 156.4375 401.3675 156.4375 400.6875 C157.0975 400.6875 157.7575 400.6875 158.4375 400.6875 C159.80747109 399.25894551 159.80747109 399.25894551 161.1875 397.4375 C163.93015489 394.11286712 166.77790216 391.99463777 170.4375 389.6875 C171.3346875 388.759375 171.3346875 388.759375 172.25 387.8125 C179.61597592 380.65698053 189.19045975 376.80541779 198.4375 372.6875 C197.32166064 369.33998191 196.55339291 368.75827967 193.875 366.625 C180.27762339 354.97358069 173.63756006 339.6882007 172.12109375 321.99609375 C171.67332038 308.14400784 175.58318419 296.43554515 182.046875 284.41796875 C183.58877676 281.90116996 183.58877676 281.90116996 183.4375 279.6875 C184.0975 279.6875 184.7575 279.6875 185.4375 279.6875 C186.2109375 278.4190625 186.2109375 278.4190625 187 277.125 C189.43600091 273.1956652 192.89438054 270.86354038 196.609375 268.203125 C197.21265625 267.70296875 197.8159375 267.2028125 198.4375 266.6875 C198.4375 266.0275 198.4375 265.3675 198.4375 264.6875 C199.13746094 264.419375 199.83742188 264.15125 200.55859375 263.875 C203.61759401 262.61321428 206.53553356 261.15687618 209.5 259.6875 C223.34628821 253.33030161 242.72247711 252.09479623 257.4375 256.6875 C261.79394074 258.57413932 265.98472596 260.76124521 270.1640625 263.0078125 C273.12086375 264.83967739 273.12086375 264.83967739 275.4375 264.6875 C275.4375 265.3475 275.4375 266.0075 275.4375 266.6875 C276.283125 267.203125 277.12875 267.71875 278 268.25 C281.9293348 270.68600091 284.26145962 274.14438054 286.921875 277.859375 C287.67210937 278.76429688 287.67210937 278.76429688 288.4375 279.6875 C289.0975 279.6875 289.7575 279.6875 290.4375 279.6875 C290.70691406 280.38875 290.97632813 281.09 291.25390625 281.8125 C292.501889 284.84390365 293.92970254 287.74541866 295.375 290.6875 C303.04465193 307.37696262 303.44128111 324.46133325 297.4375 341.6875 C293.30126572 352.33155941 287.44168685 359.76911607 279.4375 367.6875 C278.66792969 368.45835937 277.89835938 369.22921875 277.10546875 370.0234375 C276.55503906 370.57257813 276.00460937 371.12171875 275.4375 371.6875 C278.72072195 374.37377251 282.16969048 376.07325664 286 377.875 C296.73791581 383.09760181 308.71716968 390.60700452 315.4375 400.6875 C316.0975 400.6875 316.7575 400.6875 317.4375 400.6875 C317.70046875 401.25339844 317.9634375 401.81929687 318.234375 402.40234375 C319.53232415 404.86760431 321.04296982 407.00173464 322.6875 409.25 C326.41439396 414.49265377 329.47744842 419.98425043 332.4375 425.6875 C338.76756759 423.20698101 340.77122536 416.41336858 343.39111328 410.55517578 C344.38398332 408.27348877 345.35449239 405.98403341 346.3125 403.6875 C346.77813354 402.57459595 346.77813354 402.57459595 347.25317383 401.43920898 C348.4947365 398.38318965 349.4375 396.01763153 349.4375 392.6875 C350.0975 392.6875 350.7575 392.6875 351.4375 392.6875 C357.24865271 369.1834627 357.62143757 345.15333453 351.4375 321.6875 C350.7775 321.6875 350.1175 321.6875 349.4375 321.6875 C349.30472656 320.96304688 349.17195312 320.23859375 349.03515625 319.4921875 C347.37394806 311.69645234 344.04478952 304.59018467 340.375 297.5625 C340.03460693 296.89879395 339.69421387 296.23508789 339.34350586 295.55126953 C337.32702143 291.59625804 337.32702143 291.59625804 333.4375 289.6875 C332.76308869 288.0239521 332.0974679 286.35683058 331.4375 284.6875 C330.12549596 283.33317325 328.79118596 282.00016518 327.4375 280.6875 C326.99019531 279.90503906 326.54289063 279.12257813 326.08203125 278.31640625 C324.34081739 275.53294561 322.54623707 273.75694496 320.0625 271.625 C319.26714844 270.93792969 318.47179687 270.25085938 317.65234375 269.54296875 C315.99385027 268.15357827 314.31445917 266.78906733 312.625 265.4375 C310.4375 263.6875 310.4375 263.6875 308.859375 261.8984375 C305.43398602 258.77138885 301.56328405 256.76222164 297.5 254.5625 C296.70142578 254.12035156 295.90285156 253.67820313 295.08007812 253.22265625 C288.14852352 249.16294601 288.14852352 249.16294601 280.4375 247.6875 C280.4375 247.0275 280.4375 246.3675 280.4375 245.6875 C252.44656011 236.38865488 221.23840536 233.8707964 193.4375 245.6875 Z M202.4375 287.6875 C200.97324467 290.37229876 200.97324467 290.37229876 200.4375 292.6875 C199.7775 292.6875 199.1175 292.6875 198.4375 292.6875 C197.63794999 294.20420364 196.84828612 295.72611998 196.0625 297.25 C195.62164062 298.09691406 195.18078125 298.94382812 194.7265625 299.81640625 C189.87680246 310.61814452 189.50001093 323.70875584 193.625 334.8125 C195.82414629 339.74183643 198.26701079 344.31736623 201.4375 348.6875 C202.0975 348.6875 202.7575 348.6875 203.4375 348.6875 C203.7675 349.6775 204.0975 350.6675 204.4375 351.6875 C205.0975 351.6875 205.7575 351.6875 206.4375 351.6875 C206.7675 352.6775 207.0975 353.6675 207.4375 354.6875 C219.22959547 363.5143317 232.41933666 366.09230509 246.8125 364.0625 C254.38865457 362.58136711 261.56323306 358.689486 267.4375 353.6875 C267.4375 353.0275 267.4375 352.3675 267.4375 351.6875 C268.4275 351.3575 269.4175 351.0275 270.4375 350.6875 C270.4375 350.0275 270.4375 349.3675 270.4375 348.6875 C271.0975 348.6875 271.7575 348.6875 272.4375 348.6875 C281.25269333 336.13381504 283.92963605 324.78130073 282.4375 309.6875 C281.61913064 305.66872191 280.33307434 302.31504256 278.4375 298.6875 C277.963125 297.76582031 277.48875 296.84414063 277 295.89453125 C270.23648162 284.10714946 260.28007519 277.63502506 247.6875 273.4375 C231.15423798 269.78900679 213.91719769 275.20374712 202.4375 287.6875 Z M191.4375 396.6875 C191.4375 397.3475 191.4375 398.0075 191.4375 398.6875 C190.756875 398.914375 190.07625 399.14125 189.375 399.375 C183.42318109 402.03432334 179.40149555 405.53430578 175.4375 410.6875 C174.67695313 411.25210937 173.91640625 411.81671875 173.1328125 412.3984375 C169.86314597 415.17528472 167.76011494 418.17473373 165.4375 421.75 C165.00397217 422.41177246 164.57044434 423.07354492 164.1237793 423.75537109 C157.76473511 432.89874433 157.76473511 432.89874433 155.65234375 443.36328125 C156.84735043 446.90073883 159.30018734 447.81717899 162.4375 449.6875 C163.345 450.43 164.2525 451.1725 165.1875 451.9375 C167.22554431 453.89214687 167.22554431 453.89214687 169.4375 453.6875 C169.7675 454.6775 170.0975 455.6675 170.4375 456.6875 C172.18398543 457.97732345 172.18398543 457.97732345 174.375 459.0625 C175.18839844 459.49046875 176.00179688 459.9184375 176.83984375 460.359375 C178.12568359 461.01679688 178.12568359 461.01679688 179.4375 461.6875 C180.26378906 462.12578125 181.09007812 462.5640625 181.94140625 463.015625 C191.24116127 467.92256688 191.24116127 467.92256688 201.4375 469.6875 C201.4375 470.3475 201.4375 471.0075 201.4375 471.6875 C225.32358887 477.32472185 248.53068893 478.4535786 272.4375 471.6875 C272.4375 471.0275 272.4375 470.3675 272.4375 469.6875 C273.68273437 469.53861328 273.68273437 469.53861328 274.953125 469.38671875 C278.95454195 468.58374382 282.48522929 467.16096843 286.1875 465.5 C286.88617188 465.18973877 287.58484375 464.87947754 288.3046875 464.55981445 C293.86886294 462.04143477 299.59321772 459.44880571 304.4375 455.6875 C304.4375 455.0275 304.4375 454.3675 304.4375 453.6875 C304.98921875 453.44257813 305.5409375 453.19765625 306.109375 452.9453125 C308.91389491 451.43011886 311.21853123 449.57665874 313.6875 447.5625 C314.57953125 446.83804688 315.4715625 446.11359375 316.390625 445.3671875 C317.06609375 444.81289063 317.7415625 444.25859375 318.4375 443.6875 C317.71909908 439.88838882 316.71194595 436.34091173 315.4375 432.6875 C314.7775 432.6875 314.1175 432.6875 313.4375 432.6875 C313.334375 431.965625 313.23125 431.24375 313.125 430.5 C312.36956053 427.40956579 311.28218685 425.27006159 309.4375 422.6875 C308.7775 422.6875 308.1175 422.6875 307.4375 422.6875 C307.17839844 421.95015625 306.91929687 421.2128125 306.65234375 420.453125 C299.76854862 404.78197725 279.97347074 394.6193631 264.9453125 388.70703125 C239.94447891 379.94339385 214.38679718 384.57537093 191.4375 396.6875 Z " fill="#FFFFFF" transform="translate(121.5625,1.3125)"/>
</svg>
