<?xml version="1.0" encoding="UTF-8"?>
<svg version="1.1" xmlns="http://www.w3.org/2000/svg" width="512" height="512">
<path d="M0 0 C0 0.66 0 1.32 0 2 C0.86625 2.103125 1.7325 2.20625 2.625 2.3125 C6.16683123 3.03398414 8.84312042 4.27123261 12 6 C12 6.66 12 7.32 12 8 C12.556875 8.226875 13.11375 8.45375 13.6875 8.6875 C16.63723273 10.36167263 18.6373884 12.57832311 21 15 C21.70125 15.474375 22.4025 15.94875 23.125 16.4375 C25.70785561 18.58987967 26.71855323 20.92452776 28 24 C28 24.99 28 25.98 28 27 C28.66 27 29.32 27 30 27 C33.09274744 34.79910225 34.1546362 41.51186838 34.0625 49.875 C34.05798828 50.65875 34.05347656 51.4425 34.04882812 52.25 C34.03714093 54.16670014 34.01920908 56.08336048 34 58 C37.63 58.99 41.26 59.98 45 61 C45 61.66 45 62.32 45 63 C45.680625 63.103125 46.36125 63.20625 47.0625 63.3125 C50.62915989 64.14725019 53.66222194 65.49472754 57 67 C57 67.66 57 68.32 57 69 C57.53625 69.103125 58.0725 69.20625 58.625 69.3125 C61.62502044 70.18092697 64.2379535 71.55620296 67 73 C67 73.66 67 74.32 67 75 C67.94875 75.2475 68.8975 75.495 69.875 75.75 C73.43559968 77.17423987 73.51742659 77.71715887 75 81 C76.90178785 81.60061233 76.90178785 81.60061233 79 82 C81.25 83.4375 81.25 83.4375 83 85 C83 85.66 83 86.32 83 87 C83.61875 87.2475 84.2375 87.495 84.875 87.75 C87.40358627 89.23740369 87.71839004 90.43678009 89 93 C90.32407669 93.68486725 91.65909241 94.34870203 93 95 C95.99054456 97.77172422 98.7600334 100.58110362 101 104 C101 104.66 101 105.32 101 106 C101.61875 106.2475 102.2375 106.495 102.875 106.75 C105.42503925 108.25002309 105.76222348 109.3697249 107 112 C107.66 112.61875 108.32 113.2375 109 113.875 C111.38990085 116.41426965 112.09157735 118.66911696 113 122 C113.66 122 114.32 122 115 122 C115.67119549 123.4562545 116.33681807 124.91507867 117 126.375 C117.37125 127.18710938 117.7425 127.99921875 118.125 128.8359375 C119 131 119 131 119 133 C119.66 133 120.32 133 121 133 C121.67305018 134.60149886 122.33822227 136.20631029 123 137.8125 C123.37125 138.70582031 123.7425 139.59914062 124.125 140.51953125 C125 143 125 143 125 146 C125.66 146 126.32 146 127 146 C127.67548578 148.05962852 128.34004312 150.12284322 129 152.1875 C129.37125 153.33605469 129.7425 154.48460937 130.125 155.66796875 C130.90630553 158.64320812 131.18363306 160.95283896 131 164 C131.66 164 132.32 164 133 164 C135.77044447 177.93240509 136.41912906 191.44342946 136.38012505 205.62855339 C136.37088311 209.29848698 136.38138043 212.96792403 136.39674377 216.63783264 C136.43146175 225.72984346 136.43859932 234.82180736 136.43664551 243.91387939 C136.43498355 251.64804918 136.448556 259.38185042 136.48512459 267.11593819 C136.49595232 270.73013684 136.48382951 274.34381082 136.47129822 277.95799255 C136.48019547 280.1607211 136.49026733 282.36344531 136.50170898 284.56616211 C136.48709373 286.07073975 136.48709373 286.07073975 136.47218323 287.60571289 C136.42589578 292.94757207 136.42589578 292.94757207 138.92958069 297.48414612 C139.61281906 297.9843779 140.29605743 298.48460968 141 299 C142.00568242 300.66324401 143.00664799 302.32936253 144 304 C144.66 304.33 145.32 304.66 146 305 C146.9296875 306.70703125 146.9296875 306.70703125 147.875 308.8125 C149.49704564 312.2079015 151.23396186 314.4183644 154 317 C154.66666667 318.33333333 155.33333333 319.66666667 156 321 C156.99 321.66 157.98 322.32 159 323 C162 328.33333333 162 328.33333333 162 331 C162.99 331.33 163.98 331.66 165 332 C168 336.33333333 168 336.33333333 168 339 C168.99 339.33 169.98 339.66 171 340 C174 344.33333333 174 344.33333333 174 347 C174.66 347 175.32 347 176 347 C180 352.29411765 180 352.29411765 180 356 C180.66 356 181.32 356 182 356 C184.62875405 361.37180176 185.6083965 366.04492601 186 372 C186.66 372 187.32 372 188 372 C188 377.94 188 383.88 188 390 C187.34 390 186.68 390 186 390 C185.96261719 390.64066406 185.92523438 391.28132813 185.88671875 391.94140625 C185.45662723 397.60006141 184.53913094 401.92173813 182 407 C181.34 407 180.68 407 180 407 C179.896875 407.5775 179.79375 408.155 179.6875 408.75 C178.89103535 411.35661158 177.80934723 412.9735311 176 415 C175.34 415 174.68 415 174 415 C173.7525 415.61875 173.505 416.2375 173.25 416.875 C171.77229238 419.38710296 170.56044823 419.76107344 168 421 C167.67 421.99 167.34 422.98 167 424 C161.77777778 427 161.77777778 427 159 427 C159 427.66 159 428.32 159 429 C157.48129302 429.485864 155.95989301 429.96331201 154.4375 430.4375 C153.16712891 430.83775391 153.16712891 430.83775391 151.87109375 431.24609375 C145.8374974 432.83042585 139.88700491 433.143627 133.67797852 433.11352539 C132.47675606 433.11374443 132.47675606 433.11374443 131.25126648 433.1139679 C128.62711801 433.11327605 126.00304219 433.105518 123.37890625 433.09765625 C121.55045104 433.09578948 119.72199532 433.0943668 117.89353943 433.09336853 C113.09809979 433.08956374 108.30269078 433.07975097 103.50726318 433.06866455 C98.60705988 433.05840649 93.70685159 433.05386152 88.80664062 433.04882812 C79.20441368 433.03812677 69.60220939 433.02107498 60 433 C60 437.62 60 442.24 60 447 C59.34 447 58.68 447 58 447 C57.896875 448.27875 57.79375 449.5575 57.6875 450.875 C57.11866692 456.13670594 55.6625387 460.99147146 54 466 C53.34 466 52.68 466 52 466 C51.71125 466.886875 51.4225 467.77375 51.125 468.6875 C50.75375 469.780625 50.3825 470.87375 50 472 C49.731875 472.845625 49.46375 473.69125 49.1875 474.5625 C47.64526774 477.72813465 45.57167948 479.60774002 43 482 C42.175 482.825 41.35 483.65 40.5 484.5 C39.675 485.325 38.85 486.15 38 487 C37.175 487.886875 36.35 488.77375 35.5 489.6875 C33.00438213 491.99594653 31.10913567 492.79089169 28 494 C27.67 494.99 27.34 495.98 27 497 C21.77777778 500 21.77777778 500 19 500 C19 500.66 19 501.32 19 502 C17.274773 502.67679658 15.54461061 503.34102 13.8125 504 C12.84957031 504.37125 11.88664063 504.7425 10.89453125 505.125 C8.07817642 505.97636772 5.91835561 506.17072647 3 506 C3 506.66 3 507.32 3 508 C-10.46804358 510.85685773 -23.53195642 510.85685773 -37 508 C-37 507.34 -37 506.68 -37 506 C-37.56847656 505.96261719 -38.13695312 505.92523438 -38.72265625 505.88671875 C-44.08435193 505.43021378 -48.1669508 504.36510918 -53 502 C-53 501.34 -53 500.68 -53 500 C-53.928125 499.71125 -54.85625 499.4225 -55.8125 499.125 C-59 498 -59 498 -62 496 C-62 495.34 -62 494.68 -62 494 C-63.0828125 493.6596875 -63.0828125 493.6596875 -64.1875 493.3125 C-67.58568303 491.72668125 -69.45230999 489.73876676 -72 487 C-73.2375 485.7625 -73.2375 485.7625 -74.5 484.5 C-75.7375 483.2625 -75.7375 483.2625 -77 482 C-77.845625 481.2575 -78.69125 480.515 -79.5625 479.75 C-82.79929651 476.09822958 -86 471.04999947 -86 466 C-86.66 466 -87.32 466 -88 466 C-88.67736481 463.96185767 -89.34143534 461.91929445 -90 459.875 C-90.37125 458.73804688 -90.7425 457.60109375 -91.125 456.4296875 C-91.96911949 453.12104059 -92.16509276 450.39471984 -92 447 C-92.66 447 -93.32 447 -94 447 C-94 442.38 -94 437.76 -94 433 C-95.49432053 433.00999275 -95.49432053 433.00999275 -97.01882935 433.02018738 C-106.46219744 433.08131892 -115.90552476 433.12612522 -125.34904671 433.15543652 C-130.20267181 433.17101292 -135.05613564 433.19210237 -139.90966797 433.22631836 C-144.60405918 433.25920083 -149.29829644 433.27691316 -153.99279404 433.28463173 C-155.77312514 433.29012389 -157.55344897 433.30084674 -159.33371353 433.31719017 C-171.06917544 433.4205237 -181.74755157 432.75081614 -193 429 C-193 428.34 -193 427.68 -193 427 C-193.928125 426.71125 -194.85625 426.4225 -195.8125 426.125 C-199 425 -199 425 -202 423 C-202 422.34 -202 421.68 -202 421 C-202.61875 420.7525 -203.2375 420.505 -203.875 420.25 C-206.40358627 418.76259631 -206.71839004 417.56321991 -208 415 C-209.31647119 414.30062468 -210.65022151 413.63270867 -212 413 C-214 410 -214 410 -214 407 C-214.66 407 -215.32 407 -216 407 C-220.59225513 395.47835991 -220.59225513 395.47835991 -220 390 C-220.66 390 -221.32 390 -222 390 C-222 384.06 -222 378.12 -222 372 C-221.34 372 -220.68 372 -220 372 C-219.96261719 371.43152344 -219.92523438 370.86304688 -219.88671875 370.27734375 C-219.43021378 364.91564807 -218.36510918 360.8330492 -216 356 C-215.34 356 -214.68 356 -214 356 C-213.8453125 355.1646875 -213.8453125 355.1646875 -213.6875 354.3125 C-212.85821592 351.5230899 -211.65700944 349.3860936 -210 347 C-209.34 347 -208.68 347 -208 347 C-207.566875 346.13375 -207.566875 346.13375 -207.125 345.25 C-206.08333333 343.16666667 -205.04166667 341.08333333 -204 339 C-203.34 339 -202.68 339 -202 339 C-201.71125 338.236875 -201.4225 337.47375 -201.125 336.6875 C-200 334 -200 334 -198 331 C-197.34 331 -196.68 331 -196 331 C-195.71125 330.2575 -195.4225 329.515 -195.125 328.75 C-193.48235007 324.7346335 -192.05648852 322.05648852 -189 319 C-188.484375 318.13375 -187.96875 317.2675 -187.4375 316.375 C-186 314 -186 314 -184 313 C-183.01902721 311.25070304 -183.01902721 311.25070304 -182.125 309.1875 C-180.49696393 305.78617556 -178.76827441 303.58967606 -176 301 C-174.99431758 299.33675599 -173.99335201 297.67063747 -173 296 C-172.34 295.67 -171.68 295.34 -171 295 C-170.99761165 294.44029605 -170.99522329 293.8805921 -170.99276257 293.30392742 C-170.93325488 279.59432282 -170.85730087 265.88489083 -170.76428509 252.17547131 C-170.71978309 245.54528991 -170.68048383 238.91519528 -170.65356445 232.28491211 C-170.62732871 225.87216865 -170.58678667 219.45965322 -170.53681374 213.04705238 C-170.52028092 210.61500219 -170.50868294 208.18291268 -170.50238609 205.75081444 C-170.46191757 191.54145331 -169.75839622 177.9578977 -167 164 C-166.34 164 -165.68 164 -165 164 C-164.896875 162.88625 -164.79375 161.7725 -164.6875 160.625 C-164.070803 155.56445698 -162.57493852 150.83377357 -161 146 C-160.34 146 -159.68 146 -159 146 C-158.896875 145.154375 -158.79375 144.30875 -158.6875 143.4375 C-157.9171146 139.58557299 -156.63725486 136.55924969 -155 133 C-154.34 133 -153.68 133 -153 133 C-152.79503906 132.37351563 -152.59007812 131.74703125 -152.37890625 131.1015625 C-152.10949219 130.28429687 -151.84007812 129.46703125 -151.5625 128.625 C-151.29566406 127.81289062 -151.02882813 127.00078125 -150.75390625 126.1640625 C-150 124 -150 124 -149 122 C-148.34 122 -147.68 122 -147 122 C-146.773125 121.13375 -146.54625 120.2675 -146.3125 119.375 C-144.80195937 115.49075268 -142.76099799 113.09770506 -140 110 C-139.443125 109.21625 -138.88625 108.4325 -138.3125 107.625 C-137.879375 107.08875 -137.44625 106.5525 -137 106 C-136.34 106 -135.68 106 -135 106 C-134.773125 105.278125 -134.54625 104.55625 -134.3125 103.8125 C-132.73764802 100.43781719 -130.71862354 98.51969987 -128 96 C-127.443125 95.401875 -126.88625 94.80375 -126.3125 94.1875 C-125 93 -125 93 -123 93 C-122.7525 92.38125 -122.505 91.7625 -122.25 91.125 C-120.79371361 88.64931313 -119.62187494 88.04874998 -117 87 C-117 86.34 -117 85.68 -117 85 C-112.64705882 81 -112.64705882 81 -109 81 C-108.79375 80.38125 -108.5875 79.7625 -108.375 79.125 C-106.46293283 76.1699871 -104.27219312 76.04431695 -101 75 C-100.505 73.515 -100.505 73.515 -100 72 C-96.78715662 70.11420063 -94.75366417 69 -91 69 C-91 68.34 -91 67.68 -91 67 C-89.56570999 66.32645501 -88.12742943 65.66140299 -86.6875 65 C-85.88699219 64.62875 -85.08648437 64.2575 -84.26171875 63.875 C-82 63 -82 63 -79 63 C-79 62.34 -79 61.68 -79 61 C-75.37 60.01 -71.74 59.02 -68 58 C-68.03480469 56.91203125 -68.06960937 55.8240625 -68.10546875 54.703125 C-68.31442115 45.21148928 -68.35882594 35.71765188 -64 27 C-63.34 27 -62.68 27 -62 27 C-61.8453125 25.9171875 -61.8453125 25.9171875 -61.6875 24.8125 C-59.86015903 17.33701421 -54.02384062 12.39577559 -48 8 C-47.34 8 -46.68 8 -46 8 C-45.67 7.01 -45.34 6.02 -45 5 C-43.2578125 4.05078125 -43.2578125 4.05078125 -41.125 3.3125 C-40.42632812 3.06113281 -39.72765625 2.80976562 -39.0078125 2.55078125 C-37 2 -37 2 -34 2 C-34 1.34 -34 0.68 -34 0 C-22.28069494 -2.58378379 -11.71930506 -2.58378379 0 0 Z M-43 104 C-43 104.66 -43 105.32 -43 106 C-44.423125 106.1546875 -44.423125 106.1546875 -45.875 106.3125 C-50.73491554 106.9910919 -55.33803874 108.5085476 -60 110 C-60 110.66 -60 111.32 -60 112 C-61.3303125 112.433125 -61.3303125 112.433125 -62.6875 112.875 C-68.95546319 114.9588188 -68.95546319 114.9588188 -74 119 C-75.66666667 120 -77.33333333 121 -79 122 C-80.02019573 122.9793879 -81.02149805 123.97895449 -82 125 C-82.721875 125.515625 -83.44375 126.03125 -84.1875 126.5625 C-84.785625 127.036875 -85.38375 127.51125 -86 128 C-86 128.66 -86 129.32 -86 130 C-86.61875 130.2475 -87.2375 130.495 -87.875 130.75 C-90.38710296 132.22770762 -90.76107344 133.43955177 -92 136 C-93.485 136.495 -93.485 136.495 -95 137 C-97.3300037 140.21717354 -97.3300037 140.21717354 -98 144 C-98.61875 144.226875 -99.2375 144.45375 -99.875 144.6875 C-102.62260139 146.38454792 -102.93210179 148.02514071 -104 151 C-104.99 151.495 -104.99 151.495 -106 152 C-107.13395483 154.27069703 -107.13395483 154.27069703 -108.125 156.9375 C-108.47820312 157.83339844 -108.83140625 158.72929687 -109.1953125 159.65234375 C-110.10808128 161.9017019 -110.10808128 161.9017019 -110 164 C-110.66 164 -111.32 164 -112 164 C-112.64881448 166.54093855 -113.29412899 169.08268273 -113.9375 171.625 C-114.11990234 172.33785156 -114.30230469 173.05070312 -114.49023438 173.78515625 C-115.87810865 179.28618521 -117.1609378 184.66560761 -117.0625 190.375 C-117.041875 191.57125 -117.02125 192.7675 -117 194 C-117.66 194 -118.32 194 -119 194 C-119.00238835 194.55584904 -119.00477671 195.11169807 -119.00723743 195.68439102 C-119.06657383 209.25801982 -119.1424265 222.83147171 -119.23571491 236.40491104 C-119.28033836 242.96914682 -119.31961226 249.53332168 -119.34643555 256.09765625 C-119.37254841 262.43904889 -119.41300745 268.78020608 -119.46318626 275.12145233 C-119.47980102 277.53416757 -119.49134871 279.94692349 -119.49761391 282.35968781 C-119.50731363 285.7533861 -119.53544342 289.14648929 -119.56762695 292.54003906 C-119.56619186 293.52547699 -119.56475677 294.51091492 -119.5632782 295.5262146 C-119.64710311 301.82439445 -120.65219445 307.42012806 -122.35895061 313.4849205 C-123.12349293 316.05192785 -123.12349293 316.05192785 -123 319 C-123.66 319 -124.32 319 -125 319 C-125.66 320.11375 -126.32 321.2275 -127 322.375 C-127.37125 323.00148438 -127.7425 323.62796875 -128.125 324.2734375 C-129.15068348 325.97472667 -129.15068348 325.97472667 -129 328 C-129.99 328.33 -130.98 328.66 -132 329 C-134.07530387 331.92079805 -135 333.37546731 -135 337 C-135.61875 337.2475 -136.2375 337.495 -136.875 337.75 C-139.42503925 339.25002309 -139.76222348 340.3697249 -141 343 C-142.33333333 344.33333333 -143.66666667 345.66666667 -145 347 C-145.68268138 348.32520503 -146.3507041 349.65812182 -147 351 C-148 352 -149 353 -150 354 C-150.515625 354.86625 -151.03125 355.7325 -151.5625 356.625 C-153 359 -153 359 -155 360 C-155.98097279 361.74929696 -155.98097279 361.74929696 -156.875 363.8125 C-158.49704564 367.2079015 -160.23396186 369.4183644 -163 372 C-163.350625 372.70125 -163.70125 373.4025 -164.0625 374.125 C-165 376 -165 376 -168 378 C-168 378.99 -168 379.98 -168 381 C-68.34 381 31.32 381 134 381 C132.97611024 376.90444097 132.75212261 376.64627174 130 374 C129.484375 373.13375 128.96875 372.2675 128.4375 371.375 C127.22087094 368.88809625 127.22087094 368.88809625 125 368 C124.0703125 366.29296875 124.0703125 366.29296875 123.125 364.1875 C121.50295436 360.7920985 119.76603814 358.5816356 117 356 C116.33333333 354.66666667 115.66666667 353.33333333 115 352 C114.01 351.34 113.02 350.68 112 350 C110.98308736 348.00854609 109.98357352 346.00812926 109 344 C107.54166642 342.37485532 107.54166642 342.37485532 106 341 C105.484375 340.278125 104.96875 339.55625 104.4375 338.8125 C103.7259375 337.9153125 103.7259375 337.9153125 103 337 C102.34 337 101.68 337 101 337 C100.896875 336.443125 100.79375 335.88625 100.6875 335.3125 C99.85821592 332.5230899 98.65700944 330.3860936 97 328 C96.34 328 95.68 328 95 328 C94.566875 326.6078125 94.566875 326.6078125 94.125 325.1875 C93.1125 321.90208333 93.1125 321.90208333 91 319 C90.34 319 89.68 319 89 319 C88.33333333 315.66666667 87.66666667 312.33333333 87 309 C86.82722566 308.21834378 86.65445131 307.43668756 86.47644138 306.6313448 C86.0182763 304.10093842 85.86232325 301.79040639 85.84178162 299.22270203 C85.82709839 297.82405663 85.82709839 297.82405663 85.81211853 296.39715576 C85.80636307 295.3865509 85.8006076 294.37594604 85.79467773 293.3347168 C85.78477814 292.2610939 85.77487854 291.18747101 85.76467896 290.08131409 C85.73312498 286.53730464 85.70833056 282.99328179 85.68359375 279.44921875 C85.66301896 276.99013422 85.64202235 274.53105318 85.62062073 272.07197571 C85.56545431 265.6029646 85.51602104 259.13392187 85.46777344 252.66485596 C85.4175188 246.06234933 85.36185341 239.45988857 85.30664062 232.85742188 C85.19912544 219.90498738 85.09748194 206.9525137 85 194 C84.34 194 83.68 194 83 194 C83.03996094 192.87078125 83.07992187 191.7415625 83.12109375 190.578125 C83.12003757 185.78305888 82.18089928 181.39387244 81.0625 176.75 C80.88009766 175.96109375 80.69769531 175.1721875 80.50976562 174.359375 C79.70577473 170.89782876 78.8664244 167.44643302 78 164 C77.34 164 76.68 164 76 164 C74.66666667 160 73.33333333 156 72 152 C71.54625 151.54625 71.0925 151.0925 70.625 150.625 C69 149 69 149 67.4375 146.3125 C66.963125 145.549375 66.48875 144.78625 66 144 C65.34 144 64.68 144 64 144 C63.71125 143.236875 63.4225 142.47375 63.125 141.6875 C62.03730987 138.84970692 62.03730987 138.84970692 60 136 C59.34 136 58.68 136 58 136 C57.7525 135.38125 57.505 134.7625 57.25 134.125 C56.17856271 131.86253506 56.17856271 131.86253506 54 131 C51.47154472 129.73577236 51.23577236 128.47154472 50 126 C48.6846659 125.29848848 47.34882408 124.63474075 46 124 C44.66666667 122.66666667 43.33333333 121.33333333 42 120 C40.67432801 119.31822584 39.34246312 118.64808564 38 118 C37.67 117.34 37.34 116.68 37 116 C34.95980949 114.86993233 34.95980949 114.86993233 32.5625 113.875 C31.75941406 113.52179688 30.95632813 113.16859375 30.12890625 112.8046875 C28.06751523 111.88214418 28.06751523 111.88214418 26 112 C26 111.34 26 110.68 26 110 C24.10751181 109.32389577 22.2108398 108.65949561 20.3125 108 C19.25675781 107.62875 18.20101562 107.2575 17.11328125 106.875 C14.21637944 106.0608143 11.98299377 105.82290204 9 106 C9 105.34 9 104.68 9 104 C-7.40900011 99.84735378 -26.59607064 99.58632428 -43 104 Z M-42 433 C-41.44816025 439.66517146 -41.44816025 439.66517146 -39 445 C-38.34 445 -37.68 445 -37 445 C-36.938125 445.556875 -36.87625 446.11375 -36.8125 446.6875 C-35.15204115 451.41342134 -31.77172779 453.60736656 -27.4375 455.8125 C-19.2251444 458.50355438 -10.87121214 457.74767978 -3.0703125 454.2109375 C-0.25992031 452.5671232 1.40354266 450.83008347 3 448 C3 447.01 3 446.02 3 445 C3.99 444.67 4.98 444.34 6 444 C7.39044898 440.12137916 8 437.13537997 8 433 C-8.5 433 -25 433 -42 433 Z " fill="#FFF13C" transform="translate(273,2)"/>
</svg>
