<?xml version="1.0" standalone="no"?>
<!DOCTYPE svg PUBLIC "-//W3C//DTD SVG 20010904//EN"
 "http://www.w3.org/TR/2001/REC-SVG-20010904/DTD/svg10.dtd">
<svg version="1.0" xmlns="http://www.w3.org/2000/svg"
 width="512.000000pt" height="512.000000pt" viewBox="0 0 512.000000 512.000000"
 preserveAspectRatio="xMidYMid meet">

<g transform="translate(0.000000,512.000000) scale(0.100000,-0.100000)"
fill="#919191" stroke="none">
<path d="M351 5104 c-170 -46 -304 -184 -340 -352 -15 -73 -15 -1310 0 -1384
32 -153 150 -287 302 -345 30 -12 93 -18 227 -22 l185 -6 180 -240 180 -240
42 -3 42 -3 183 245 183 245 1590 1 c1034 0 1605 4 1634 11 171 39 319 194
351 368 14 73 13 1291 0 1362 -24 128 -118 259 -228 317 -124 66 -2 62 -1892
62 -1713 0 -1716 0 -1738 -20 -26 -24 -29 -76 -8 -106 14 -19 46 -19 1748 -24
l1733 -5 55 -26 c80 -37 115 -72 152 -147 l33 -67 3 -638 c2 -549 1 -647 -13
-699 -19 -73 -56 -131 -113 -175 -88 -67 22 -63 -1757 -63 l-1612 0 -24 -24
c-13 -14 -89 -112 -169 -220 -80 -107 -147 -195 -150 -195 -3 0 -70 88 -150
195 -80 107 -155 205 -168 217 -22 21 -35 22 -225 27 -178 5 -207 8 -248 26
-66 31 -124 87 -156 152 l-28 57 0 675 0 675 28 57 c32 65 89 121 156 152 43
19 67 21 334 26 271 5 290 6 303 24 23 33 18 82 -12 105 -26 20 -38 21 -293
20 -199 0 -280 -4 -320 -15z"/>
<path d="M1066 4609 c-16 -12 -56 -80 -96 -159 l-69 -138 -83 -11 c-46 -7
-117 -17 -157 -23 -81 -12 -115 -34 -127 -82 -13 -52 5 -79 120 -191 l114
-110 -24 -140 c-31 -184 -31 -200 5 -236 47 -46 80 -40 239 43 l138 72 137
-72 c158 -83 191 -89 238 -43 36 36 36 52 5 236 l-24 140 114 110 c115 112
133 139 120 191 -13 49 -49 71 -144 84 -48 7 -118 17 -157 24 l-70 11 -66 136
c-40 82 -78 144 -94 157 -35 28 -85 28 -119 1z m189 -425 c14 -9 75 -23 140
-32 l115 -16 -90 -92 c-103 -105 -103 -106 -74 -262 8 -46 13 -86 10 -89 -2
-3 -48 18 -102 46 -58 31 -110 51 -129 51 -19 0 -71 -20 -129 -51 -54 -28 -99
-49 -102 -46 -3 3 2 45 10 93 28 157 29 154 -74 258 l-90 92 115 16 c67 9 126
23 141 33 16 10 45 57 77 122 l51 105 53 -106 c31 -61 63 -112 78 -122z"/>
<path d="M2505 4611 c-22 -13 -48 -54 -99 -158 l-69 -141 -126 -17 c-69 -10
-142 -21 -162 -26 -51 -13 -84 -51 -84 -100 0 -37 8 -46 119 -158 l118 -119
-26 -150 c-15 -83 -24 -163 -20 -177 9 -36 59 -75 96 -75 19 0 85 28 169 72
l137 71 140 -71 c150 -77 183 -85 226 -51 47 37 49 57 20 225 l-27 155 117
118 c111 113 116 120 116 160 0 33 -6 49 -28 70 -27 28 -78 39 -290 67 l-54 7
-69 143 c-55 114 -75 147 -98 159 -39 20 -69 19 -106 -4z m104 -298 c68 -135
73 -139 211 -159 63 -10 116 -18 118 -19 1 -1 -33 -37 -77 -80 -106 -102 -108
-110 -86 -242 9 -59 20 -113 23 -121 2 -8 -42 11 -100 42 -67 36 -117 56 -138
56 -21 0 -71 -20 -138 -56 -79 -42 -103 -51 -99 -37 3 10 13 66 23 124 20 130
17 138 -91 235 -41 37 -75 70 -75 74 0 4 50 14 112 23 72 10 120 22 137 34 15
11 47 62 75 121 27 56 51 102 53 102 1 0 25 -44 52 -97z"/>
<path d="M3936 4609 c-16 -12 -56 -80 -96 -159 l-69 -138 -83 -11 c-239 -35
-231 -33 -260 -62 -22 -21 -28 -37 -28 -70 0 -41 4 -47 118 -161 l118 -118
-23 -128 c-31 -176 -30 -206 6 -243 47 -46 80 -40 238 43 l137 72 137 -72
c142 -75 171 -82 218 -57 54 28 58 59 28 234 l-27 156 109 105 c135 130 148
152 119 214 -19 43 -50 54 -211 77 l-154 22 -69 139 c-37 77 -79 148 -92 159
-32 25 -83 24 -116 -2z m188 -425 c14 -8 74 -23 133 -31 59 -9 110 -17 112
-20 3 -2 -34 -43 -81 -91 -47 -48 -88 -97 -90 -108 -3 -12 3 -70 13 -130 10
-59 17 -110 15 -112 -2 -2 -49 20 -105 47 -55 28 -114 51 -129 51 -16 0 -73
-23 -126 -51 -54 -28 -100 -49 -103 -45 -3 3 2 46 11 95 28 154 29 150 -74
256 l-90 92 102 13 c157 19 158 20 224 152 l56 113 54 -107 c31 -62 64 -114
78 -124z"/>
<path d="M965 2240 c-611 -96 -1038 -662 -954 -1266 58 -420 356 -780 756
-914 172 -57 347 -72 526 -45 246 37 440 136 623 319 106 106 154 173 217 296
185 367 144 827 -104 1162 -71 95 -215 228 -311 287 -176 109 -350 160 -558
166 -74 2 -162 0 -195 -5z m406 -173 c533 -138 847 -703 683 -1231 -30 -93
-93 -219 -150 -294 -37 -50 -39 -52 -48 -30 -57 147 -144 279 -228 349 -57 47
-151 108 -189 121 -16 5 -29 12 -29 14 0 2 21 25 46 51 57 60 100 149 116 240
23 136 -26 287 -126 387 -227 226 -595 160 -734 -131 -36 -75 -37 -82 -37
-188 0 -106 1 -113 36 -185 20 -41 57 -99 83 -127 27 -29 42 -53 34 -53 -32 0
-176 -97 -243 -164 -79 -79 -135 -165 -175 -267 l-26 -68 -40 52 c-62 83 -140
247 -165 350 -32 130 -33 334 -1 461 27 106 94 254 156 340 50 70 170 188 236
233 62 42 175 98 249 122 167 57 375 64 552 18z m-114 -440 c185 -96 226 -342
80 -485 -63 -62 -126 -87 -217 -86 -87 0 -154 29 -214 90 -155 160 -86 430
128 500 60 20 163 11 223 -19z m-12 -742 c210 -40 390 -200 460 -409 14 -41
25 -84 25 -95 0 -13 -19 -33 -57 -59 -332 -225 -764 -225 -1095 0 -66 44 -68
52 -38 150 25 81 81 174 145 239 152 156 345 215 560 174z"/>
<path d="M2753 2140 c-121 -18 -203 -120 -203 -254 0 -115 69 -219 160 -244
35 -10 299 -12 1141 -10 l1096 3 48 30 c33 21 57 47 79 85 28 49 31 64 31 135
0 71 -3 86 -31 135 -38 68 -96 107 -179 120 -71 12 -2063 11 -2142 0z m2178
-179 c24 -24 29 -38 29 -76 0 -38 -5 -52 -29 -76 l-29 -29 -1069 0 c-1186 0
-1099 -5 -1129 66 -18 42 -9 87 24 119 l25 25 1074 0 1075 0 29 -29z"/>
<path d="M2759 1380 c-62 -11 -99 -31 -141 -78 -44 -49 -62 -100 -62 -177 0
-78 18 -128 63 -178 74 -83 -22 -77 1214 -77 1191 0 1126 -3 1196 56 109 92
108 304 -2 401 -50 44 -98 57 -213 57 -120 1 -144 -11 -144 -74 0 -61 24 -74
144 -80 66 -3 109 -10 119 -19 28 -23 41 -83 27 -125 -23 -71 62 -66 -1128
-66 l-1073 0 -24 24 c-43 44 -45 124 -4 162 20 18 55 19 841 24 l820 5 19 24
c24 30 24 72 0 102 l-19 24 -794 1 c-436 1 -814 -2 -839 -6z"/>
<path d="M2758 620 c-119 -20 -198 -123 -198 -255 0 -106 50 -192 134 -231 48
-22 63 -24 228 -24 171 0 177 1 192 22 23 32 20 81 -5 104 -18 17 -42 20 -184
24 -177 5 -187 9 -211 67 -18 41 -8 86 24 118 l25 25 1074 0 1075 0 29 -29
c24 -24 29 -38 29 -76 0 -38 -5 -52 -29 -76 l-29 -29 -750 0 c-743 0 -750 0
-776 -21 -20 -16 -26 -29 -26 -58 0 -76 -57 -72 817 -69 l780 3 48 30 c159 99
149 365 -17 452 l-53 28 -1065 1 c-586 1 -1086 -2 -1112 -6z"/>
</g>
</svg>
