<?xml version="1.0" encoding="UTF-8"?>
<svg version="1.1" xmlns="http://www.w3.org/2000/svg" width="512" height="512">
<path d="M0 0 C31.08804293 28.73610059 50.49673045 69.27995585 52.90625 111.6875 C52.9371875 112.6775 52.968125 113.6675 53 114.6875 C53.07734375 116.605625 53.07734375 116.605625 53.15625 118.5625 C54.20867061 156.8295615 42.00265956 193.57202232 20 224.6875 C21.5847358 228.55078627 24.05956887 230.97626923 27.0078125 233.890625 C27.49329559 234.3732782 27.97877869 234.8559314 28.47897339 235.35321045 C30.02299866 236.88608562 31.57384824 238.41184004 33.125 239.9375 C34.17624009 240.97870361 35.22702657 242.02036541 36.27734375 243.0625 C38.84633004 245.60949464 41.42148161 248.15015177 44 250.6875 C45.12117461 249.7386108 46.2406356 248.7876966 47.359375 247.8359375 C47.98295898 247.30661621 48.60654297 246.77729492 49.24902344 246.23193359 C51.14129821 244.60930538 51.14129821 244.60930538 53.25 242.3125 C57.82606119 239.60846384 61.86503569 239.56031536 67 240.6875 C69.36412525 242.35081673 69.36412525 242.35081673 71.66816711 244.55422974 C72.53423899 245.37404453 73.40031086 246.19385933 74.29262733 247.038517 C75.6327768 248.34976358 75.6327768 248.34976358 77 249.6875 C77.87023489 250.52997158 78.74046978 251.37244316 79.63707542 252.24044418 C82.48322161 255.02000003 85.30513815 257.82301636 88.12182617 260.63232422 C89.19549753 261.69971126 90.26935042 262.76691572 91.34336853 263.83395386 C94.83006445 267.29986186 98.3116573 270.77087256 101.79296875 274.2421875 C103.00068972 275.44585312 104.20844153 276.6494878 105.41622353 277.85309219 C111.08755884 283.50544102 116.75652339 289.1601543 122.42255896 294.81781566 C128.9318975 301.31736964 135.44944851 307.80854159 141.97403353 314.29278934 C147.04125067 319.32976373 152.10068843 324.37446902 157.15445882 329.42493451 C160.16276715 332.43090427 163.17421814 335.4335488 166.19399071 338.42800522 C169.03388858 341.24446979 171.8639292 344.07049062 174.68702126 346.90379715 C175.7174638 347.93473125 176.75126326 348.9623241 177.78884888 349.98606873 C189.63725028 361.68534162 198.03981817 374.24495443 199.25 391.1875 C198.96555876 406.06377662 193.38908685 418.16880078 182.94970703 428.46679688 C173.6639382 437.03653416 162.23723751 441.62394103 149.59375 441.7109375 C130.62208074 440.92732507 117.91105625 431.22985248 105.04272461 418.20019531 C103.8925032 417.05048387 102.74140511 415.90164894 101.58950806 414.75361633 C98.49218303 411.66166677 95.4073202 408.55755934 92.324826 405.45083332 C89.08827821 402.19286087 85.84065865 398.9459598 82.59437561 395.69769287 C77.15366125 390.25055237 71.72037763 384.79609437 66.29223633 379.33642578 C59.32349518 372.32726292 52.34322458 365.32970285 45.35904598 358.33592606 C39.34629691 352.31488225 33.33802221 346.28937958 27.33088994 340.26273251 C26.04282877 338.97062303 24.75461303 337.67866763 23.46624446 336.38686466 C19.79922044 332.71006022 16.13456958 329.03092657 12.47395706 325.34773827 C11.3645922 324.23225047 10.25438817 323.11759654 9.14329338 322.00383186 C7.62927771 320.48583564 6.1183712 318.96481227 4.60826111 317.44293213 C3.76159347 316.591991 2.91492582 315.74104988 2.04260159 314.86432266 C-2.10598806 310.44312569 -2.60120022 307.42573654 -2.5234375 301.546875 C-1.62157993 296.62030976 1.51342487 294.03968893 5 290.6875 C6.485 288.7075 6.485 288.7075 8 286.6875 C0.08 278.7675 -7.84 270.8475 -16 262.6875 C-19.91790252 264.25466101 -22.0923018 265.33056157 -25.3125 267.75 C-60.89037755 293.00557729 -104.72985841 300.47735196 -147.44140625 293.72265625 C-189.64491318 286.25228686 -227.6352255 263.46736733 -254 229.6875 C-254.78375 228.69363281 -255.5675 227.69976562 -256.375 226.67578125 C-276.51834475 200.32323118 -287.98023625 166.80765326 -289 133.6875 C-289.03996094 132.42550781 -289.07992188 131.16351563 -289.12109375 129.86328125 C-289.7544538 99.14531869 -282.69289996 69.65968186 -268 42.6875 C-267.18789063 41.15609375 -267.18789063 41.15609375 -266.359375 39.59375 C-244.77457808 0.61537886 -207.31096306 -27.39959968 -164.90234375 -39.84765625 C-105.87139793 -56.37026841 -45.07030568 -40.80815258 0 0 Z M-180 17.6875 C-180.60924316 18.03683594 -181.21848633 18.38617188 -181.84619141 18.74609375 C-190.93035641 24.04094733 -198.49371733 30.36127808 -206 37.6875 C-206.96486328 38.55955078 -206.96486328 38.55955078 -207.94921875 39.44921875 C-228.10712358 58.10350364 -239.68655139 88.70210131 -241 115.6875 C-241.07927734 117.27691406 -241.07927734 117.27691406 -241.16015625 118.8984375 C-242.0118189 153.03900109 -229.2907285 183.57643858 -206.9765625 208.9921875 C-186.94222955 230.04091705 -156.72203964 244.08431689 -127.67578125 244.92578125 C-112.97950705 245.14784583 -99.17961287 244.73837452 -85 240.6875 C-84.26394531 240.47851074 -83.52789062 240.26952148 -82.76953125 240.05419922 C-52.18977213 231.02234558 -27.03941773 209.46173312 -11.79296875 181.71875 C3.69469195 152.59233216 6.91077264 118.16674782 -2.64941406 86.5390625 C-12.25287423 56.45660794 -33.47478857 30.52830247 -61.2890625 15.49609375 C-98.74474865 -3.19132225 -143.47988801 -3.45215666 -180 17.6875 Z " fill="#FFFFFF" transform="translate(301,58.3125)"/>
<path d="M0 0 C1.19044922 0.00418945 2.38089844 0.00837891 3.60742188 0.01269531 C15.33488752 0.1635412 25.35033108 2.15439271 36.3046875 6.41796875 C38.84793767 7.4261998 38.84793767 7.4261998 42.25 8.1875 C47.20423446 9.80888582 51.30388413 12.53298331 55.6875 15.3125 C56.72777344 15.93511719 56.72777344 15.93511719 57.7890625 16.5703125 C75.78711801 27.39782797 75.78711801 27.39782797 78.3828125 35.4765625 C78.98569765 38.75406541 79.28710937 41.18382354 77.69140625 44.1875 C74.86367287 47.6781145 72.9227289 49.16717895 68.5 49.6875 C63.84887931 49.23001272 60.97820803 47.61321019 57.6875 44.3125 C57.6875 43.6525 57.6875 42.9925 57.6875 42.3125 C56.6665625 42.003125 56.6665625 42.003125 55.625 41.6875 C52.9627088 40.44132114 51.59654965 39.43046891 49.48828125 37.484375 C34.45464046 24.39506149 12.23028721 21.01052476 -7.03222656 22.14550781 C-27.60056785 23.65179747 -43.80886662 31.97265285 -59.3125 45.3125 C-63.89498668 49.24417964 -63.89498668 49.24417964 -67.75 49.875 C-72.44897787 49.13305613 -73.97961107 47.64538893 -77.3125 44.3125 C-78.8672669 41.20296621 -78.59894437 38.74983239 -78.3125 35.3125 C-75.32005284 28.75761575 -69.06431567 24.42093977 -63.3125 20.3125 C-62.6525 20.3125 -61.9925 20.3125 -61.3125 20.3125 C-61.3125 19.6525 -61.3125 18.9925 -61.3125 18.3125 C-58.578125 16.99414062 -58.578125 16.99414062 -55.84375 15.67578125 C-53.68151699 14.51124526 -51.71778143 13.25435451 -49.67578125 11.8984375 C-45.03416141 8.97243384 -40.20467767 7.28913219 -35 5.625 C-34.12666016 5.33044922 -33.25332031 5.03589844 -32.35351562 4.73242188 C-21.56099298 1.19844647 -11.34178928 -0.05449701 0 0 Z " fill="#FFFFFF" transform="translate(183.3125,75.6875)"/>
</svg>
