<?xml version="1.0" encoding="UTF-8"?>
<svg version="1.1" xmlns="http://www.w3.org/2000/svg" width="512" height="512">
<path d="M0 0 C2.42512002 0.00103892 4.85024174 -0.00000311 7.27536011 -0.00302124 C12.34056982 -0.00284249 17.40513828 0.01787567 22.47021484 0.05419922 C28.94407 0.09962049 35.41699184 0.10064571 41.8909626 0.08716393 C46.89261081 0.08046406 51.89404841 0.09378171 56.89565659 0.11342239 C59.28213268 0.12108806 61.66863228 0.12343882 64.05511856 0.1202507 C67.3954314 0.11950433 70.73457145 0.144886 74.07470703 0.17724609 C75.53537094 0.16981384 75.53537094 0.16981384 77.02554321 0.16223145 C84.70918381 0.28032122 91.40391643 2.0565972 97.703125 6.5859375 C98.58871094 7.52179687 98.58871094 7.52179687 99.4921875 8.4765625 C100.09804688 9.09015625 100.70390625 9.70375 101.328125 10.3359375 C106.36218314 17.06267021 107.9654495 23.68408494 109.1171875 31.9140625 C109.27743408 32.98035889 109.43768066 34.04665527 109.6027832 35.14526367 C110.12606364 38.66997296 110.62512225 42.1973638 111.1171875 45.7265625 C111.29813965 47.02368164 111.4790918 48.32080078 111.66552734 49.65722656 C112.39121215 54.88033641 113.11321124 60.10382227 113.81054688 65.33081055 C114.04547852 67.08325073 114.04547852 67.08325073 114.28515625 68.87109375 C114.42203857 69.90596924 114.5589209 70.94084473 114.69995117 72.00708008 C114.90648315 73.35322388 114.90648315 73.35322388 115.1171875 74.7265625 C115.22047363 75.45705811 115.32375977 76.18755371 115.43017578 76.94018555 C116.38462899 79.42196739 117.61021409 79.94204316 119.94140625 81.1640625 C120.72322266 81.58429688 121.50503906 82.00453125 122.31054688 82.4375 C123.13361328 82.86289063 123.95667969 83.28828125 124.8046875 83.7265625 C126.41402798 84.57833854 128.02212736 85.43246411 129.62890625 86.2890625 C130.787854 86.89814453 130.787854 86.89814453 131.97021484 87.51953125 C133.89944752 88.60414876 135.61562911 89.78132661 137.38671875 91.1015625 C139.93234354 92.99250747 139.93234354 92.99250747 142.48094177 92.4432373 C145.0851017 91.73528516 147.52292076 90.88807377 150.02758789 89.88476562 C150.97529556 89.50767456 151.92300323 89.1305835 152.89942932 88.74206543 C153.91101608 88.33476196 154.92260284 87.9274585 155.96484375 87.5078125 C157.01369247 87.08987427 158.0625412 86.67193604 159.14317322 86.24133301 C162.49029978 84.90709672 165.83514568 83.56726349 169.1796875 82.2265625 C172.52803008 80.88645667 175.87685643 79.54760648 179.22691345 78.21179199 C181.31029725 77.38086119 183.39266166 76.54736899 185.47389221 75.71105957 C186.89072548 75.14542297 186.89072548 75.14542297 188.33618164 74.56835938 C189.16493301 74.23606323 189.99368439 73.90376709 190.84754944 73.56140137 C199.28905208 70.45637127 206.88313049 71.26092738 215.28125 74.16796875 C223.27248319 78.55984484 227.82393555 84.7065061 232.1796875 92.5390625 C232.72568604 93.49119629 233.27168457 94.44333008 233.83422852 95.42431641 C235.002687 97.4641257 236.16488268 99.50753328 237.32128906 101.55419922 C239.74312932 105.83225689 242.20674043 110.08566265 244.66894531 114.34057617 C246.56541007 117.62010489 248.45496888 120.90354118 250.34375 124.1875 C253.42192047 129.53178874 256.52802281 134.85913259 259.64575195 140.18041992 C264.4336177 148.35589562 269.20719176 156.53987856 273.8671875 164.7890625 C274.27364502 165.49675781 274.68010254 166.20445312 275.09887695 166.93359375 C280.60214836 176.77014034 281.33081131 185.34403209 278.359375 196.07421875 C274.99765438 203.25223228 269.7298678 208.30832477 263.5546875 213.1015625 C262.85359863 213.65827637 262.15250977 214.21499023 261.43017578 214.78857422 C259.33494229 216.4466077 257.22874156 218.08938358 255.1171875 219.7265625 C254.52921387 220.18353516 253.94124023 220.64050781 253.33544922 221.11132812 C250.69026294 223.16272884 248.03500744 225.19945421 245.37109375 227.2265625 C242.97986358 229.05154582 240.61958578 230.91136015 238.26953125 232.7890625 C237.30877686 233.55452393 237.30877686 233.55452393 236.32861328 234.33544922 C235.08554398 235.32792291 233.84550339 236.32420489 232.60888672 237.32470703 C228.33899709 240.7265625 228.33899709 240.7265625 226.1171875 240.7265625 C226.30023438 241.64050781 226.48328125 242.55445313 226.671875 243.49609375 C227.16013539 246.83589546 227.00304513 249.88176964 226.6875 253.23828125 C225.48544266 263.86664028 225.48544266 263.86664028 228.359375 273.83300781 C231.7080156 277.48180095 235.79452948 279.97845499 240.04345703 282.46289062 C243.31615279 284.45717756 246.21518792 286.87037637 249.1796875 289.2890625 C250.32331875 290.19289748 251.46915984 291.09394332 252.6171875 291.9921875 C253.47183594 292.66217773 253.47183594 292.66217773 254.34375 293.34570312 C256.1983518 294.78975981 258.06303828 296.21999557 259.9296875 297.6484375 C260.87122681 298.3743811 260.87122681 298.3743811 261.83178711 299.11499023 C263.02106251 300.03149749 264.2142975 300.94290133 265.41235352 301.84790039 C273.18426314 307.85865357 278.49126213 315.28587928 279.9921875 325.1640625 C280.5464959 334.68550956 277.27675111 342.17928766 272.6171875 350.2890625 C272.07747314 351.25231445 271.53775879 352.21556641 270.98168945 353.20800781 C267.03370424 360.22122061 262.97651501 367.17091309 258.859375 374.0859375 C256.13872208 378.66702198 253.4867722 383.28649262 250.83544922 387.90795898 C248.26912935 392.37682729 245.6878692 396.83695112 243.10351562 401.29541016 C241.76768212 403.60290819 240.43517204 405.91199609 239.10742188 408.22412109 C237.14916792 411.63114908 235.16531089 415.02290806 233.1796875 418.4140625 C232.58969971 419.44660156 231.99971191 420.47914063 231.3918457 421.54296875 C226.32953816 430.11443235 220.50334109 436.69949956 210.91479492 440.07006836 C199.37170467 442.77880121 189.48760478 439.6666947 178.9296875 435.2265625 C177.56867647 434.67659276 176.20676648 434.12884273 174.84399414 433.58325195 C168.88782999 431.18392508 162.97862957 428.68249419 157.09375 426.11328125 C155.79280396 425.54867187 155.79280396 425.54867187 154.46557617 424.97265625 C152.91138286 424.29022767 151.36394171 423.59210279 149.82543945 422.875 C145.44007496 420.91692252 142.71070302 420.20130252 138.1171875 421.7265625 C135.1856373 423.22171514 132.40471869 424.91756888 129.6171875 426.6640625 C128.15180527 427.57445374 126.68311049 428.4795376 125.2109375 429.37890625 C124.56833984 429.78101318 123.92574219 430.18312012 123.26367188 430.59741211 C120.63593465 431.97972383 117.94778654 432.84640737 115.1171875 433.7265625 C115.0047168 434.85956787 114.89224609 435.99257324 114.77636719 437.15991211 C113.64276595 448.37094579 112.3324158 459.54598443 110.73242188 470.70043945 C110.48683952 472.44102081 110.25066153 474.18295242 110.0234375 475.92602539 C108.48416204 487.70563693 106.83781048 497.58506302 97.8046875 506.1015625 C90.29190444 511.76425977 83.35525736 513.32125966 74.06469727 513.26000977 C72.99679962 513.26862534 71.92890198 513.27724091 70.8286438 513.28611755 C67.32170923 513.30869793 63.81557893 513.30205275 60.30859375 513.29296875 C57.85676335 513.29820784 55.40493497 513.30448537 52.95310974 513.31175232 C47.82305392 513.32214199 42.69327573 513.31761538 37.56323242 513.30297852 C31.00516366 513.28579429 24.44797135 513.30929044 17.89000034 513.34446812 C12.82918038 513.36648005 7.7685689 513.3649913 2.70771599 513.3567028 C0.29051693 513.35588536 -2.12669775 513.36270895 -4.54385185 513.37747383 C-7.93008408 513.39498873 -11.3147568 513.38031743 -14.70092773 513.35766602 C-15.68876755 513.36935822 -16.67660736 513.38105042 -17.69438171 513.39309692 C-27.29825532 513.26308133 -34.55491257 509.60388982 -41.3125 502.86328125 C-46.19480005 496.21995258 -47.75327977 489.61036782 -48.8828125 481.5390625 C-49.12318237 479.93961792 -49.12318237 479.93961792 -49.3684082 478.30786133 C-49.89168864 474.78315204 -50.39074725 471.2557612 -50.8828125 467.7265625 C-51.06376465 466.42944336 -51.2447168 465.13232422 -51.43115234 463.79589844 C-52.15683715 458.57278859 -52.87883624 453.34930273 -53.57617188 448.12231445 C-53.81110352 446.36987427 -53.81110352 446.36987427 -54.05078125 444.58203125 C-54.18766357 443.54715576 -54.3245459 442.51228027 -54.46557617 441.44604492 C-54.60326416 440.54861572 -54.74095215 439.65118652 -54.8828125 438.7265625 C-54.99133545 437.99083008 -55.0998584 437.25509766 -55.21166992 436.49707031 C-56.12151512 434.09685302 -57.17232629 433.65951154 -59.453125 432.54296875 C-60.1853125 432.17236328 -60.9175 431.80175781 -61.671875 431.41992188 C-62.44273437 431.04673828 -63.21359375 430.67355469 -64.0078125 430.2890625 C-65.51299206 429.5455557 -67.01563227 428.79688496 -68.515625 428.04296875 C-69.62019043 427.48826904 -69.62019043 427.48826904 -70.74707031 426.92236328 C-72.8777452 425.72939968 -74.70629764 424.38422965 -76.625 422.87890625 C-79.57066439 420.43756062 -79.57066439 420.43756062 -82.27952576 420.97692871 C-84.855928 421.71882093 -87.30451484 422.57144805 -89.79321289 423.56835938 C-90.74092056 423.94545044 -91.68862823 424.3225415 -92.66505432 424.71105957 C-94.18243446 425.32201477 -94.18243446 425.32201477 -95.73046875 425.9453125 C-96.77931747 426.36325073 -97.8281662 426.78118896 -98.90879822 427.21179199 C-102.25592478 428.54602828 -105.60077068 429.88586151 -108.9453125 431.2265625 C-112.29365508 432.56666833 -115.64248143 433.90551852 -118.99253845 435.24133301 C-121.07592225 436.07226381 -123.15828666 436.90575601 -125.23951721 437.74206543 C-126.65635048 438.30770203 -126.65635048 438.30770203 -128.10180664 438.88476562 C-129.3449337 439.38320984 -129.3449337 439.38320984 -130.61317444 439.89172363 C-139.17694641 443.04172795 -147.53094463 442.28083637 -155.8828125 438.7265625 C-166.5934476 432.86857977 -172.07850609 420.96063558 -177.8828125 410.7265625 C-178.86845566 409.00341011 -179.85410642 407.28026202 -180.84020996 405.55737305 C-181.85454123 403.7838543 -182.86686316 402.00920029 -183.87890625 400.234375 C-187.0259905 394.7197455 -190.20653835 389.22441039 -193.3828125 383.7265625 C-194.61728047 381.58599112 -195.85165497 379.44536582 -197.0859375 377.3046875 C-199.38797348 373.3140107 -201.69333413 369.32529328 -204.00292969 365.33898926 C-205.38199281 362.95844077 -206.75977035 360.57714944 -208.13745117 358.19580078 C-209.10665908 356.521736 -210.07771815 354.84874338 -211.04882812 353.17578125 C-211.93344727 351.64630859 -211.93344727 351.64630859 -212.8359375 350.0859375 C-213.35317383 349.19358398 -213.87041016 348.30123047 -214.40332031 347.38183594 C-219.25834903 338.66842137 -221.58702273 330.82581541 -219.19921875 320.87890625 C-215.31468252 309.16082392 -207.25349837 303.40620045 -197.75732422 296.16162109 C-195.95812267 294.78421725 -194.16992542 293.39412374 -192.38671875 291.99609375 C-191.81775879 291.55128662 -191.24879883 291.10647949 -190.66259766 290.64819336 C-189.5113665 289.73706117 -188.36910587 288.81448615 -187.23583984 287.88110352 C-184.16479412 285.3767337 -181.1716602 283.28358562 -177.66796875 281.421875 C-173.15540553 278.82790794 -169.44305901 276.37113064 -166.8828125 271.7265625 C-164.3611772 262.24825493 -163.33117421 248.36714072 -168.09716797 239.45605469 C-171.09084221 235.91617667 -174.80757146 233.85516423 -178.90722656 231.79541016 C-182.21191972 230.00747805 -184.99325035 227.60885965 -187.8828125 225.2265625 C-189.0377815 224.31053575 -190.19534656 223.39777281 -191.35546875 222.48828125 C-191.93184082 222.03501465 -192.50821289 221.58174805 -193.10205078 221.11474609 C-194.9342011 219.68650278 -196.77976205 218.27724877 -198.62890625 216.87109375 C-208.10832523 209.62760958 -216.21328114 203.19126459 -219.5703125 191.2890625 C-221.05991213 179.07434552 -216.96431438 170.13554311 -210.6953125 159.8515625 C-209.4282956 157.72739212 -208.16272875 155.6023563 -206.8984375 153.4765625 C-206.23908203 152.373125 -205.57972656 151.2696875 -204.90039062 150.1328125 C-201.85556494 144.99227428 -198.89786443 139.80264906 -195.94488525 134.60903931 C-194.27388922 131.67104729 -192.59762184 128.73606527 -190.921875 125.80078125 C-190.58964935 125.21866379 -190.25742371 124.63654633 -189.91513062 124.03678894 C-186.226134 117.57386837 -182.52847955 111.11600321 -178.8203125 104.6640625 C-178.22549072 103.62459473 -177.63066895 102.58512695 -177.01782227 101.51416016 C-162.89379581 76.97572896 -162.89379581 76.97572896 -151.2578125 73.203125 C-136.78522334 70.29908573 -124.66592993 76.10906696 -111.6328125 81.53125 C-110.83751129 81.86211609 -110.04221008 82.19298218 -109.22280884 82.53387451 C-105.93658688 83.90390066 -102.65106293 85.27494016 -99.37451172 86.66796875 C-96.94519915 87.69844217 -94.50871279 88.71000552 -92.0703125 89.71875 C-91.33586914 90.0363327 -90.60142578 90.35391541 -89.84472656 90.68112183 C-85.46185635 92.47334644 -82.59559244 93.10986835 -77.8828125 91.7265625 C-75.1933047 90.30376791 -75.1933047 90.30376791 -72.6328125 88.4765625 C-59.44466817 79.7265625 -59.44466817 79.7265625 -54.8828125 79.7265625 C-54.84325439 79.11119629 -54.80369629 78.49583008 -54.76293945 77.86181641 C-54.05301379 68.19088168 -52.77873601 58.60350619 -51.46362305 48.99902344 C-51.20103477 47.06457422 -50.9442133 45.12933359 -50.69311523 43.19335938 C-50.32504349 40.35620963 -49.93978741 37.52184651 -49.55078125 34.6875 C-49.44332077 33.836185 -49.33586029 32.98487 -49.22514343 32.10775757 C-47.64679293 20.98834476 -43.7469349 12.02707674 -34.74197388 5.07339478 C-24.04048893 -1.36176671 -12.08237021 -0.10242632 0 0 Z M-12.8828125 37.7265625 C-13.15988669 39.19761179 -13.37982858 40.67949453 -13.57543945 42.16357422 C-13.7661779 43.58172928 -13.7661779 43.58172928 -13.96076965 45.02853394 C-14.09617661 46.06068024 -14.23158356 47.09282654 -14.37109375 48.15625 C-14.66815 50.33600157 -14.96569221 52.51568697 -15.26367188 54.6953125 C-15.72955379 58.13506989 -16.19183633 61.57517909 -16.64526367 65.01660156 C-17.08451177 68.33557844 -17.53925203 71.65215502 -17.99609375 74.96875 C-18.12542801 75.98065399 -18.25476227 76.99255798 -18.38801575 78.03512573 C-19.64923357 87.05429051 -21.64483083 95.82022565 -27.8828125 102.7265625 C-27.8828125 103.3865625 -27.8828125 104.0465625 -27.8828125 104.7265625 C-28.46546875 105.00371094 -29.048125 105.28085938 -29.6484375 105.56640625 C-31.78642736 106.67651637 -33.66305774 107.90629466 -35.6328125 109.2890625 C-40.56898917 112.62608111 -45.71881006 115.50881837 -50.92651367 118.39306641 C-55.56954569 120.9679729 -60.10903948 123.65941694 -64.57421875 126.53515625 C-72.84821841 130.80515607 -82.6072441 131.4691939 -91.51513672 128.99560547 C-98.77231599 126.58835217 -105.81836524 123.6410665 -112.8828125 120.7265625 C-116.37976329 119.31692756 -119.88006497 117.91592649 -123.38134766 116.51708984 C-125.60248801 115.62702767 -127.82100777 114.73039283 -130.03662109 113.82666016 C-131.03516113 113.42108887 -132.03370117 113.01551758 -133.0625 112.59765625 C-133.94663574 112.23599365 -134.83077148 111.87433105 -135.74169922 111.50170898 C-137.81672049 110.61309303 -137.81672049 110.61309303 -139.8828125 110.7265625 C-140.44226563 111.7475 -141.00171875 112.7684375 -141.578125 113.8203125 C-146.43892451 122.65004069 -151.41231732 131.40508715 -156.5078125 140.1015625 C-161.5804744 148.76367253 -166.62198607 157.44266257 -171.61322021 166.1519165 C-172.33102108 167.40374599 -173.04980226 168.65501389 -173.76959229 169.90570068 C-174.77487239 171.65303324 -175.77619538 173.40264061 -176.77734375 175.15234375 C-177.35331299 176.15692627 -177.92928223 177.16150879 -178.52270508 178.1965332 C-179.98097863 180.7366077 -179.98097863 180.7366077 -180.8828125 183.7265625 C-172.69783485 190.45741223 -164.46368546 197.08814478 -156.0078125 203.4765625 C-133.92218854 220.33243035 -133.92218854 220.33243035 -130.8828125 234.7265625 C-130.77577301 236.21955436 -130.7148694 237.71627419 -130.68994141 239.21289062 C-130.67387848 240.09481079 -130.65781555 240.97673096 -130.64126587 241.88537598 C-130.59634917 245.93105987 -130.55570984 249.97658506 -130.53271484 254.02246094 C-130.51622373 256.14431783 -130.4890253 258.26612077 -130.45068359 260.38769531 C-130.0041221 285.26311219 -130.0041221 285.26311219 -138.296875 296.15625 C-141.12217523 298.96447893 -144.08254158 301.45872882 -147.2578125 303.8515625 C-148.50194482 304.80775805 -149.74541133 305.76482039 -150.98828125 306.72265625 C-151.62813965 307.21362793 -152.26799805 307.70459961 -152.92724609 308.21044922 C-156.17916312 310.73159838 -159.36996798 313.3280167 -162.5703125 315.9140625 C-168.53927615 320.71802935 -174.62457627 325.30286122 -180.8828125 329.7265625 C-179.50832383 333.36288873 -177.87846392 336.69720371 -175.9765625 340.0859375 C-175.11587158 341.62266113 -175.11587158 341.62266113 -174.23779297 343.19042969 C-173.31957764 344.81706543 -173.31957764 344.81706543 -172.3828125 346.4765625 C-171.75133301 347.5996582 -171.11985352 348.72275391 -170.46923828 349.87988281 C-166.5788466 356.77922615 -162.63160616 363.64042619 -158.58544922 370.44946289 C-154.62961605 377.11384576 -150.8026894 383.85054134 -146.99169922 390.59863281 C-144.43970179 395.09546099 -141.8216047 399.47158137 -138.8828125 403.7265625 C-134.96519755 402.22903154 -131.04881389 400.72830761 -127.1328125 399.2265625 C-125.95662354 398.77603516 -124.78043457 398.32550781 -123.56860352 397.86132812 C-118.03400571 395.73462677 -112.50919736 393.59200926 -107.01953125 391.3515625 C-106.13555664 390.99126953 -105.25158203 390.63097656 -104.34082031 390.25976562 C-102.71388816 389.59285582 -101.08933724 388.92009301 -99.46777344 388.24023438 C-87.97008783 383.52913396 -77.60941604 382.24176035 -65.7578125 386.8515625 C-60.98788193 389.00572469 -56.96922214 391.65188972 -52.7890625 394.7734375 C-49.08050801 397.26574563 -45.1770206 399.21122463 -41.1953125 401.2265625 C-31.11089936 406.43180787 -24.88960886 411.81965195 -20.8828125 422.7265625 C-18.27991251 434.017148 -16.82917923 445.56929409 -15.2578125 457.0390625 C-14.93354131 459.39750813 -14.60811427 461.75576762 -14.27920532 464.11357117 C-14.07718569 465.5622523 -13.87780612 467.01130487 -13.68148804 468.46076965 C-13.27987597 471.34513756 -12.80661193 473.95516421 -11.8828125 476.7265625 C-0.94784779 476.74968547 9.98711116 476.76747735 20.9220953 476.77837467 C25.99909768 476.7836036 31.07608339 476.79070142 36.15307617 476.80200195 C41.04839302 476.81283049 45.94369379 476.81883926 50.83902168 476.82143974 C52.71101701 476.82329405 54.58301141 476.82691478 56.45499992 476.83229256 C59.06759449 476.83950254 61.68012177 476.84055346 64.29272461 476.84008789 C65.07459137 476.84368317 65.85645813 476.84727844 66.66201782 476.85098267 C70.18241569 477.16940212 70.18241569 477.16940212 73.1171875 475.7265625 C73.39426169 474.25551321 73.61420358 472.77363047 73.80981445 471.28955078 C74.0005529 469.87139572 74.0005529 469.87139572 74.19514465 468.42459106 C74.33055161 467.39244476 74.46595856 466.36029846 74.60546875 465.296875 C74.902525 463.11712343 75.20006721 460.93743803 75.49804688 458.7578125 C75.96392879 455.31805511 76.42621133 451.87794591 76.87963867 448.43652344 C77.31888677 445.11754656 77.77362703 441.80096998 78.23046875 438.484375 C78.42447014 436.96651901 78.42447014 436.96651901 78.62239075 435.41799927 C80.16848906 424.36160983 83.14500534 413.04270139 92.38671875 405.99609375 C95.24217262 404.12527915 98.14821364 402.41194407 101.1171875 400.7265625 C101.74544434 400.36916992 102.37370117 400.01177734 103.02099609 399.64355469 C106.43916594 397.70286286 109.86761022 395.7819758 113.3046875 393.875 C117.22408794 391.68873365 121.03544303 389.34801628 124.80859375 386.91796875 C133.41245372 382.47773645 143.50276065 382.35468425 152.74609375 384.61328125 C157.29368337 386.08499694 161.69804844 387.91197927 166.1171875 389.7265625 C167.39948897 390.2471997 168.6820622 390.76716788 169.96484375 391.28662109 C181.95381975 396.14351249 181.95381975 396.14351249 187.42553711 398.40698242 C188.45946594 398.83283379 188.45946594 398.83283379 189.51428223 399.26728821 C190.82602569 399.80792223 192.13662599 400.35134042 193.44592285 400.89787292 C196.67443736 402.28262959 196.67443736 402.28262959 200.1171875 402.7265625 C200.37709473 402.24638672 200.63700195 401.76621094 200.90478516 401.27148438 C206.93335043 390.16031855 213.14188817 379.17195157 219.54003906 368.26953125 C224.41536003 359.95453391 229.21606722 351.59877166 233.9921875 343.2265625 C234.35106049 342.59758057 234.70993347 341.96859863 235.0796814 341.32055664 C237.09367729 337.79007548 239.10612804 334.25871707 241.1171875 330.7265625 C238.36609997 327.93392577 235.63276346 325.21442506 232.5859375 322.74609375 C231.9470459 322.22708496 231.3081543 321.70807617 230.64990234 321.17333984 C229.97910645 320.63402832 229.30831055 320.0947168 228.6171875 319.5390625 C227.91158691 318.96881348 227.20598633 318.39856445 226.47900391 317.81103516 C222.18900173 314.35640865 217.86421779 310.95163921 213.4921875 307.6015625 C212.4609375 306.81007813 211.4296875 306.01859375 210.3671875 305.203125 C208.6664511 303.9023766 206.96072934 302.60954552 205.24609375 301.32714844 C203.32047306 299.88680741 201.40608272 298.43243152 199.4921875 296.9765625 C198.89970215 296.54069824 198.3072168 296.10483398 197.69677734 295.65576172 C193.85877398 292.71399847 191.92456239 290.18649951 190.1171875 285.7265625 C189.81762695 282.29980469 189.81762695 282.29980469 189.91796875 278.5234375 C189.94614369 277.09960972 189.9743005 275.67578158 190.00244141 274.25195312 C190.03268402 273.14122437 190.03268402 273.14122437 190.0635376 272.00805664 C190.13545381 268.9497766 190.14008004 265.89262189 190.14840698 262.83361816 C190.16423788 259.67878738 190.21516686 256.52497515 190.26977539 253.37060547 C190.29315301 251.76752183 190.30739675 250.16428032 190.31274414 248.56103516 C190.36319716 235.79771392 191.66354616 224.40937254 200.92578125 214.70703125 C205.17359317 210.86809962 209.74913397 207.4766787 214.33935547 204.06494141 C217.35000999 201.79847504 220.29111745 199.44471293 223.2421875 197.1015625 C229.08838495 192.48095735 235.0467991 188.05016567 241.1171875 183.7265625 C239.82610559 180.33653529 238.35937209 177.20495419 236.5703125 174.05078125 C236.06234131 173.15278809 235.55437012 172.25479492 235.03100586 171.32958984 C234.20741577 169.88640381 234.20741577 169.88640381 233.3671875 168.4140625 C232.79299072 167.4029541 232.21879395 166.3918457 231.62719727 165.35009766 C226.91445796 157.07328942 222.12370143 148.84277825 217.31103516 140.6237793 C211.50370176 130.70135346 205.79911764 120.72120697 200.1171875 110.7265625 C195.18588883 111.33728672 190.88887603 112.85117573 186.33203125 114.74609375 C185.22572105 115.19585823 185.22572105 115.19585823 184.09706116 115.65470886 C181.74718165 116.61035225 179.40061941 117.57377277 177.0546875 118.5390625 C142.56705264 132.72032021 142.56705264 132.72032021 127.58203125 127.3203125 C121.5952442 124.56652545 116.11308512 121.01042835 110.5546875 117.48828125 C105.7113497 114.42982636 100.72262224 111.77020732 95.62109375 109.1640625 C93.35157455 107.8611248 91.91818188 106.57712553 90.1171875 104.7265625 C89.4571875 104.7265625 88.7971875 104.7265625 88.1171875 104.7265625 C87.83866943 104.16090576 87.56015137 103.59524902 87.27319336 103.01245117 C86.5100807 101.50347043 85.71949506 100.0080345 84.90063477 98.52856445 C81.5876678 92.37609212 80.02363367 86.80336945 79.0546875 79.9140625 C78.89895264 78.90593506 78.74321777 77.89780762 78.58276367 76.85913086 C77.66691509 70.83135662 76.84542264 64.79012331 76.015625 58.75 C75.92432816 58.0857753 75.83303131 57.4215506 75.7389679 56.73719788 C75.2904301 53.46233968 74.8511069 50.18661122 74.42358398 46.90893555 C74.26704346 45.725979 74.11050293 44.54302246 73.94921875 43.32421875 C73.81233643 42.26726807 73.6754541 41.21031738 73.53442383 40.12133789 C73.36320958 37.78083672 73.36320958 37.78083672 72.1171875 36.7265625 C69.50568462 36.62614793 66.92060385 36.59039193 64.30859375 36.59716797 C63.49075409 36.59541565 62.67291443 36.59366333 61.83029175 36.59185791 C59.1134024 36.58743865 56.39657757 36.59037764 53.6796875 36.59375 C51.80021146 36.59307698 49.92073551 36.59210697 48.04125977 36.59085083 C44.09683404 36.58937376 40.15243092 36.59152871 36.20800781 36.59619141 C31.14006247 36.6018887 26.07217008 36.59860974 21.00422668 36.59261894 C17.12161863 36.58901358 13.23902322 36.5901518 9.35641479 36.59274673 C7.48721307 36.59341607 5.61801022 36.59258734 3.74880981 36.59026718 C1.14110246 36.58774107 -1.46651791 36.59158066 -4.07421875 36.59716797 C-5.24466232 36.59413162 -5.24466232 36.59413162 -6.43875122 36.59103394 C-9.95358442 36.28184192 -9.95358442 36.28184192 -12.8828125 37.7265625 Z " fill="#FFFFFF" transform="translate(225.8828125,-0.7265625)"/>
<path d="M0 0 C9.60482526 8.13017139 16.60414482 16.64366074 22.875 27.43359375 C23.36742187 28.24054688 23.85984375 29.0475 24.3671875 29.87890625 C35.29222494 49.35397299 36.15806272 74.32641123 30.35083008 95.41113281 C26.46274004 108.49887678 20.06437949 120.29124157 10.875 130.43359375 C10.13765625 131.26375 9.4003125 132.09390625 8.640625 132.94921875 C-5.19740961 147.69170007 -25.6242063 158.33277166 -45.93896484 159.6105957 C-59.56258221 159.89877436 -72.18963943 160.09087635 -85.125 155.43359375 C-85.78113281 155.19753418 -86.43726563 154.96147461 -87.11328125 154.71826172 C-110.02615124 146.224509 -127.31436875 129.89021761 -137.9375 107.93359375 C-147.51478205 85.56450938 -148.01752865 60.6237978 -139.875 37.80859375 C-129.92815372 13.4151374 -111.99412081 -3.30338565 -88.125 -13.56640625 C-58.15367108 -24.66217483 -25.02313899 -19.73234232 0 0 Z M-94.125 33.43359375 C-94.66511719 33.97113281 -95.20523438 34.50867188 -95.76171875 35.0625 C-106.39379048 46.10970685 -109.6124903 59.86076315 -109.375 74.71875 C-108.57676507 86.58002209 -103.38218985 98.76475514 -95.125 107.43359375 C-94.465 107.43359375 -93.805 107.43359375 -93.125 107.43359375 C-92.795 108.42359375 -92.465 109.41359375 -92.125 110.43359375 C-80.86166345 120.58985021 -66.83014549 123.83062875 -52.08203125 123.71484375 C-36.65783607 122.61855347 -24.49623763 114.66388852 -14.3359375 103.4609375 C-5.30159334 92.17958979 -1.98362121 78.67365298 -3.125 64.43359375 C-5.48392462 49.16996386 -13.01299612 36.77456204 -25 27.12109375 C-46.0943057 12.31733647 -76.57902469 13.45067743 -94.125 33.43359375 Z " fill="#FFFFFF" transform="translate(312.125,185.56640625)"/>
</svg>
