<?xml version="1.0" encoding="UTF-8"?>
<svg version="1.1" xmlns="http://www.w3.org/2000/svg" width="512" height="512">
<path d="M0 0 C1.36329301 -0.00131127 2.72658527 -0.00394359 4.08987355 -0.0077675 C7.80257654 -0.0144213 11.51501599 -0.00255107 15.22768545 0.01256669 C19.24387136 0.02559727 23.260044 0.02113265 27.27624512 0.01885986 C34.22347242 0.01729154 41.17061479 0.02665443 48.11782074 0.04357338 C58.16213501 0.0680189 68.20640847 0.07577432 78.25074926 0.07953735 C94.5494526 0.08609315 110.84811074 0.10603059 127.14678955 0.13444519 C142.97361018 0.16200837 158.8004185 0.18323088 174.6272583 0.19596863 C176.0921311 0.19715088 176.0921311 0.19715088 177.58659729 0.19835702 C182.48612497 0.20227231 187.38565274 0.20606339 192.28518057 0.20979273 C232.89175093 0.24086148 273.49827155 0.29367346 314.10479736 0.36076355 C314.09956055 1.25271423 314.09432373 2.14466492 314.08892822 3.06364441 C314.07175767 6.41277224 314.0592851 9.76185244 314.04986572 13.11100769 C314.04487588 14.55307255 314.03808163 15.99513246 314.02935791 17.43717957 C313.02920607 31.03191676 313.02920607 31.03191676 317.29229736 42.98576355 C320.05113379 44.57913126 320.05113379 44.57913126 323.22979736 44.42326355 C326.18863714 43.60588534 326.18863714 43.60588534 327.75250244 41.34440613 C329.56493144 37.34554447 329.58205557 33.90344966 329.61651611 29.5599823 C329.63446732 28.72360733 329.65241852 27.88723236 329.6709137 27.0255127 C329.72489246 24.36648021 329.75887197 21.70762594 329.79229736 19.04826355 C329.82548147 17.24029611 329.85997215 15.43235215 329.89581299 13.62443542 C329.98061161 9.20334031 330.04748178 4.78229691 330.10479736 0.36076355 C340.38947561 0.26747417 350.67405075 0.19670278 360.9590683 0.15351486 C365.73647668 0.13277131 370.51359246 0.10470027 375.29083252 0.05900574 C379.91392328 0.01506986 384.53673525 -0.00847261 389.16001892 -0.01874542 C390.91080607 -0.0260522 392.66158054 -0.0403163 394.4122467 -0.06215668 C410.47208365 -0.25427111 424.92177126 1.24155039 438.10479736 11.36076355 C438.82022705 11.87252136 439.53565674 12.38427917 440.27276611 12.9115448 C447.03904049 18.18583604 451.31008581 25.77134045 455.10479736 33.36076355 C455.2203516 34.99833182 455.27432316 36.64043191 455.29766846 38.28190613 C455.31373138 39.30669571 455.32979431 40.33148529 455.34634399 41.3873291 C455.39074179 46.0761402 455.43185645 50.76480907 455.45489502 55.45378113 C455.47146126 57.92816061 455.49875969 60.40249212 455.53692627 62.87663269 C455.59163587 66.44060644 455.6135608 70.00345792 455.62823486 73.5677948 C455.65090424 74.67315079 455.67357361 75.77850677 455.69692993 76.9173584 C455.67577227 84.59523467 455.67577227 84.59523467 452.74249268 88.52799988 C449.96179806 90.4601245 447.74567069 91.38188292 444.47979736 92.23576355 C434.04115384 95.45851819 425.73114573 100.8510117 420.10479736 110.36076355 C414.93453707 120.17810303 414.38545446 131.45252352 417.54229736 142.04826355 C418.05700983 143.48796654 418.57724629 144.9257153 419.10479736 146.36076355 C419.24014893 147.08908386 419.37550049 147.81740417 419.51495361 148.5677948 C419.70960205 149.15947449 419.90425049 149.75115417 420.10479736 150.36076355 C421.09479736 150.69076355 422.08479736 151.02076355 423.10479736 151.36076355 C423.53792236 152.12388855 423.97104736 152.88701355 424.41729736 153.67326355 C426.50914505 157.00472467 428.75138147 158.34871401 432.10479736 160.36076355 C432.86405518 160.84931824 433.62331299 161.33787292 434.40557861 161.8412323 C437.34814543 163.49775689 440.20277232 164.52385447 443.41729736 165.54826355 C444.48593018 165.89244324 445.55456299 166.23662292 446.65557861 166.5912323 C447.4638208 166.84517761 448.27206299 167.09912292 449.10479736 167.36076355 C449.10479736 168.02076355 449.10479736 168.68076355 449.10479736 169.36076355 C449.72354736 169.48451355 450.34229736 169.60826355 450.97979736 169.73576355 C453.10479736 170.36076355 453.10479736 170.36076355 455.10479736 172.36076355 C455.36549377 174.57298279 455.36549377 174.57298279 455.37945557 177.35783386 C455.38898758 178.3994165 455.39851959 179.44099915 455.40834045 180.5141449 C455.40742905 181.6443103 455.40651764 182.77447571 455.40557861 183.93888855 C455.4120063 185.67788422 455.4120063 185.67788422 455.41856384 187.45201111 C455.42431673 189.91003262 455.42480039 192.36807115 455.42047119 194.82609558 C455.41732195 198.58143905 455.44072221 202.33598695 455.46612549 206.0912323 C455.46839949 208.47795006 455.46910151 210.86466993 455.46807861 213.25138855 C455.47728836 214.37345703 455.48649811 215.49552551 455.49598694 216.65159607 C455.46212639 222.38232346 455.29466119 226.51718913 452.10479736 231.36076355 C451.44479736 231.36076355 450.78479736 231.36076355 450.10479736 231.36076355 C449.87276611 232.24506042 449.64073486 233.1293573 449.40167236 234.04045105 C446.1469177 242.37340726 437.17537257 249.07215258 429.21417236 252.66545105 C421.63487271 255.90587626 415.91863243 257.51142463 407.66436768 257.47428894 C406.39065056 257.47450798 406.39065056 257.47450798 405.09120178 257.47473145 C402.28841586 257.47403556 399.48569665 257.46625831 396.68292236 257.4584198 C394.73807817 257.45655447 392.7932335 257.45513111 390.84838867 257.45413208 C385.73232727 257.45031597 380.61629431 257.44049339 375.50024414 257.4294281 C370.27858871 257.41919453 365.05692868 257.41463029 359.83526611 257.40959167 C349.59176404 257.39887033 339.34828307 257.38180475 329.10479736 257.36076355 C329.10577927 256.74243149 329.10676117 256.12409943 329.10777283 255.48703003 C329.11171393 252.63634783 329.11412336 249.7856662 329.11651611 246.9349823 C329.11887268 245.47650879 329.11887268 245.47650879 329.12127686 243.98857117 C329.52689862 231.57940477 329.52689862 231.57940477 328.10479736 219.36076355 C325.10397143 216.88832225 323.82353255 216.31848501 319.91729736 216.54826355 C316.99692267 217.14658668 316.99692267 217.14658668 315.10479736 219.36076355 C314.85897893 222.22513179 314.73110355 224.99979495 314.69073486 227.86857605 C314.67136871 228.70919586 314.65200256 229.54981567 314.63204956 230.41590881 C314.57218078 233.10575658 314.52583965 235.79564698 314.47979736 238.48576355 C314.44162426 240.30739699 314.40257293 242.12901225 314.36260986 243.9506073 C314.26647338 248.42051207 314.18246967 252.89050134 314.10479736 257.36076355 C272.06532183 257.47530935 230.02586436 257.56336338 187.98626357 257.6160902 C183.01853174 257.62234343 178.05080022 257.62881507 173.08306885 257.63542175 C172.0941194 257.63673331 171.10516995 257.63804486 170.08625234 257.63939615 C154.09168495 257.66112863 138.09720779 257.70053823 122.10269385 257.74652753 C105.68015683 257.79335228 89.25766693 257.82107166 72.8350659 257.83120602 C62.70855206 257.83805271 52.58229329 257.85964541 42.455858 257.90034588 C35.50352636 257.92685861 28.55132581 257.93474531 21.59894734 257.92827044 C17.59296221 257.92508076 13.58742154 257.92982897 9.58151627 257.95679092 C5.9037071 257.98136199 2.22663559 257.98219961 -1.4512096 257.96525802 C-3.39068822 257.96218913 -5.33015989 257.98353967 -7.2695089 258.00617009 C-18.24666815 257.91405563 -29.44155403 255.81586813 -37.89520264 248.36076355 C-38.91614014 247.51384949 -38.91614014 247.51384949 -39.95770264 246.64982605 C-50.51203542 237.58501604 -50.51203542 237.58501604 -51.89520264 231.36076355 C-52.88520264 231.03076355 -53.87520264 230.70076355 -54.89520264 230.36076355 C-56.70550447 226.90137981 -57.1558911 223.95213347 -57.20159912 220.08317566 C-57.21758652 219.05538498 -57.23357391 218.0275943 -57.25004578 216.96865845 C-57.25540848 215.86957657 -57.26077118 214.77049469 -57.26629639 213.6381073 C-57.27532486 212.5004744 -57.28435333 211.36284149 -57.2936554 210.19073486 C-57.30814347 207.78934863 -57.31704104 205.38792306 -57.32073975 202.98649597 C-57.33267155 199.30784734 -57.38190418 195.63085701 -57.43231201 191.95256042 C-57.44177233 189.61858424 -57.44900923 187.28459775 -57.45379639 184.9506073 C-57.4733287 183.84950119 -57.49286102 182.74839508 -57.51298523 181.61392212 C-57.46797395 174.02551186 -57.46797395 174.02551186 -54.54779053 170.63639832 C-51.89520264 169.36076355 -51.89520264 169.36076355 -48.89520264 169.36076355 C-48.89520264 168.70076355 -48.89520264 168.04076355 -48.89520264 167.36076355 C-46.47863888 166.71454314 -44.06195618 166.06877351 -41.64520264 165.42326355 C-40.62233154 165.14966003 -40.62233154 165.14966003 -39.57879639 164.87052917 C-36.35659369 164.01023234 -33.13467041 163.15393221 -29.89520264 162.36076355 C-29.89520264 161.70076355 -29.89520264 161.04076355 -29.89520264 160.36076355 C-28.73812412 159.5252627 -27.54231841 158.74320796 -26.33270264 157.98576355 C-19.57959667 153.0678711 -15.34689917 145.4277759 -13.39520264 137.36076355 C-12.53960469 131.64757723 -13.16006273 126.05809781 -13.89520264 120.36076355 C-13.99317139 119.59634949 -14.09114014 118.83193542 -14.19207764 118.0443573 C-14.40693072 116.48035323 -14.64716626 114.91984935 -14.89520264 113.36076355 C-15.55520264 113.36076355 -16.21520264 113.36076355 -16.89520264 113.36076355 C-18.11395264 111.75138855 -18.11395264 111.75138855 -19.39520264 109.61076355 C-20.02942139 108.56662292 -20.02942139 108.56662292 -20.67645264 107.50138855 C-21.89520264 105.36076355 -21.89520264 105.36076355 -22.80145264 103.22013855 C-24.17828064 100.87953094 -25.43411929 100.4227695 -27.89520264 99.36076355 C-29.00204486 98.57284196 -30.10607589 97.78096079 -31.20770264 96.98576355 C-36.16864355 93.79058127 -41.62010221 92.76820777 -47.30926514 91.54826355 C-51.35219301 90.20942905 -54.41221348 88.86142728 -56.89520264 85.36076355 C-57.79780405 81.52907023 -57.73617532 77.77127047 -57.69207764 73.8490448 C-57.69781799 72.72564194 -57.70355835 71.60223907 -57.70947266 70.4447937 C-57.71355226 68.06853724 -57.70250367 65.69221349 -57.6774292 63.31608582 C-57.64546101 59.70246943 -57.67704508 56.09337693 -57.71551514 52.47990417 C-57.7115473 50.16544127 -57.70385378 47.85098115 -57.69207764 45.5365448 C-57.70422302 44.4664064 -57.71636841 43.39626801 -57.72888184 42.29370117 C-57.58460933 34.4809763 -55.39132002 29.6705451 -50.89520264 23.36076355 C-50.12151019 22.13339452 -49.3500591 20.90460378 -48.58270264 19.67326355 C-37.20317783 4.28381095 -18.00579195 -0.12675983 0 0 Z M315.10479736 76.36076355 C312.91124468 80.74786891 313.87769463 86.66032721 313.86456299 91.5365448 C313.85486502 93.72052709 313.82384606 95.903565 313.79229736 98.08732605 C313.78576628 99.47794547 313.78051622 100.86857161 313.77667236 102.25920105 C313.76732666 103.52425476 313.75798096 104.78930847 313.74835205 106.09269714 C314.1274063 109.56805345 314.62142561 110.9497443 317.10479736 113.36076355 C320.39205057 114.36123192 322.50429548 114.49724125 325.85479736 113.73576355 C328.7964006 111.93811713 329.089762 110.62681239 330.10479736 107.36076355 C330.41005721 104.23615128 330.41005721 104.23615128 330.37042236 100.8881073 C330.37300049 99.65898621 330.37557861 98.42986511 330.37823486 97.16349792 C330.37050049 95.88797058 330.36276611 94.61244324 330.35479736 93.29826355 C330.36253174 92.01886902 330.37026611 90.73947449 330.37823486 89.42131042 C330.37565674 88.19347839 330.37307861 86.96564636 330.37042236 85.7006073 C330.3681665 84.58033142 330.36591064 83.46005554 330.36358643 82.30583191 C330.10947609 79.41400835 329.68091183 77.76933776 328.10479736 75.36076355 C323.29493382 72.15418785 319.61630527 73.19051475 315.10479736 76.36076355 Z M316.10479736 145.36076355 C312.63665631 150.20190739 313.69420472 156.92435611 313.67926025 162.63249207 C313.66735123 164.78851081 313.61813442 166.94167547 313.56768799 169.09709167 C313.55822376 170.47533299 313.55098872 171.85359179 313.54620361 173.2318573 C313.53274902 174.4789447 313.51929443 175.7260321 313.50543213 177.01091003 C314.2626504 181.24300447 315.79814302 182.70810783 319.10479736 185.36076355 C321.20450788 185.96800137 321.20450788 185.96800137 323.22979736 185.54826355 C324.22366455 185.44578308 324.22366455 185.44578308 325.23760986 185.3412323 C328.21868202 183.77585759 328.82323172 181.40018381 330.10479736 178.36076355 C330.70054746 173.70707335 330.56871576 169.04882833 330.54229736 164.36076355 C330.56227783 163.10263855 330.5822583 161.84451355 330.60284424 160.54826355 C330.77332275 153.22914805 330.77332275 153.22914805 328.30010986 146.5131073 C326.18621937 144.00442308 326.18621937 144.00442308 322.54229736 143.92326355 C319.12986938 144.24467179 319.12986938 144.24467179 316.10479736 145.36076355 Z " fill="#FFFFFF" transform="translate(56.89520263671875,254.6392364501953)"/>
<path d="M0 0 C1.21236328 -0.02416992 1.21236328 -0.02416992 2.44921875 -0.04882812 C11.55880912 -0.0561158 18.80569182 3.12368296 26.75 7.3125 C26.75 7.9725 26.75 8.6325 26.75 9.3125 C27.471875 9.539375 28.19375 9.76625 28.9375 10 C32.33897247 11.58735382 34.16025643 13.5994353 36.75 16.3125 C37.93162316 17.27807016 39.1194365 18.23610181 40.3125 19.1875 C44.90119947 23.1750598 47.38053367 26.45087868 48.1640625 32.51953125 C48.46195082 39.75508188 47.6766493 44.9905157 43.94140625 51.2265625 C41.44807924 55.59192847 41.64144664 59.58873763 41.6875 64.5625 C41.70103516 66.45742187 41.70103516 66.45742187 41.71484375 68.390625 C41.72644531 69.35484375 41.73804688 70.3190625 41.75 71.3125 C42.41 71.3125 43.07 71.3125 43.75 71.3125 C43.98074219 71.83199219 44.21148437 72.35148437 44.44921875 72.88671875 C48.58558922 81.73168486 54.65187485 86.73697222 63.75 90.3125 C71.8289758 91.98134452 78.10015613 89.63504025 85.37817383 86.46801758 C92.83066202 83.27822539 98.25197121 83.388214 105.6965332 86.28442383 C109.20445653 88.04067934 111.70309071 90.61014305 114.375 93.4375 C114.93622559 94.01790039 115.49745117 94.59830078 116.07568359 95.19628906 C122.73627227 102.21622709 127.20602281 108.92842519 129.75 118.3125 C130.05744141 119.28123047 130.05744141 119.28123047 130.37109375 120.26953125 C134.00447849 132.57292373 130.8881627 145.41128426 125.5859375 156.81640625 C125.31007813 157.31011719 125.03421875 157.80382812 124.75 158.3125 C124.09 158.3125 123.43 158.3125 122.75 158.3125 C122.523125 158.869375 122.29625 159.42625 122.0625 160 C120.37971908 162.96489972 118.18891488 164.929015 115.75 167.3125 C114.73908995 168.46972598 113.73945887 169.63688005 112.75 170.8125 C108.67731937 175.61059449 104.23511225 179.77967749 99.4453125 183.84375 C96.05743973 186.77886558 93.08318503 189.90434834 90.25 193.375 C87.90961608 196.12495111 85.59091652 198.1107897 82.75 200.3125 C81.904375 201.240625 81.05875 202.16875 80.1875 203.125 C77.75 205.3125 77.75 205.3125 75.88012695 205.2265625 C72.97311955 203.97913147 71.38824619 202.18335146 69.23046875 199.875 C68.37259766 198.98039063 67.51472656 198.08578125 66.63085938 197.1640625 C64.8408022 195.26886056 63.05689052 193.36783444 61.27929688 191.4609375 C60.41755859 190.56632813 59.55582031 189.67171875 58.66796875 188.75 C57.89219482 187.92371094 57.1164209 187.09742188 56.31713867 186.24609375 C53.09216316 183.81701091 50.74500653 183.50663149 46.75 183.3125 C43.90097933 184.13221716 43.90097933 184.13221716 41.75 185.3125 C41.75 188.6125 41.75 191.9125 41.75 195.3125 C43.07 195.9725 44.39 196.6325 45.75 197.3125 C47.5 198.8125 47.5 198.8125 48.75 200.3125 C48.75 200.9725 48.75 201.6325 48.75 202.3125 C49.348125 202.580625 49.94625 202.84875 50.5625 203.125 C52.74847854 204.31167406 54.16332594 205.40849113 55.75 207.3125 C55.75 207.9725 55.75 208.6325 55.75 209.3125 C56.36875 209.56 56.9875 209.8075 57.625 210.0625 C60.10068687 211.51878639 60.70125002 212.69062506 61.75 215.3125 C60.75 216.3125 60.75 216.3125 58.74707693 216.4366985 C57.41254983 216.43612892 57.41254983 216.43612892 56.05106258 216.43554783 C54.51712366 216.4385344 54.51712366 216.4385344 52.95219606 216.44158131 C51.24649355 216.43721205 51.24649355 216.43721205 49.5063324 216.43275452 C48.30899713 216.43360894 47.11166186 216.43446337 45.87804371 216.43534368 C42.53962031 216.43671189 39.20125482 216.43356435 35.86283839 216.42856562 C32.26841201 216.42426448 28.67398755 216.4257073 25.07955933 216.4264679 C18.84699005 216.42699335 12.6144312 216.42384436 6.38186455 216.41823006 C-2.62948339 216.41011789 -11.64082625 216.40750013 -20.65217745 216.40624207 C-35.27096947 216.4040511 -49.88975592 216.39738981 -64.50854492 216.38793945 C-78.71297172 216.37876649 -92.91739701 216.37168509 -107.12182617 216.36743164 C-107.99675315 216.36716892 -108.87168013 216.36690619 -109.77312005 216.36663551 C-114.16218229 216.36533051 -118.55124453 216.36406679 -122.94030678 216.36282361 C-159.37687512 216.3524496 -195.81343713 216.33483008 -232.25 216.3125 C-232.875 214.4609375 -232.875 214.4609375 -233.25 212.3125 C-230.21763458 208.71156606 -226.52338079 205.81776707 -222.94140625 202.77734375 C-218.79732482 199.18835868 -215.25441634 195.17484782 -211.71875 191.0078125 C-208.78363442 187.61993973 -205.65815166 184.64568503 -202.1875 181.8125 C-199.43754889 179.47211608 -197.4517103 177.15341652 -195.25 174.3125 C-191.79847978 170.67932082 -188.0961543 167.51762858 -184.25 164.3125 C-181.40562239 161.61034127 -178.78537102 158.80061584 -176.25 155.8125 C-172.83568222 151.78848262 -169.28329849 148.15600897 -165.1875 144.8125 C-162.43754889 142.47211608 -160.4517103 140.15341652 -158.25 137.3125 C-154.79847978 133.67932082 -151.0961543 130.51762858 -147.25 127.3125 C-144.40562239 124.61034127 -141.78537102 121.80061584 -139.25 118.8125 C-135.83568222 114.78848262 -132.28329849 111.15600897 -128.1875 107.8125 C-125.43754889 105.47211608 -123.4517103 103.15341652 -121.25 100.3125 C-117.79847978 96.67932082 -114.0961543 93.51762858 -110.25 90.3125 C-107.40562239 87.61034127 -104.78537102 84.80061584 -102.25 81.8125 C-97.69223744 76.44292223 -92.63564321 71.82899042 -87.25 67.3125 C-82.82238086 68.70403744 -80.2943745 70.83321486 -77.25 74.3125 C-77.25 74.9725 -77.25 75.6325 -77.25 76.3125 C-76.6725 76.539375 -76.095 76.76625 -75.5 77 C-73.25 78.3125 -73.25 78.3125 -71.5625 80.5 C-69.44036771 83.0809717 -67.37529879 85.06173478 -64.8125 87.1875 C-64.07128906 87.80367188 -63.33007812 88.41984375 -62.56640625 89.0546875 C-60.29443074 90.56313543 -60.29443074 90.56313543 -57.57421875 90.0859375 C-54.94225936 89.21009219 -53.85873319 88.56472647 -52.25 86.3125 C-51.35657323 83.6322197 -51.02731287 82.02509881 -51.875 79.3125 C-54.64190733 75.28790752 -58.49796102 72.07498311 -62.0546875 68.75390625 C-63.41176713 67.46126161 -64.76853203 66.16828648 -66.125 64.875 C-66.82625 64.23240234 -67.5275 63.58980469 -68.25 62.92773438 C-73.22018461 58.12809532 -73.22018461 58.12809532 -73.37109375 54 C-72.09431051 50.93927921 -70.43183095 49.4910133 -67.796875 47.52734375 C-65.55323617 45.76529406 -63.99160644 43.55973411 -62.25 41.3125 C-59.67801937 38.60515197 -57.0821726 36.17549804 -54.1875 33.8125 C-51.43754889 31.47211608 -49.4517103 29.15341652 -47.25 26.3125 C-43.79847978 22.67932082 -40.0961543 19.51762858 -36.25 16.3125 C-35.425 15.4875 -34.6 14.6625 -33.75 13.8125 C-27.54558688 7.60808688 -22.54828296 5.07859432 -14.25 2.3125 C-13.13044922 1.77109375 -13.13044922 1.77109375 -11.98828125 1.21875 C-7.99223165 -0.1037657 -4.18186849 -0.01636099 0 0 Z M-38.1875 103.375 C-40.47630433 106.21203719 -40.47630433 106.21203719 -40.9375 109.8125 C-40.04373396 114.36258167 -37.81713249 115.76575292 -34.25 118.3125 C-31.68814412 120.75236274 -29.39445606 123.12290143 -27.25 125.9375 C-25.02728275 128.57697674 -23.43784151 129.97805472 -20.25 131.3125 C-16.47345138 131.24738709 -14.20083094 131.14064308 -11.3125 128.625 C-9.82517462 125.38788005 -9.56758595 123.86105304 -10.25 120.3125 C-12.24445064 117.31753287 -14.73386428 114.8720923 -17.25 112.3125 C-18.13042969 111.33667969 -19.01085937 110.36085938 -19.91796875 109.35546875 C-20.86053823 108.33980669 -21.80454465 107.32547622 -22.75 106.3125 C-23.6265625 105.36375 -24.503125 104.415 -25.40625 103.4375 C-29.92848431 100.05824798 -33.61673281 100.16573793 -38.1875 103.375 Z M2.3125 143.9375 C0.25370067 147.06687499 0.15935994 148.62099963 0.75 152.3125 C3.29069214 157.10072749 6.5476816 159.9677976 10.75 163.3125 C11.61625 164.199375 12.4825 165.08625 13.375 166 C15.48250003 168.0520395 17.05861664 169.21601048 19.75 170.3125 C19.75 170.9725 19.75 171.6325 19.75 172.3125 C21.73 172.3125 23.71 172.3125 25.75 172.3125 C25.75 171.6525 25.75 170.9925 25.75 170.3125 C26.389375 170.003125 27.02875 169.69375 27.6875 169.375 C29.68610821 168.4779837 29.68610821 168.4779837 30.75 167.3125 C31.35395892 164.21721051 31.31277508 162.16029343 29.5390625 159.48828125 C27.68510332 157.34273694 25.74820396 155.32480064 23.75 153.3125 C22.88503906 152.42175781 22.02007812 151.53101563 21.12890625 150.61328125 C15.71467398 144.49496042 15.71467398 144.49496042 8.375 142 C4.76811399 142.01806078 4.76811399 142.01806078 2.3125 143.9375 Z " fill="#FFFFFF" transform="translate(280.25,22.6875)"/>
</svg>
