<?xml version="1.0" encoding="UTF-8"?>
<svg version="1.1" xmlns="http://www.w3.org/2000/svg" width="512" height="512">
<path d="M0 0 C0.97066406 0.48984375 1.94132812 0.9796875 2.94140625 1.484375 C15.71252957 8.1023079 26.78798974 16.94422356 37 27 C37.87527344 27.85078125 38.75054687 28.7015625 39.65234375 29.578125 C54.18851198 44.53985132 61.31566522 63.05364272 61.39648533 83.74081707 C61.22399748 95.25329308 58.59205416 106.01955097 55.83984375 117.14453125 C55.29516254 119.42612699 54.75275964 121.70826766 54.21246338 123.99090576 C52.77703225 130.02983082 51.31247089 136.06131584 49.84173203 142.0917244 C48.32451437 148.33484151 46.83447643 154.58442865 45.34301758 160.83374023 C43.56134102 168.29313618 41.77778759 175.75204418 39.9818573 183.20802307 C36.6103528 197.20943947 33.29866657 211.22156302 30.109375 225.265625 C29.93344378 226.03885794 29.75751255 226.81209087 29.57625008 227.60875511 C28.14391614 233.90471364 26.71541998 240.20151902 25.30465698 246.50234985 C18.71349268 275.88128067 9.83141039 299.42084745 -15 318 C-16.27423828 318.99580078 -16.27423828 318.99580078 -17.57421875 320.01171875 C-46.246729 341.82682744 -92.53815888 361.46815625 -129 357 C-139.69257224 354.7077714 -148.06149588 348.37599051 -154.38531494 339.55647278 C-159.3511908 331.69418013 -160.58571979 323.78287858 -160.390625 314.64453125 C-160.38659668 313.73167358 -160.38256836 312.81881592 -160.37841797 311.8782959 C-160.35775429 308.52282118 -160.30191257 305.16763676 -160.25 301.8125 C-160.1675 294.284375 -160.085 286.75625 -160 279 C-183.76 279 -207.52 279 -232 279 C-231.8423465 293.97258769 -231.8423465 293.97258769 -231.63964844 308.94458008 C-231.62794802 310.84455457 -231.61775941 312.74453923 -231.609375 314.64453125 C-231.58891113 315.60307007 -231.56844727 316.56160889 -231.54736328 317.54919434 C-231.54168341 328.74564528 -235.26832883 337.90088307 -243 346 C-251.72565185 354.32978107 -261.18602634 357.72225523 -273.19799805 357.67944336 C-315.00412751 355.8522005 -361.66073764 332.35487723 -390.50390625 302.734375 C-400.15245277 292.16476222 -406.9936124 279.14595427 -410.43017578 265.27783203 C-410.63893908 264.45997789 -410.84770237 263.64212376 -411.06279182 262.79948616 C-413.48750841 253.22487237 -415.74545432 243.60977841 -417.9921875 233.9921875 C-418.46011955 231.99810377 -418.92827009 230.00407129 -419.3966217 228.01008606 C-421.92806522 217.22479509 -424.4449445 206.43609651 -426.96313477 195.64770508 C-427.2189309 194.55194562 -427.47472704 193.45618616 -427.73827457 192.32722187 C-427.99392909 191.23205344 -428.24958361 190.13688501 -428.51298523 189.00852966 C-428.76821142 187.91521269 -429.02343761 186.82189571 -429.28639793 185.69544792 C-429.80134423 183.48898967 -430.31608538 181.28248353 -430.83062172 179.07592964 C-433.9370645 165.75547456 -437.07988644 152.44496889 -440.28968811 139.14904785 C-441.35990891 134.70485261 -442.41779022 130.25770687 -443.47434616 125.81024551 C-444.27131983 122.46006735 -445.07630716 119.11232208 -445.90252686 115.76922607 C-452.47626705 89.05405967 -453.99356683 67.37693601 -440 43 C-415.18598424 2.21497626 -362.18228419 -15.7109577 -318.45141602 -26.43334961 C-233.64814893 -46.41026504 -139.13834584 -45.85796803 0 0 Z M-392 50 C-392.68449219 50.49886719 -393.36898437 50.99773437 -394.07421875 51.51171875 C-402.04391408 57.76210902 -408.97870662 67.17870262 -410.30859375 77.36328125 C-410.77634438 86.47733146 -407.75856407 93.32652814 -401.8125 100.125 C-400.22892492 101.77007314 -398.62516965 103.3960052 -397 105 C-396.33226562 105.67804688 -395.66453125 106.35609375 -394.9765625 107.0546875 C-386.72151864 114.93018912 -368.8845305 129 -357 129 C-356.96132813 127.67548828 -356.96132813 127.67548828 -356.921875 126.32421875 C-356.19660581 110.97818201 -351.18868526 99.25234609 -339.90234375 88.6328125 C-325.30780955 76.10608704 -307.18662531 68.60662429 -289 63 C-288.24364258 62.76442383 -287.48728516 62.52884766 -286.70800781 62.28613281 C-259.9812667 54.08681311 -231.88697656 50.63403509 -204 50 C-203.14438477 49.97808594 -202.28876953 49.95617187 -201.40722656 49.93359375 C-168.60896927 49.19957829 -135.55098442 52.83803984 -104 62 C-102.88939209 62.31807617 -102.88939209 62.31807617 -101.75634766 62.64257812 C-77.00707202 69.8820519 -50.2955473 81.67625117 -37.40625 105.19921875 C-33.56987044 112.84000803 -33.44348438 120.5854674 -33 129 C-16.10512896 126.85932433 3.41988119 110.73231392 14 98 C18.65708571 90.53206746 20.87559405 83.80597442 20 75 C15.70482166 58.0262832 0.55030775 47.97668232 -13.6484375 39.4765625 C-93.71027847 -6.92085236 -207.77900872 -7.52381657 -392 50 Z M-296 108 C-297.01320313 108.47179687 -298.02640625 108.94359375 -299.0703125 109.4296875 C-305.86010836 112.85233664 -313.48550063 117.4565019 -316 125 C-307.26528276 139.99242511 -286.39247544 145.68867647 -270.73583984 149.88208008 C-215.99688362 163.87113093 -146.14283118 165.27108766 -94 141 C-93.15695312 140.61328125 -92.31390625 140.2265625 -91.4453125 139.828125 C-84.92119885 136.532206 -76.37254145 131.11762434 -74 124 C-83.57361756 108.30060617 -105.56289053 102.55822956 -122.2109375 98.34765625 C-176.35788356 85.36596722 -244.60838986 84.00049502 -296 108 Z M-393 158 C-390.41561102 170.47286288 -387.69716962 182.90576362 -384.8125 195.3125 C-384.62257477 196.13085327 -384.43264954 196.94920654 -384.23696899 197.7923584 C-383.23607749 202.10444924 -382.23284737 206.4159876 -381.22753906 210.72705078 C-380.1995715 215.13740612 -379.17989668 219.54963664 -378.16200256 223.96232605 C-377.36696371 227.40202119 -376.56580699 230.84027094 -375.76303101 234.27816772 C-375.38445124 235.90411956 -375.00810586 237.53059354 -374.63418579 239.15762329 C-369.46170664 261.63883537 -361.66285677 277.43202995 -341.67016602 290.20800781 C-322.15854746 302.25411292 -295.42993897 316 -272 316 C-271.99635437 315.44813522 -271.99270874 314.89627045 -271.98895264 314.3276825 C-271.94683742 308.53501677 -271.87729334 302.74312215 -271.79248047 296.95092773 C-271.76441754 294.79508207 -271.74313072 292.63913632 -271.72900391 290.4831543 C-271.70737006 287.36715999 -271.66061643 284.25235066 -271.609375 281.13671875 C-271.60814636 280.18729904 -271.60691772 279.23787933 -271.60565186 278.25968933 C-271.37076888 267.29942333 -267.75561542 257.84442018 -260 250 C-251.48289659 242.75200141 -243.02014529 239.53268518 -231.89111328 239.59594727 C-231.02964691 239.58908401 -230.16818054 239.58222076 -229.28060913 239.57514954 C-226.46033792 239.55699396 -223.64062906 239.56070324 -220.8203125 239.56640625 C-218.84170351 239.56183873 -216.8630961 239.55653147 -214.88449097 239.55052185 C-210.74730973 239.54161254 -206.61032175 239.54398863 -202.47314453 239.55395508 C-197.19543179 239.56543588 -191.91838903 239.54523551 -186.64076424 239.51603794 C-182.5569949 239.4976096 -178.47338411 239.49798169 -174.38958359 239.50367546 C-172.44490495 239.5038279 -170.50021502 239.49784848 -168.55557632 239.48538399 C-154.02879231 239.40538477 -141.89607859 240.22727325 -131 251 C-123.1493235 260.22530858 -120.56789484 268.98374644 -120.48828125 280.94140625 C-120.46135445 282.45383156 -120.46135445 282.45383156 -120.43388367 283.99681091 C-120.38013871 287.18533267 -120.34600027 290.37370786 -120.3125 293.5625 C-120.27929531 295.73765045 -120.24480277 297.91278164 -120.20898438 300.08789062 C-120.12443337 305.3917955 -120.05593358 310.69572022 -120 316 C-113.17296318 315.31966645 -106.76012269 314.13180402 -100.125 312.375 C-99.12267334 312.10993652 -98.12034668 311.84487305 -97.08764648 311.57177734 C-73.29562313 305.11095555 -49.81493423 295.51040544 -32 278 C-31.33871094 277.35160156 -30.67742187 276.70320313 -29.99609375 276.03515625 C-19.74475172 265.2081449 -17.64712988 250.36523906 -14.4453125 236.33984375 C-13.93521114 234.14056325 -13.4242826 231.94147447 -12.91256714 229.74256897 C-11.84818085 225.15757738 -10.79167346 220.57086721 -9.74121094 215.98266602 C-8.39208331 210.09152655 -7.02639168 204.20437975 -5.6552906 198.31832027 C-4.60160897 193.78928418 -3.55494792 189.25864976 -2.5106163 184.72744942 C-2.00921895 182.55442395 -1.50599989 180.38181802 -1.00094986 178.2096386 C-0.2998632 175.1880918 0.39214857 172.16461357 1.08154297 169.14038086 C1.29235001 168.23912979 1.50315704 167.33787872 1.72035217 166.40931702 C2.95325156 162.13217174 2.95325156 162.13217174 2 158 C0.93007813 158.53367187 -0.13984375 159.06734375 -1.2421875 159.6171875 C-40.93580328 179.09662584 -83.19621592 189.88052191 -127 195 C-128.2482959 195.15098145 -129.4965918 195.30196289 -130.78271484 195.45751953 C-173.78662344 200.42755111 -220.09264682 200.88333155 -263 195 C-263.97963715 194.8691803 -263.97963715 194.8691803 -264.97906494 194.73571777 C-308.69725618 188.89578664 -350.68335354 178.46612016 -390.29199219 158.79101562 C-391.83752118 157.92995963 -391.83752118 157.92995963 -393 158 Z " fill="#FFFFFF" transform="translate(451,155)"/>
<path d="M0 0 C4.89540724 2.82030972 8.28568 6.38232568 10.18286133 11.76708984 C10.80734957 16.98921272 10.79550213 22.19616967 10.78442383 27.44677734 C10.79220987 28.98463397 10.80088169 30.52248634 10.81039429 32.06033325 C10.825274 35.27636686 10.82476984 38.49196121 10.81420898 41.70800781 C10.80262952 45.8093722 10.83647214 49.90892713 10.88289833 54.0099926 C10.91250728 57.18444147 10.91409859 60.35846131 10.90787888 63.53302383 C10.9088988 65.04397284 10.91925142 66.55494794 10.93950272 68.06576157 C11.04476663 77.01684477 10.63207704 83.99747501 4.18286133 90.76708984 C-1.18444598 95.35166483 -6.40850308 95.4933935 -13.36401367 95.27880859 C-18.54472299 94.51107905 -22.24202684 92.58901902 -25.81713867 88.76708984 C-29.68098377 83.28991995 -30.36172348 79.44075265 -30.06713867 72.82958984 C-30.0490918 72.05035156 -30.03104492 71.27111328 -30.01245117 70.46826172 C-29.9658025 68.56732853 -29.89407696 66.66703815 -29.81713867 64.76708984 C-30.52290039 64.6463208 -31.22866211 64.52555176 -31.95581055 64.40112305 C-37.28329164 63.22062233 -42.26096574 60.97416977 -47.31713867 58.95458984 C-48.44506836 58.51566406 -49.57299805 58.07673828 -50.73510742 57.62451172 C-51.82436523 57.19074219 -52.91362305 56.75697266 -54.03588867 56.31005859 C-55.51992187 55.72260864 -55.51992187 55.72260864 -57.03393555 55.12329102 C-62.30074083 52.55687844 -65.67523631 49.44896603 -68.08666992 44.17333984 C-69.93854808 38.07303531 -69.8380797 31.30594339 -67.37963867 25.39208984 C-61.56207904 16.16581379 -48.809794 12.26256301 -39.24462891 8.05126953 C-36.64184611 6.89750119 -34.05739168 5.70800039 -31.47143555 4.51708984 C-10.83819931 -4.74329721 -10.83819931 -4.74329721 0 0 Z " fill="#FFFFFF" transform="translate(265.817138671875,1.23291015625)"/>
<path d="M0 0 C4.89540724 2.82030972 8.28568 6.38232568 10.18286133 11.76708984 C10.80734957 16.98921272 10.79550213 22.19616967 10.78442383 27.44677734 C10.79220987 28.98463397 10.80088169 30.52248634 10.81039429 32.06033325 C10.825274 35.27636686 10.82476984 38.49196121 10.81420898 41.70800781 C10.80262952 45.8093722 10.83647214 49.90892713 10.88289833 54.0099926 C10.91250728 57.18444147 10.91409859 60.35846131 10.90787888 63.53302383 C10.9088988 65.04397284 10.91925142 66.55494794 10.93950272 68.06576157 C11.04476663 77.01684477 10.63207704 83.99747501 4.18286133 90.76708984 C-1.18444598 95.35166483 -6.40850308 95.4933935 -13.36401367 95.27880859 C-18.54472299 94.51107905 -22.24202684 92.58901902 -25.81713867 88.76708984 C-29.68098377 83.28991995 -30.36172348 79.44075265 -30.06713867 72.82958984 C-30.0490918 72.05035156 -30.03104492 71.27111328 -30.01245117 70.46826172 C-29.9658025 68.56732853 -29.89407696 66.66703815 -29.81713867 64.76708984 C-30.52290039 64.6463208 -31.22866211 64.52555176 -31.95581055 64.40112305 C-37.28329164 63.22062233 -42.26096574 60.97416977 -47.31713867 58.95458984 C-48.44506836 58.51566406 -49.57299805 58.07673828 -50.73510742 57.62451172 C-51.82436523 57.19074219 -52.91362305 56.75697266 -54.03588867 56.31005859 C-55.51992188 55.72260864 -55.51992188 55.72260864 -57.03393555 55.12329102 C-62.30074083 52.55687844 -65.67523631 49.44896603 -68.08666992 44.17333984 C-69.93854808 38.07303531 -69.8380797 31.30594339 -67.37963867 25.39208984 C-61.56207904 16.16581379 -48.809794 12.26256301 -39.24462891 8.05126953 C-36.64184611 6.89750119 -34.05739168 5.70800039 -31.47143555 4.51708984 C-10.83819931 -4.74329721 -10.83819931 -4.74329721 0 0 Z " fill="#FFFFFF" transform="translate(415.817138671875,21.23291015625)"/>
<path d="M0 0 C4.89540724 2.82030972 8.28568 6.38232568 10.18286133 11.76708984 C10.80734957 16.98921272 10.79550213 22.19616967 10.78442383 27.44677734 C10.79220987 28.98463397 10.80088169 30.52248634 10.81039429 32.06033325 C10.825274 35.27636686 10.82476984 38.49196121 10.81420898 41.70800781 C10.80262952 45.8093722 10.83647214 49.90892713 10.88289833 54.0099926 C10.91250728 57.18444147 10.91409859 60.35846131 10.90787888 63.53302383 C10.9088988 65.04397284 10.91925142 66.55494794 10.93950272 68.06576157 C11.04476663 77.01684477 10.63207704 83.99747501 4.18286133 90.76708984 C-1.18444598 95.35166483 -6.40850308 95.4933935 -13.36401367 95.27880859 C-18.54472299 94.51107905 -22.24202684 92.58901902 -25.81713867 88.76708984 C-29.68098377 83.28991995 -30.36172348 79.44075265 -30.06713867 72.82958984 C-30.0490918 72.05035156 -30.03104492 71.27111328 -30.01245117 70.46826172 C-29.9658025 68.56732853 -29.89407696 66.66703815 -29.81713867 64.76708984 C-30.52290039 64.6463208 -31.22866211 64.52555176 -31.95581055 64.40112305 C-37.28329164 63.22062233 -42.26096574 60.97416977 -47.31713867 58.95458984 C-48.44506836 58.51566406 -49.57299805 58.07673828 -50.73510742 57.62451172 C-51.82436523 57.19074219 -52.91362305 56.75697266 -54.03588867 56.31005859 C-55.51992188 55.72260864 -55.51992188 55.72260864 -57.03393555 55.12329102 C-62.30074083 52.55687844 -65.67523631 49.44896603 -68.08666992 44.17333984 C-69.93854808 38.07303531 -69.8380797 31.30594339 -67.37963867 25.39208984 C-61.56207904 16.16581379 -48.809794 12.26256301 -39.24462891 8.05126953 C-36.64184611 6.89750119 -34.05739168 5.70800039 -31.47143555 4.51708984 C-10.83819931 -4.74329721 -10.83819931 -4.74329721 0 0 Z " fill="#FFFFFF" transform="translate(115.817138671875,21.23291015625)"/>
</svg>
